{"glyphs":{"0":{"ha":772,"x_min":55,"x_max":715,"o":"m 715 478 q 632 111 715 236 q 383 -14 549 -14 q 137 110 219 -14 q 55 478 55 233 q 133 850 55 730 q 389 970 212 970 q 637 847 558 970 q 715 478 715 724 m 524 478 q 513 682 524 607 q 471 789 501 757 q 387 821 441 821 q 299 788 330 821 q 257 681 268 756 q 245 478 245 606 q 257 275 245 350 q 299 168 269 200 q 385 136 330 136 q 495 215 466 136 q 524 478 524 294 z "},"1":{"ha":772,"x_min":87,"x_max":734,"o":"m 734 142 l 734 0 l 87 0 l 87 142 l 324 142 l 324 793 l 95 650 l 95 800 l 334 956 l 515 956 l 515 142 l 734 142 z "},"2":{"ha":772,"x_min":48,"x_max":717,"o":"m 717 157 l 717 0 l 48 0 l 48 132 q 112 240 73 187 q 204 346 151 292 q 328 455 258 399 q 413 529 378 496 q 468 589 448 563 q 498 642 488 616 q 509 693 509 668 q 477 787 509 755 q 383 818 446 818 q 290 785 322 818 q 248 686 258 752 l 56 697 q 156 900 73 830 q 382 970 239 970 q 619 899 536 970 q 702 701 702 829 q 672 572 702 629 q 596 467 642 515 q 510 389 558 426 q 418 316 463 351 q 331 239 370 278 q 273 157 292 201 l 717 157 z "},"3":{"ha":772,"x_min":32,"x_max":722,"o":"m 722 265 q 634 58 722 131 q 383 -16 546 -16 q 138 55 229 -16 q 32 260 47 126 l 226 277 q 382 139 244 139 q 489 173 451 139 q 527 277 527 207 q 481 374 527 340 q 344 408 435 408 l 277 408 l 277 562 l 340 562 q 463 596 422 562 q 505 692 505 629 q 472 784 505 751 q 376 818 439 818 q 280 785 317 818 q 239 693 244 753 l 48 707 q 151 900 63 830 q 379 970 238 970 q 613 902 529 970 q 698 715 698 835 q 645 568 698 626 q 494 492 593 511 l 494 489 q 663 417 604 476 q 722 265 722 357 z "},"4":{"ha":772,"x_min":21,"x_max":765,"o":"m 637 195 l 637 0 l 456 0 l 456 195 l 21 195 l 21 338 l 425 956 l 637 956 l 637 336 l 765 336 l 765 195 l 637 195 m 176 336 l 456 336 l 456 649 q 458 728 456 686 q 462 783 460 771 q 437 737 453 764 q 398 673 421 709 l 176 336 z "},"5":{"ha":772,"x_min":43,"x_max":734,"o":"m 734 318 q 639 76 734 166 q 380 -14 545 -14 q 150 51 236 -14 q 43 239 63 116 l 233 254 q 286 165 248 193 q 382 138 324 138 q 495 183 453 138 q 538 314 538 229 q 498 434 538 389 q 386 479 458 479 q 314 464 347 479 q 256 418 281 449 l 71 418 l 104 956 l 678 956 l 678 814 l 277 814 l 261 572 q 434 633 330 633 q 592 595 525 633 q 697 486 660 557 q 734 318 734 416 z "},"6":{"ha":772,"x_min":51,"x_max":722,"o":"m 722 313 q 637 73 722 160 q 401 -14 551 -14 q 141 105 232 -14 q 51 456 51 223 q 143 841 51 711 q 406 970 235 970 q 597 916 527 970 q 696 750 667 863 l 517 725 q 401 819 492 819 q 281 743 325 819 q 237 510 237 666 q 322 588 268 561 q 445 615 376 615 q 648 534 573 615 q 722 313 722 452 m 531 307 q 493 432 531 389 q 390 475 456 475 q 289 434 327 475 q 251 328 251 394 q 269 229 251 272 q 319 160 287 185 q 395 135 352 135 q 495 181 459 135 q 531 307 531 227 z "},"7":{"ha":772,"x_min":60,"x_max":711,"o":"m 711 804 q 590 607 647 703 q 490 415 532 512 q 422 216 447 319 q 397 0 397 114 l 199 0 q 222 207 199 109 q 298 414 246 305 q 387 575 332 484 q 534 799 443 666 l 60 799 l 60 956 l 711 956 l 711 804 z "},"8":{"ha":772,"x_min":44,"x_max":730,"o":"m 730 269 q 641 61 730 135 q 387 -14 552 -14 q 134 60 224 -14 q 44 268 44 134 q 97 422 44 359 q 239 500 150 485 l 239 503 q 114 579 161 519 q 66 717 66 639 q 150 902 66 834 q 385 970 233 970 q 623 904 540 970 q 706 715 706 838 q 659 578 706 637 q 532 504 612 519 l 532 501 q 677 426 625 486 q 730 269 730 365 m 510 705 q 385 836 510 836 q 261 705 261 836 q 292 603 261 637 q 386 568 323 568 q 479 600 448 568 q 510 705 510 632 m 532 285 q 495 397 532 359 q 383 435 458 435 q 277 395 314 435 q 240 282 240 356 q 277 159 240 198 q 389 121 313 121 q 497 159 463 121 q 532 285 532 198 z "},"9":{"ha":772,"x_min":48,"x_max":721,"o":"m 721 493 q 628 113 721 239 q 364 -14 535 -14 q 166 40 238 -14 q 65 211 95 94 l 244 236 q 366 136 271 136 q 489 213 446 136 q 534 440 532 290 q 449 360 508 389 q 323 332 391 332 q 177 371 239 332 q 82 481 115 410 q 48 650 48 552 q 135 885 48 800 q 382 970 222 970 q 637 851 553 970 q 721 493 721 732 m 519 627 q 480 768 519 715 q 377 821 441 821 q 278 775 314 821 q 241 648 241 729 q 277 521 241 569 q 378 473 313 473 q 450 492 418 473 q 501 546 482 511 q 519 627 519 581 z "},"\u0000":{"ha":0,"x_min":0,"x_max":0,"o":""},"\r":{"ha":386,"x_min":0,"x_max":0,"o":""}," ":{"ha":386,"x_min":0,"x_max":0,"o":""},"!":{"ha":463,"x_min":131,"x_max":330,"o":"m 330 956 l 309 289 l 153 289 l 131 956 l 330 956 m 326 183 l 326 0 l 131 0 l 131 183 l 326 183 z "},"\"":{"ha":659,"x_min":92,"x_max":567,"o":"m 567 956 l 547 609 l 399 609 l 380 956 l 567 956 m 277 956 l 258 609 l 110 609 l 92 956 l 277 956 z "},"#":{"ha":772,"x_min":24,"x_max":750,"o":"m 233 258 l 179 0 l 75 0 l 129 258 l 24 258 l 24 359 l 151 359 l 199 585 l 58 585 l 58 685 l 220 685 l 277 946 l 380 946 l 325 685 l 533 685 l 590 946 l 696 946 l 639 685 l 750 685 l 750 585 l 616 585 l 570 359 l 715 359 l 715 258 l 549 258 l 493 0 l 387 0 l 441 258 l 233 258 m 256 359 l 465 359 l 513 585 l 304 585 l 256 359 z "},"$":{"ha":772,"x_min":18,"x_max":753,"o":"m 353 14 q 125 82 207 19 q 18 277 44 146 l 192 309 q 243 196 205 232 q 353 154 281 161 l 353 419 q 292 435 327 425 q 222 457 256 445 q 166 484 189 470 q 80 570 111 517 q 49 699 49 623 q 126 873 49 811 q 353 940 204 935 l 353 1031 l 427 1031 l 427 940 q 569 914 510 936 q 668 842 629 892 q 729 703 707 792 l 550 676 q 510 767 540 735 q 427 807 481 800 l 427 568 q 473 558 442 566 q 554 534 504 551 q 703 438 654 502 q 753 279 753 375 q 670 89 753 157 q 427 16 588 22 l 427 -103 l 353 -103 l 353 14 m 227 701 q 237 652 227 671 q 277 614 250 627 q 353 585 303 602 l 353 810 q 227 701 227 801 m 576 277 q 565 332 576 311 q 529 367 553 353 q 427 403 505 380 l 427 154 q 539 190 501 159 q 576 277 576 220 z "},"%":{"ha":1235,"x_min":35,"x_max":1198,"o":"m 277 966 q 515 663 515 966 q 454 436 515 515 q 273 358 393 358 q 95 436 155 358 q 35 663 35 513 q 93 891 35 817 q 277 966 151 966 m 1000 956 l 374 0 l 235 0 l 859 956 l 1000 956 m 368 663 q 348 815 368 770 q 277 861 327 861 q 201 815 222 861 q 180 663 180 770 q 202 510 180 556 q 275 464 224 464 q 347 510 326 464 q 368 663 368 556 m 1198 293 q 1137 67 1198 145 q 958 -11 1076 -11 q 779 66 839 -11 q 718 293 718 144 q 777 521 718 445 q 961 597 835 597 q 1141 520 1083 597 q 1198 293 1198 444 m 1053 293 q 1032 447 1053 401 q 961 493 1011 493 q 886 446 907 493 q 865 293 865 399 q 887 140 865 184 q 960 96 909 96 q 1031 142 1009 96 q 1053 293 1053 188 z "},"&":{"ha":1003,"x_min":61,"x_max":960,"o":"m 61 261 q 116 424 61 353 q 290 551 171 496 q 253 650 265 602 q 240 741 240 697 q 307 904 240 846 q 496 961 373 961 q 676 907 610 961 q 742 760 742 852 q 715 665 742 707 q 641 587 689 623 q 575 547 616 570 q 476 497 534 524 q 642 269 544 377 q 749 515 712 377 l 890 468 q 760 183 845 312 q 880 134 817 134 q 960 144 925 134 l 960 7 q 871 -8 923 -8 q 754 13 812 -8 q 647 74 695 34 q 390 -14 532 -14 q 147 59 233 -14 q 61 261 61 131 m 590 758 q 564 821 590 797 q 494 846 538 846 q 415 817 442 846 q 387 739 387 787 q 424 608 387 681 q 526 660 496 639 q 573 705 557 681 q 590 758 590 728 m 534 167 q 432 293 478 229 q 350 422 386 357 q 233 264 233 368 q 277 156 233 197 q 397 115 321 115 q 477 132 441 115 q 534 167 513 148 z "},"'":{"ha":330,"x_min":74,"x_max":258,"o":"m 258 956 l 240 609 l 92 609 l 74 956 l 258 956 z "},"(":{"ha":463,"x_min":69,"x_max":461,"o":"m 271 -288 q 155 -85 200 -186 q 90 125 111 16 q 69 360 69 234 q 90 595 69 486 q 155 804 111 704 q 271 1006 200 905 l 461 1006 q 306 699 354 852 q 257 359 257 545 q 278 128 257 236 q 344 -81 299 20 q 461 -288 389 -182 l 271 -288 z "},")":{"ha":463,"x_min":1,"x_max":393,"o":"m 1 -288 q 119 -81 74 -182 q 184 128 163 20 q 205 359 205 236 q 157 700 205 546 q 1 1006 108 853 l 192 1006 q 308 803 264 904 q 373 593 352 702 q 393 360 393 485 q 373 126 393 235 q 308 -84 352 17 q 192 -288 264 -185 l 1 -288 z "},"*":{"ha":541,"x_min":4,"x_max":539,"o":"m 496 521 l 371 439 l 272 610 l 171 439 l 45 522 l 174 665 l 4 707 l 50 840 l 212 770 l 200 956 l 346 956 l 334 770 l 493 840 l 539 707 l 370 665 l 496 521 z "},"+":{"ha":811,"x_min":58,"x_max":755,"o":"m 482 386 l 482 109 l 329 109 l 329 386 l 58 386 l 58 538 l 329 538 l 329 814 l 482 814 l 482 538 l 755 538 l 755 386 l 482 386 z "},",":{"ha":386,"x_min":94,"x_max":293,"o":"m 293 45 q 276 -99 293 -37 q 220 -215 258 -161 l 94 -215 q 159 -109 134 -167 q 184 0 184 -52 l 97 0 l 97 207 l 293 207 l 293 45 z "},"-":{"ha":463,"x_min":54,"x_max":407,"o":"m 407 443 l 407 277 l 54 277 l 54 443 l 407 443 z "},".":{"ha":386,"x_min":94,"x_max":290,"o":"m 290 207 l 290 0 l 94 0 l 94 207 l 290 207 z "},"/":{"ha":386,"x_min":14,"x_max":372,"o":"m 372 1006 l 178 -28 l 14 -28 l 211 1006 l 372 1006 z "},":":{"ha":463,"x_min":134,"x_max":329,"o":"m 329 701 l 329 510 l 134 510 l 134 701 l 329 701 m 329 191 l 329 0 l 134 0 l 134 191 l 329 191 z "},";":{"ha":463,"x_min":132,"x_max":330,"o":"m 330 701 l 330 510 l 135 510 l 135 701 l 330 701 m 330 45 q 313 -99 330 -37 q 257 -215 296 -161 l 132 -215 q 199 -104 176 -160 q 222 0 222 -48 l 135 0 l 135 191 l 330 191 l 330 45 z "},"<":{"ha":811,"x_min":58,"x_max":755,"o":"m 755 239 l 755 85 l 58 350 l 58 568 l 755 833 l 755 679 l 190 458 l 755 239 z "},"=":{"ha":811,"x_min":58,"x_max":754,"o":"m 754 722 l 754 571 l 58 571 l 58 722 l 754 722 m 754 347 l 754 197 l 58 197 l 58 347 l 754 347 z "},">":{"ha":811,"x_min":58,"x_max":755,"o":"m 755 350 l 58 85 l 58 239 l 623 458 l 58 679 l 58 833 l 755 568 l 755 350 z "},"?":{"ha":848,"x_min":64,"x_max":768,"o":"m 768 696 q 739 578 768 630 q 629 468 709 526 l 577 431 q 484 289 488 367 l 302 289 q 321 374 305 335 q 369 448 338 414 q 444 514 399 483 q 522 575 493 548 q 564 630 551 603 q 576 688 576 656 q 537 782 576 747 q 427 817 498 817 q 312 777 358 817 q 257 671 265 736 l 64 679 q 177 893 82 817 q 424 970 272 970 q 676 897 585 970 q 768 696 768 824 m 493 183 l 493 0 l 297 0 l 297 183 l 493 183 z "},"@":{"ha":1354,"x_min":79,"x_max":1274,"o":"m 1274 492 q 1231 267 1274 368 q 1112 107 1187 165 q 947 50 1036 50 q 851 81 885 50 q 818 167 818 112 q 819 191 818 180 q 822 212 820 202 l 818 212 q 717 96 784 141 q 581 50 650 50 q 415 119 474 50 q 357 311 357 188 q 401 519 357 421 q 522 671 445 616 q 696 726 600 726 q 875 608 828 726 l 879 608 l 905 711 l 1011 711 l 932 368 q 907 205 907 253 q 923 157 907 172 q 960 143 939 143 q 1063 191 1014 143 q 1142 316 1113 237 q 1171 490 1171 395 q 1119 701 1171 610 q 969 841 1067 791 q 742 890 871 890 q 455 819 579 890 q 260 614 331 748 q 189 313 189 479 q 243 81 189 181 q 395 -71 298 -20 q 624 -122 492 -122 q 823 -96 724 -122 q 1023 -17 923 -69 l 1065 -100 q 843 -192 951 -164 q 619 -220 734 -220 q 338 -155 459 -220 q 148 32 216 -90 q 79 313 79 155 q 165 660 79 505 q 402 901 251 815 q 741 986 553 986 q 1026 925 905 986 q 1210 751 1147 863 q 1274 492 1274 640 m 835 489 q 794 594 835 553 q 690 635 754 635 q 576 593 627 635 q 497 472 526 550 q 469 313 469 395 q 502 191 469 235 q 603 146 535 146 q 690 175 648 146 q 766 257 732 203 q 803 337 788 293 q 827 421 819 380 q 835 489 835 462 z "},"A":{"ha":1003,"x_min":35,"x_max":966,"o":"m 319 244 l 235 0 l 35 0 l 383 956 l 619 956 l 966 0 l 768 0 l 684 244 l 319 244 m 501 808 q 482 743 494 781 q 465 690 470 705 l 364 395 l 639 395 l 536 696 q 518 752 526 724 q 501 808 510 781 z "},"B":{"ha":1003,"x_min":93,"x_max":940,"o":"m 940 273 q 842 71 940 142 q 571 0 745 0 l 93 0 l 93 956 l 530 956 q 795 895 705 956 q 885 715 885 834 q 840 578 885 634 q 703 503 795 522 q 879 430 819 489 q 940 273 940 370 m 684 688 q 643 780 684 753 q 521 807 602 807 l 293 807 l 293 570 l 522 570 q 645 600 607 570 q 684 688 684 629 m 739 288 q 547 422 739 422 l 293 422 l 293 149 l 554 149 q 695 183 650 149 q 739 288 739 218 z "},"C":{"ha":1003,"x_min":57,"x_max":965,"o":"m 539 144 q 791 326 721 144 l 965 260 q 800 54 909 121 q 539 -14 691 -14 q 278 45 386 -14 q 114 215 170 104 q 57 482 57 326 q 111 748 57 640 q 271 913 165 857 q 530 970 377 970 q 804 902 699 970 q 953 704 910 835 l 777 656 q 689 770 754 728 q 534 812 623 812 q 329 728 399 812 q 258 482 258 644 q 291 297 258 372 q 386 183 323 222 q 539 144 448 144 z "},"D":{"ha":1003,"x_min":93,"x_max":945,"o":"m 945 485 q 885 223 945 332 q 721 57 826 115 q 479 0 616 0 l 93 0 l 93 956 l 439 956 q 812 834 680 956 q 945 485 945 712 m 743 485 q 663 720 743 639 q 435 801 583 801 l 293 801 l 293 155 l 463 155 q 611 195 549 155 q 709 309 674 235 q 743 485 743 383 z "},"E":{"ha":926,"x_min":93,"x_max":872,"o":"m 872 155 l 872 0 l 93 0 l 93 956 l 844 956 l 844 801 l 293 801 l 293 561 l 803 561 l 803 406 l 293 406 l 293 155 l 872 155 z "},"F":{"ha":848,"x_min":93,"x_max":798,"o":"m 293 351 l 293 0 l 93 0 l 93 956 l 798 956 l 798 801 l 293 801 l 293 505 l 782 505 l 782 351 l 293 351 z "},"G":{"ha":1080,"x_min":57,"x_max":994,"o":"m 547 143 q 698 166 625 143 q 811 224 771 189 l 811 356 l 578 356 l 578 504 l 994 504 l 994 153 q 797 31 918 75 q 541 -14 675 -14 q 278 44 386 -14 q 113 213 170 102 q 57 482 57 324 q 183 844 57 718 q 546 970 309 970 q 821 908 714 970 q 974 721 928 846 l 789 665 q 696 775 760 738 q 546 812 632 812 q 332 727 405 812 q 258 482 258 642 q 334 232 258 320 q 547 143 410 143 z "},"H":{"ha":1003,"x_min":93,"x_max":909,"o":"m 293 410 l 293 0 l 93 0 l 93 956 l 293 956 l 293 575 l 709 575 l 709 956 l 909 956 l 909 0 l 709 0 l 709 410 l 293 410 z "},"I":{"ha":386,"x_min":93,"x_max":293,"o":"m 293 956 l 293 0 l 93 0 l 93 956 l 293 956 z "},"J":{"ha":772,"x_min":21,"x_max":677,"o":"m 355 -14 q 127 51 207 -14 q 21 259 47 115 l 220 288 q 265 179 232 214 q 357 143 298 143 q 447 183 416 143 q 478 298 478 223 l 478 799 l 288 799 l 288 956 l 677 956 l 677 302 q 593 70 677 153 q 355 -14 508 -14 z "},"K":{"ha":1003,"x_min":93,"x_max":990,"o":"m 293 349 l 293 0 l 93 0 l 93 956 l 293 956 l 293 522 l 724 956 l 957 956 l 549 551 l 990 0 l 754 0 l 411 439 l 293 349 z "},"L":{"ha":848,"x_min":93,"x_max":806,"o":"m 806 155 l 806 0 l 93 0 l 93 956 l 293 956 l 293 155 l 806 155 z "},"M":{"ha":1157,"x_min":93,"x_max":1064,"o":"m 271 579 l 271 0 l 93 0 l 93 956 l 361 956 l 532 421 q 555 331 543 376 q 579 241 568 286 q 593 293 587 267 q 607 344 600 318 q 622 395 614 370 l 798 956 l 1064 956 l 1064 0 l 886 0 l 886 579 q 888 658 886 599 q 893 787 890 718 q 851 633 869 696 q 822 533 833 569 l 650 0 l 507 0 l 335 533 l 262 787 q 269 657 267 709 q 271 579 271 605 z "},"N":{"ha":1003,"x_min":93,"x_max":909,"o":"m 271 564 l 271 0 l 93 0 l 93 956 l 321 956 l 744 214 q 732 400 732 317 l 732 956 l 909 956 l 909 0 l 675 0 l 258 736 q 268 639 264 682 q 271 564 271 596 z "},"O":{"ha":1080,"x_min":57,"x_max":1022,"o":"m 1022 482 q 962 221 1022 333 q 793 48 902 110 q 538 -14 684 -14 q 280 46 388 -14 q 115 218 172 106 q 57 482 57 329 q 114 745 57 635 q 280 912 172 854 q 539 970 388 970 q 799 911 691 970 q 964 743 907 852 q 1022 482 1022 634 m 818 482 q 745 725 818 637 q 539 812 671 812 q 332 725 405 812 q 258 482 258 638 q 292 302 258 378 q 389 185 326 226 q 538 144 452 144 q 745 232 672 144 q 818 482 818 320 z "},"P":{"ha":926,"x_min":93,"x_max":879,"o":"m 879 653 q 837 489 879 560 q 716 377 794 417 q 530 336 638 336 l 293 336 l 293 0 l 93 0 l 93 956 l 522 956 q 786 877 694 956 q 879 653 879 798 m 677 650 q 500 800 677 800 l 293 800 l 293 490 l 505 490 q 633 531 588 490 q 677 650 677 572 z "},"Q":{"ha":1080,"x_min":57,"x_max":1022,"o":"m 1022 482 q 980 255 1022 355 q 858 91 937 155 q 667 3 779 26 q 731 -94 690 -64 q 848 -124 773 -124 q 929 -117 890 -124 l 928 -254 q 764 -273 844 -273 q 581 -212 653 -273 q 464 -7 508 -150 q 244 68 335 5 q 105 236 153 130 q 57 482 57 341 q 114 745 57 635 q 280 912 172 854 q 539 970 388 970 q 799 911 691 970 q 964 743 907 852 q 1022 482 1022 634 m 818 482 q 745 725 818 637 q 539 812 671 812 q 332 725 405 812 q 258 482 258 638 q 292 301 258 378 q 388 184 326 225 q 538 143 451 143 q 745 231 672 143 q 818 482 818 319 z "},"R":{"ha":1003,"x_min":93,"x_max":975,"o":"m 293 363 l 293 0 l 93 0 l 93 956 l 570 956 q 834 882 741 956 q 927 671 927 808 q 870 497 927 570 q 716 401 813 425 l 975 0 l 749 0 l 528 363 l 293 363 m 726 663 q 682 766 726 731 q 549 800 637 800 l 293 800 l 293 518 l 555 518 q 682 556 639 518 q 726 663 726 594 z "},"S":{"ha":926,"x_min":40,"x_max":872,"o":"m 872 275 q 768 61 872 135 q 463 -14 664 -14 q 40 249 100 -14 l 233 281 q 310 171 253 205 q 468 136 367 136 q 625 168 573 136 q 677 264 677 200 q 654 331 677 304 q 586 375 630 357 q 522 394 564 384 q 418 418 480 405 q 305 447 346 435 q 240 470 264 458 q 193 494 216 481 q 113 576 142 525 q 85 703 85 627 q 182 901 85 832 q 465 970 279 970 q 732 914 643 970 q 847 730 821 859 l 653 704 q 592 797 638 766 q 461 828 547 828 q 325 800 370 828 q 279 714 279 771 q 299 653 279 677 q 356 612 318 629 q 510 571 392 596 q 628 543 578 556 q 707 517 677 530 q 761 490 737 505 q 801 460 784 476 q 854 381 836 427 q 872 275 872 335 z "},"T":{"ha":848,"x_min":16,"x_max":833,"o":"m 524 801 l 524 0 l 324 0 l 324 801 l 16 801 l 16 956 l 833 956 l 833 801 l 524 801 z "},"U":{"ha":1003,"x_min":83,"x_max":918,"o":"m 490 -14 q 268 30 359 -14 q 130 156 177 73 q 83 358 83 239 l 83 956 l 283 956 l 283 374 q 337 202 283 260 q 496 143 391 143 q 661 204 603 143 q 718 380 718 266 l 718 956 l 918 956 l 918 368 q 868 162 918 248 q 722 32 817 77 q 490 -14 626 -14 z "},"V":{"ha":926,"x_min":9,"x_max":917,"o":"m 917 956 l 566 0 l 363 0 l 9 956 l 218 956 l 415 342 q 437 267 425 312 q 465 161 450 222 q 497 284 488 246 q 514 342 507 322 l 710 956 l 917 956 z "},"W":{"ha":1311,"x_min":1,"x_max":1310,"o":"m 616 566 l 485 0 l 248 0 l 1 956 l 204 956 l 337 370 q 356 284 346 333 q 374 189 367 235 q 386 251 380 221 q 398 311 392 281 q 411 370 404 340 l 546 956 l 770 956 l 903 391 q 920 308 910 362 q 939 189 930 254 q 955 259 947 229 q 969 319 962 289 q 984 388 976 349 l 1107 956 l 1310 956 l 1063 0 l 825 0 l 696 553 q 674 652 684 602 q 656 757 664 703 q 642 688 650 728 q 627 615 634 649 q 616 566 620 581 z "},"X":{"ha":926,"x_min":12,"x_max":914,"o":"m 464 380 l 224 0 l 12 0 l 343 503 l 40 956 l 252 956 l 464 618 l 676 956 l 886 956 l 596 503 l 914 0 l 704 0 l 464 380 z "},"Y":{"ha":926,"x_min":24,"x_max":904,"o":"m 564 392 l 564 0 l 364 0 l 364 392 l 24 956 l 233 956 l 463 551 l 694 956 l 904 956 l 564 392 z "},"Z":{"ha":848,"x_min":41,"x_max":808,"o":"m 808 157 l 808 0 l 41 0 l 41 142 l 558 799 l 93 799 l 93 956 l 781 956 l 781 817 l 264 157 l 808 157 z "},"[":{"ha":463,"x_min":78,"x_max":446,"o":"m 446 -159 l 446 -288 l 78 -288 l 78 1006 l 446 1006 l 446 878 l 258 878 l 258 -159 l 446 -159 z "},"\\":{"ha":386,"x_min":14,"x_max":373,"o":"m 176 1007 l 373 -28 l 208 -28 l 14 1007 l 176 1007 z "},"]":{"ha":463,"x_min":17,"x_max":385,"o":"m 385 1006 l 385 -288 l 17 -288 l 17 -159 l 205 -159 l 205 878 l 17 878 l 17 1006 l 385 1006 z "},"^":{"ha":811,"x_min":31,"x_max":781,"o":"m 31 349 l 296 956 l 514 956 l 781 349 l 625 349 l 404 859 l 184 349 l 31 349 z "},"_":{"ha":772,"x_min":-14,"x_max":785,"o":"m 785 -117 l 785 -170 l -14 -170 l -14 -117 l 785 -117 z "},"`":{"ha":463,"x_min":45,"x_max":390,"o":"m 390 823 l 390 802 l 275 802 l 45 989 l 45 1019 l 220 1019 l 390 823 z "},"a":{"ha":772,"x_min":41,"x_max":781,"o":"m 267 -14 q 100 44 160 -14 q 41 208 41 102 q 115 380 41 321 q 330 442 189 439 l 488 445 l 488 482 q 463 589 488 554 q 381 624 438 624 q 303 600 328 624 q 273 520 279 576 l 74 530 q 389 747 111 747 q 604 679 528 747 q 679 484 679 610 l 679 217 q 693 132 679 155 q 739 109 707 109 q 781 113 761 109 l 781 9 q 721 -4 746 1 q 659 -8 696 -8 q 553 27 587 -8 q 512 131 519 62 l 508 131 q 408 23 468 59 q 267 -14 347 -14 m 488 340 l 391 338 q 296 324 323 335 q 254 288 269 312 q 239 222 239 263 q 263 145 239 170 q 328 119 288 119 q 410 144 372 119 q 467 211 446 168 q 488 302 488 254 l 488 340 z "},"b":{"ha":848,"x_min":92,"x_max":791,"o":"m 791 370 q 719 87 791 188 q 510 -14 646 -14 q 375 20 432 -14 q 288 118 318 54 l 286 118 q 285 77 286 102 q 281 30 283 52 q 277 0 279 8 l 92 0 q 96 74 94 32 q 97 168 97 115 l 97 1006 l 288 1006 l 288 726 q 287 666 288 696 q 285 606 286 636 l 288 606 q 378 712 319 677 q 522 747 437 747 q 722 649 652 747 q 791 370 791 550 m 593 370 q 556 555 593 494 q 443 615 519 615 q 325 550 366 615 q 285 363 285 486 q 325 182 285 247 q 441 117 364 117 q 555 180 517 117 q 593 370 593 243 z "},"c":{"ha":772,"x_min":54,"x_max":732,"o":"m 403 -14 q 145 86 236 -14 q 54 363 54 185 q 146 646 54 545 q 406 747 237 747 q 620 682 535 747 q 726 503 705 617 l 534 493 q 494 583 526 549 q 401 616 461 616 q 291 555 328 616 q 254 370 254 494 q 292 180 254 243 q 404 117 330 117 q 495 151 458 117 q 541 253 532 185 l 732 244 q 677 109 722 167 q 562 19 633 51 q 403 -14 492 -14 z "},"d":{"ha":848,"x_min":57,"x_max":757,"o":"m 572 0 q 568 28 571 7 q 564 76 566 50 q 562 119 562 102 l 559 119 q 470 20 528 53 q 325 -14 412 -14 q 127 86 197 -14 q 57 366 57 186 q 131 648 57 549 q 339 747 204 747 q 474 715 417 747 q 561 618 530 682 l 562 618 l 561 739 l 561 1006 l 751 1006 l 751 160 q 753 86 751 126 q 757 0 754 46 l 572 0 m 256 366 q 293 179 256 241 q 406 117 331 117 q 522 183 481 117 q 564 371 564 249 q 524 554 564 490 q 407 618 484 618 q 293 556 330 618 q 256 366 256 494 z "},"e":{"ha":772,"x_min":54,"x_max":725,"o":"m 254 330 q 294 169 254 223 q 407 114 334 114 q 489 136 457 114 q 534 201 522 158 l 714 186 q 397 -14 636 -14 q 143 84 232 -14 q 54 370 54 182 q 144 650 54 552 q 400 747 235 747 q 642 643 558 747 q 725 336 725 538 l 725 330 l 254 330 m 541 450 q 498 583 535 538 q 397 627 460 627 q 294 581 330 627 q 256 450 258 534 l 541 450 z "},"f":{"ha":463,"x_min":24,"x_max":465,"o":"m 321 605 l 321 0 l 131 0 l 131 605 l 24 605 l 24 734 l 131 734 l 131 810 q 184 958 131 910 q 345 1006 237 1006 q 465 996 400 1006 l 465 873 q 410 879 438 879 q 341 860 361 879 q 321 791 321 840 l 321 734 l 465 734 l 465 605 l 321 605 z "},"g":{"ha":848,"x_min":57,"x_max":755,"o":"m 404 -294 q 188 -243 270 -294 q 87 -97 106 -192 l 278 -75 q 322 -144 288 -119 q 410 -169 355 -169 q 526 -120 489 -169 q 562 25 562 -71 l 564 136 l 562 136 q 472 35 531 68 q 326 1 413 1 q 127 98 198 1 q 57 373 57 194 q 130 650 57 553 q 340 748 202 748 q 476 715 420 748 q 562 616 531 682 l 566 616 q 567 656 566 632 q 571 703 568 681 q 575 734 573 726 l 755 734 q 751 564 751 661 l 751 22 q 663 -214 751 -134 q 404 -294 574 -294 m 564 377 q 523 554 564 490 q 408 617 483 617 q 294 556 332 617 q 256 373 256 495 q 293 194 256 254 q 407 134 331 134 q 523 197 483 134 q 564 377 564 260 z "},"h":{"ha":848,"x_min":97,"x_max":762,"o":"m 285 587 q 382 709 323 671 q 521 747 440 747 q 700 675 637 747 q 762 465 762 604 l 762 0 l 572 0 l 572 411 q 540 556 572 508 q 441 604 507 604 q 330 545 372 604 q 288 393 288 486 l 288 0 l 97 0 l 97 1006 l 288 1006 l 288 732 q 287 683 288 707 q 285 635 286 659 q 282 587 284 611 l 285 587 z "},"i":{"ha":386,"x_min":97,"x_max":288,"o":"m 288 1006 l 288 866 l 97 866 l 97 1006 l 288 1006 m 288 734 l 288 0 l 97 0 l 97 734 l 288 734 z "},"j":{"ha":386,"x_min":-22,"x_max":288,"o":"m 288 1006 l 288 866 l 98 866 l 98 1006 l 288 1006 m 94 -288 q -22 -282 26 -288 l -22 -148 q -4 -150 -13 -149 q 13 -151 4 -151 q 80 -129 62 -151 q 98 -41 98 -108 l 98 734 l 288 734 l 288 -87 q 239 -236 288 -184 q 94 -288 190 -288 z "},"k":{"ha":772,"x_min":97,"x_max":774,"o":"m 288 275 l 288 0 l 97 0 l 97 1006 l 288 1006 l 288 430 l 549 734 l 754 734 l 496 448 l 774 0 l 566 0 l 370 332 l 288 275 z "},"l":{"ha":386,"x_min":97,"x_max":288,"o":"m 288 1006 l 288 0 l 97 0 l 97 1006 l 288 1006 z "},"m":{"ha":1235,"x_min":92,"x_max":1149,"o":"m 288 393 l 288 0 l 97 0 l 97 570 q 95 666 97 629 q 92 734 94 704 l 273 734 q 277 695 275 726 q 280 634 279 665 q 282 588 282 602 l 285 588 q 373 710 320 672 q 498 748 425 748 q 634 708 583 748 q 703 588 685 668 l 707 588 q 796 711 744 673 q 929 748 848 748 q 1093 675 1036 748 q 1149 466 1149 602 l 1149 0 l 960 0 l 960 412 q 932 557 960 509 q 848 605 904 605 q 755 551 793 605 q 718 402 718 497 l 718 0 l 529 0 l 529 412 q 501 557 529 509 q 418 605 473 605 q 324 546 360 605 q 288 393 288 487 z "},"n":{"ha":848,"x_min":92,"x_max":762,"o":"m 288 393 l 288 0 l 97 0 l 97 570 q 95 666 97 629 q 92 734 94 704 l 273 734 q 277 695 275 726 q 280 634 279 665 q 282 588 282 602 l 285 588 q 382 710 323 672 q 521 748 440 748 q 700 676 637 748 q 762 466 762 604 l 762 0 l 572 0 l 572 412 q 540 557 572 509 q 441 605 507 605 q 330 546 372 605 q 288 393 288 486 z "},"o":{"ha":848,"x_min":54,"x_max":794,"o":"m 794 368 q 695 88 794 189 q 421 -14 596 -14 q 152 88 250 -14 q 54 368 54 190 q 152 646 54 545 q 425 747 250 747 q 700 649 605 747 q 794 368 794 551 m 595 368 q 552 557 595 498 q 428 616 509 616 q 298 554 341 616 q 254 368 254 492 q 297 181 254 245 q 419 117 339 117 q 551 179 507 117 q 595 368 595 242 z "},"p":{"ha":848,"x_min":92,"x_max":791,"o":"m 791 370 q 718 86 791 186 q 510 -14 644 -14 q 288 117 351 -14 l 283 117 q 288 -7 288 96 l 288 -288 l 97 -288 l 97 565 q 96 659 97 617 q 92 734 94 701 l 277 734 q 281 706 279 726 q 284 663 283 687 q 285 614 285 638 l 288 614 q 378 716 319 682 q 522 749 437 749 q 721 651 650 749 q 791 370 791 552 m 593 370 q 555 555 593 494 q 441 617 517 617 q 325 551 366 617 q 285 365 285 484 q 325 181 285 246 q 440 117 366 117 q 555 180 517 117 q 593 370 593 243 z "},"q":{"ha":848,"x_min":57,"x_max":755,"o":"m 57 366 q 131 648 57 548 q 340 748 205 748 q 476 715 420 748 q 562 616 531 682 q 564 662 562 637 q 568 707 566 686 q 572 734 571 727 l 755 734 q 752 655 753 697 q 751 565 751 613 l 751 -288 l 562 -288 l 562 17 l 566 122 l 564 122 q 473 20 533 54 q 325 -14 413 -14 q 127 86 197 -14 q 57 366 57 186 m 564 370 q 524 552 564 488 q 408 617 485 617 q 294 554 332 617 q 256 366 256 492 q 293 179 256 241 q 407 117 331 117 q 523 183 481 117 q 564 370 564 249 z "},"r":{"ha":541,"x_min":92,"x_max":519,"o":"m 288 360 l 288 0 l 97 0 l 97 562 q 95 662 97 622 q 92 734 94 703 l 273 734 q 276 707 275 728 q 279 660 277 686 q 281 610 280 633 q 282 577 282 587 l 285 577 q 334 686 312 653 q 386 733 356 718 q 460 748 416 748 q 519 738 497 748 l 519 578 q 438 589 474 589 q 327 531 367 589 q 288 360 288 473 z "},"s":{"ha":772,"x_min":49,"x_max":715,"o":"m 715 214 q 628 47 715 108 q 387 -14 541 -14 q 156 34 236 -14 q 49 183 75 82 l 216 208 q 266 134 231 156 q 387 113 300 113 q 504 133 467 113 q 541 197 541 153 q 511 253 541 232 q 411 288 481 273 q 315 309 357 298 q 242 329 273 319 q 193 347 212 338 q 107 418 137 375 q 78 526 78 462 q 159 689 78 631 q 389 748 240 748 q 599 697 519 748 q 699 550 679 646 l 530 532 q 490 599 522 577 q 389 621 458 621 q 287 604 321 621 q 253 546 253 587 q 279 495 253 514 q 367 465 305 477 q 520 428 453 447 q 627 384 587 410 q 691 318 667 358 q 715 214 715 277 z "},"t":{"ha":463,"x_min":17,"x_max":446,"o":"m 446 11 q 285 -12 376 -12 q 155 34 201 -12 q 110 172 110 79 l 110 605 l 17 605 l 17 734 l 119 734 l 179 906 l 298 906 l 298 734 l 437 734 l 437 605 l 298 605 l 298 224 q 319 145 298 170 q 382 119 339 119 q 446 129 402 119 l 446 11 z "},"u":{"ha":848,"x_min":86,"x_max":757,"o":"m 564 146 q 467 24 526 62 q 328 -14 408 -14 q 149 58 211 -14 q 86 268 86 130 l 86 734 l 277 734 l 277 322 q 309 177 277 226 q 407 129 342 129 q 518 188 476 129 q 561 340 561 248 l 561 734 l 751 734 l 751 164 q 753 76 751 117 q 757 0 754 35 l 575 0 q 569 85 571 49 q 567 146 567 122 l 564 146 z "},"v":{"ha":772,"x_min":5,"x_max":766,"o":"m 766 734 l 496 0 l 268 0 l 5 734 l 207 734 l 335 323 q 352 264 340 307 q 383 154 364 222 q 394 192 386 163 q 413 254 403 220 q 431 311 423 288 l 567 734 l 766 734 z "},"w":{"ha":1080,"x_min":-4,"x_max":1083,"o":"m 505 446 l 387 0 l 186 0 l -4 734 l 175 734 l 269 300 q 282 237 275 269 q 296 173 289 205 q 308 238 302 205 q 322 302 313 271 l 437 734 l 642 734 l 754 302 q 766 253 759 285 q 782 173 773 220 q 797 238 789 205 q 810 302 804 270 l 907 734 l 1083 734 l 890 0 l 689 0 l 572 448 q 560 501 568 463 q 541 598 552 538 q 524 522 532 560 q 505 446 515 484 z "},"x":{"ha":772,"x_min":9,"x_max":762,"o":"m 385 266 l 212 0 l 9 0 l 278 379 l 22 734 l 228 734 l 385 494 l 541 734 l 747 734 l 492 381 l 762 0 l 555 0 l 385 266 z "},"y":{"ha":772,"x_min":11,"x_max":765,"o":"m 192 -288 q 72 -279 122 -288 l 72 -144 q 138 -149 110 -149 q 237 -113 204 -149 q 301 7 270 -77 l 11 734 l 212 734 l 328 390 q 358 296 341 353 q 396 163 375 240 q 426 279 412 226 q 457 387 440 332 l 566 734 l 765 734 l 475 -39 q 437 -121 457 -85 q 397 -185 418 -157 q 307 -265 356 -241 q 192 -288 258 -288 z "},"z":{"ha":694,"x_min":56,"x_max":644,"o":"m 644 139 l 644 0 l 56 0 l 56 135 l 401 596 l 83 596 l 83 734 l 611 734 l 611 597 l 268 139 l 644 139 z "},"{":{"ha":541,"x_min":22,"x_max":511,"o":"m 378 -288 q 232 -235 287 -288 q 178 -85 178 -182 l 178 137 q 140 253 178 214 q 22 292 103 291 l 22 425 q 141 466 104 428 q 178 581 178 505 l 178 804 q 231 955 178 903 q 378 1006 284 1006 l 511 1006 l 511 878 l 472 878 q 383 842 410 878 q 355 736 355 807 l 355 532 q 316 420 355 467 q 215 361 277 374 l 215 358 q 317 297 279 343 q 355 187 355 250 l 355 -17 q 383 -124 355 -89 q 472 -159 410 -159 l 511 -159 l 511 -288 l 378 -288 z "},"|":{"ha":389,"x_min":106,"x_max":283,"o":"m 283 1006 l 283 -309 l 106 -309 l 106 1006 l 283 1006 z "},"}":{"ha":541,"x_min":29,"x_max":519,"o":"m 29 -159 l 68 -159 q 158 -124 131 -159 q 184 -17 184 -89 l 184 187 q 223 296 184 250 q 325 358 261 343 l 325 361 q 224 420 263 374 q 184 532 184 467 l 184 736 q 158 842 184 807 q 68 878 131 878 l 29 878 l 29 1006 l 163 1006 q 310 955 256 1006 q 363 804 363 903 l 363 581 q 400 467 363 505 q 519 425 437 428 l 519 292 q 400 252 437 291 q 363 137 363 212 l 363 -85 q 309 -235 363 -181 q 163 -288 254 -288 l 29 -288 l 29 -159 z "},"~":{"ha":811,"x_min":55,"x_max":759,"o":"m 578 350 q 478 364 527 350 q 378 396 429 378 q 228 428 286 428 q 139 413 180 428 q 55 368 99 399 l 55 513 q 239 570 132 570 q 403 538 309 570 q 478 512 448 522 q 526 498 509 503 q 559 492 543 494 q 591 490 576 490 q 759 553 681 490 l 759 404 q 676 362 715 374 q 578 350 636 350 z "},"Ä":{"ha":1003,"x_min":35,"x_max":966,"o":"m 319 244 l 235 0 l 35 0 l 383 956 l 619 956 l 966 0 l 768 0 l 684 244 l 319 244 m 501 808 q 482 743 494 781 q 465 690 470 705 l 364 395 l 639 395 l 536 696 q 518 752 526 724 q 501 808 510 781 m 722 1186 l 722 1038 l 589 1038 l 589 1186 l 722 1186 m 412 1186 l 412 1038 l 281 1038 l 281 1186 l 412 1186 z "},"Å":{"ha":1003,"x_min":35,"x_max":966,"o":"m 319 244 l 235 0 l 35 0 l 383 956 l 619 956 l 966 0 l 768 0 l 684 244 l 319 244 m 501 808 q 482 743 494 781 q 465 690 470 705 l 364 395 l 639 395 l 536 696 q 518 752 526 724 q 501 808 510 781 m 673 1053 q 651 966 673 1005 q 589 904 628 927 q 501 880 550 880 q 414 904 453 880 q 352 966 374 927 q 329 1053 329 1005 q 352 1139 329 1100 q 415 1201 376 1178 q 501 1225 454 1225 q 588 1201 549 1225 q 650 1139 627 1178 q 673 1053 673 1100 m 587 1053 q 563 1112 587 1087 q 501 1137 538 1137 q 441 1113 467 1137 q 416 1053 416 1088 q 441 990 416 1015 q 501 966 467 966 q 562 991 537 966 q 587 1053 587 1016 z "},"Ç":{"ha":1003,"x_min":57,"x_max":965,"o":"m 539 144 q 791 326 721 144 l 965 260 q 800 54 909 121 q 539 -14 691 -14 q 278 45 386 -14 q 114 215 170 104 q 57 482 57 326 q 111 748 57 640 q 271 913 165 857 q 530 970 377 970 q 804 902 699 970 q 953 704 910 835 l 777 656 q 689 770 754 728 q 534 812 623 812 q 329 728 399 812 q 258 482 258 644 q 291 297 258 372 q 386 183 323 222 q 539 144 448 144 m 671 -159 q 618 -256 671 -223 q 465 -288 565 -288 q 397 -284 435 -288 l 397 -204 q 454 -209 418 -209 q 547 -162 547 -209 q 528 -127 547 -138 q 464 -115 509 -115 q 442 -116 451 -115 q 429 -117 433 -116 l 471 0 l 568 0 l 545 -56 q 640 -87 609 -59 q 671 -159 671 -115 z "},"É":{"ha":926,"x_min":93,"x_max":872,"o":"m 872 155 l 872 0 l 93 0 l 93 956 l 844 956 l 844 801 l 293 801 l 293 561 l 803 561 l 803 406 l 293 406 l 293 155 l 872 155 m 696 1202 l 466 1038 l 351 1038 l 351 1059 l 522 1231 l 696 1231 l 696 1202 z "},"Ñ":{"ha":1003,"x_min":93,"x_max":909,"o":"m 271 564 l 271 0 l 93 0 l 93 956 l 321 956 l 744 214 q 732 400 732 317 l 732 956 l 909 956 l 909 0 l 675 0 l 258 736 q 268 639 264 682 q 271 564 271 596 m 614 1038 q 555 1052 585 1038 q 495 1081 525 1065 q 443 1109 468 1097 q 396 1121 417 1121 q 354 1105 368 1121 q 330 1038 339 1090 l 237 1038 q 284 1194 244 1151 q 389 1236 323 1236 q 447 1223 417 1236 q 505 1195 477 1211 q 560 1166 534 1179 q 607 1153 586 1153 q 649 1170 634 1153 q 674 1236 665 1186 l 766 1236 q 723 1084 761 1130 q 614 1038 684 1038 z "},"Ö":{"ha":1080,"x_min":57,"x_max":1022,"o":"m 1022 482 q 962 221 1022 333 q 793 48 902 110 q 538 -14 684 -14 q 280 46 388 -14 q 115 218 172 106 q 57 482 57 329 q 114 745 57 635 q 280 912 172 854 q 539 970 388 970 q 799 911 691 970 q 964 743 907 852 q 1022 482 1022 634 m 818 482 q 745 725 818 637 q 539 812 671 812 q 332 725 405 812 q 258 482 258 638 q 292 302 258 378 q 389 185 326 226 q 538 144 452 144 q 745 232 672 144 q 818 482 818 320 m 760 1186 l 760 1038 l 626 1038 l 626 1186 l 760 1186 m 450 1186 l 450 1038 l 318 1038 l 318 1186 l 450 1186 z "},"Ü":{"ha":1003,"x_min":83,"x_max":918,"o":"m 490 -14 q 268 30 359 -14 q 130 156 177 73 q 83 358 83 239 l 83 956 l 283 956 l 283 374 q 337 202 283 260 q 496 143 391 143 q 661 204 603 143 q 718 380 718 266 l 718 956 l 918 956 l 918 368 q 868 162 918 248 q 722 32 817 77 q 490 -14 626 -14 m 722 1186 l 722 1038 l 588 1038 l 588 1186 l 722 1186 m 412 1186 l 412 1038 l 280 1038 l 280 1186 l 412 1186 z "},"á":{"ha":772,"x_min":35,"x_max":776,"o":"m 261 -14 q 95 44 155 -14 q 35 208 35 102 q 110 380 35 321 q 325 442 184 439 l 483 445 l 483 482 q 458 589 483 554 q 376 624 433 624 q 298 600 323 624 q 267 520 273 576 l 68 530 q 384 747 106 747 q 598 679 523 747 q 673 484 673 610 l 673 217 q 687 132 673 155 q 734 109 701 109 q 776 113 755 109 l 776 9 q 715 -4 741 1 q 654 -8 690 -8 q 548 27 582 -8 q 507 131 513 62 l 503 131 q 402 23 463 59 q 261 -14 342 -14 m 483 340 l 385 338 q 291 324 318 335 q 249 288 263 312 q 234 222 234 263 q 258 145 234 170 q 322 119 282 119 q 404 144 367 119 q 462 211 441 168 q 483 302 483 254 l 483 340 m 600 989 l 370 802 l 254 802 l 254 823 l 425 1019 l 600 1019 l 600 989 z "},"à":{"ha":772,"x_min":35,"x_max":776,"o":"m 261 -14 q 95 44 155 -14 q 35 208 35 102 q 110 380 35 321 q 325 442 184 439 l 483 445 l 483 482 q 458 589 483 554 q 376 624 433 624 q 298 600 323 624 q 267 520 273 576 l 68 530 q 384 747 106 747 q 598 679 523 747 q 673 484 673 610 l 673 217 q 687 132 673 155 q 734 109 701 109 q 776 113 755 109 l 776 9 q 715 -4 741 1 q 654 -8 690 -8 q 548 27 582 -8 q 507 131 513 62 l 503 131 q 402 23 463 59 q 261 -14 342 -14 m 483 340 l 385 338 q 291 324 318 335 q 249 288 263 312 q 234 222 234 263 q 258 145 234 170 q 322 119 282 119 q 404 144 367 119 q 462 211 441 168 q 483 302 483 254 l 483 340 m 508 823 l 508 802 l 393 802 l 163 989 l 163 1019 l 338 1019 l 508 823 z "},"â":{"ha":772,"x_min":35,"x_max":776,"o":"m 261 -14 q 95 44 155 -14 q 35 208 35 102 q 110 380 35 321 q 325 442 184 439 l 483 445 l 483 482 q 458 589 483 554 q 376 624 433 624 q 298 600 323 624 q 267 520 273 576 l 68 530 q 384 747 106 747 q 598 679 523 747 q 673 484 673 610 l 673 217 q 687 132 673 155 q 734 109 701 109 q 776 113 755 109 l 776 9 q 715 -4 741 1 q 654 -8 690 -8 q 548 27 582 -8 q 507 131 513 62 l 503 131 q 402 23 463 59 q 261 -14 342 -14 m 483 340 l 385 338 q 291 324 318 335 q 249 288 263 312 q 234 222 234 263 q 258 145 234 170 q 322 119 282 119 q 404 144 367 119 q 462 211 441 168 q 483 302 483 254 l 483 340 m 135 802 l 135 821 l 310 1037 l 465 1037 l 635 821 l 635 802 l 527 802 l 389 932 l 387 932 l 243 802 l 135 802 z "},"ä":{"ha":772,"x_min":35,"x_max":776,"o":"m 261 -14 q 95 44 155 -14 q 35 208 35 102 q 110 380 35 321 q 325 442 184 439 l 483 445 l 483 482 q 458 589 483 554 q 376 624 433 624 q 298 600 323 624 q 267 520 273 576 l 68 530 q 384 747 106 747 q 598 679 523 747 q 673 484 673 610 l 673 217 q 687 132 673 155 q 734 109 701 109 q 776 113 755 109 l 776 9 q 715 -4 741 1 q 654 -8 690 -8 q 548 27 582 -8 q 507 131 513 62 l 503 131 q 402 23 463 59 q 261 -14 342 -14 m 483 340 l 385 338 q 291 324 318 335 q 249 288 263 312 q 234 222 234 263 q 258 145 234 170 q 322 119 282 119 q 404 144 367 119 q 462 211 441 168 q 483 302 483 254 l 483 340 m 598 962 l 598 813 l 451 813 l 451 962 l 598 962 m 302 962 l 302 813 l 157 813 l 157 962 l 302 962 z "},"ã":{"ha":772,"x_min":35,"x_max":776,"o":"m 261 -14 q 95 44 155 -14 q 35 208 35 102 q 110 380 35 321 q 325 442 184 439 l 483 445 l 483 482 q 458 589 483 554 q 376 624 433 624 q 298 600 323 624 q 267 520 273 576 l 68 530 q 384 747 106 747 q 598 679 523 747 q 673 484 673 610 l 673 217 q 687 132 673 155 q 734 109 701 109 q 776 113 755 109 l 776 9 q 715 -4 741 1 q 654 -8 690 -8 q 548 27 582 -8 q 507 131 513 62 l 503 131 q 402 23 463 59 q 261 -14 342 -14 m 483 340 l 385 338 q 291 324 318 335 q 249 288 263 312 q 234 222 234 263 q 258 145 234 170 q 322 119 282 119 q 404 144 367 119 q 462 211 441 168 q 483 302 483 254 l 483 340 m 488 802 q 433 814 461 802 q 378 841 406 826 q 320 871 348 857 q 269 886 292 886 q 227 870 241 886 q 203 802 212 854 l 110 802 q 157 960 117 919 q 262 1001 197 1001 q 325 986 293 1001 q 387 955 357 972 q 437 929 414 940 q 480 918 461 918 q 523 934 507 918 q 547 1001 538 951 l 639 1001 q 596 848 634 895 q 488 802 557 802 z "},"å":{"ha":772,"x_min":35,"x_max":776,"o":"m 261 -14 q 95 44 155 -14 q 35 208 35 102 q 110 380 35 321 q 325 442 184 439 l 483 445 l 483 482 q 458 589 483 554 q 376 624 433 624 q 298 600 323 624 q 267 520 273 576 l 68 530 q 384 747 106 747 q 598 679 523 747 q 673 484 673 610 l 673 217 q 687 132 673 155 q 734 109 701 109 q 776 113 755 109 l 776 9 q 715 -4 741 1 q 654 -8 690 -8 q 548 27 582 -8 q 507 131 513 62 l 503 131 q 402 23 463 59 q 261 -14 342 -14 m 483 340 l 385 338 q 291 324 318 335 q 249 288 263 312 q 234 222 234 263 q 258 145 234 170 q 322 119 282 119 q 404 144 367 119 q 462 211 441 168 q 483 302 483 254 l 483 340 m 551 970 q 529 884 551 923 q 467 822 506 845 q 379 798 428 798 q 292 822 331 798 q 230 884 252 845 q 207 970 207 923 q 230 1057 207 1018 q 293 1119 254 1096 q 379 1143 332 1143 q 466 1119 427 1143 q 528 1057 505 1096 q 551 970 551 1018 m 465 970 q 440 1030 465 1005 q 379 1055 416 1055 q 319 1031 345 1055 q 294 970 294 1006 q 319 908 294 932 q 379 884 345 884 q 440 909 415 884 q 465 970 465 934 z "},"ç":{"ha":772,"x_min":54,"x_max":732,"o":"m 403 -14 q 145 86 236 -14 q 54 363 54 185 q 146 646 54 545 q 406 747 237 747 q 620 682 535 747 q 726 503 705 617 l 534 493 q 494 583 526 549 q 401 616 461 616 q 291 555 328 616 q 254 370 254 494 q 292 180 254 243 q 404 117 330 117 q 495 151 458 117 q 541 253 532 185 l 732 244 q 677 109 722 167 q 562 19 633 51 q 403 -14 492 -14 m 536 -159 q 484 -256 536 -223 q 331 -288 431 -288 q 262 -284 300 -288 l 262 -204 q 319 -209 284 -209 q 412 -162 412 -209 q 393 -127 412 -138 q 330 -115 374 -115 q 308 -116 317 -115 q 294 -117 299 -116 l 336 0 l 433 0 l 411 -56 q 506 -87 475 -59 q 536 -159 536 -115 z "},"é":{"ha":772,"x_min":54,"x_max":725,"o":"m 254 330 q 294 169 254 223 q 407 114 334 114 q 489 136 457 114 q 534 201 522 158 l 714 186 q 397 -14 636 -14 q 143 84 232 -14 q 54 370 54 182 q 144 650 54 552 q 400 747 235 747 q 642 643 558 747 q 725 336 725 538 l 725 330 l 254 330 m 541 450 q 498 583 535 538 q 397 627 460 627 q 294 581 330 627 q 256 450 258 534 l 541 450 m 629 989 l 399 802 l 283 802 l 283 823 l 454 1019 l 629 1019 l 629 989 z "},"è":{"ha":772,"x_min":54,"x_max":725,"o":"m 254 330 q 294 169 254 223 q 407 114 334 114 q 489 136 457 114 q 534 201 522 158 l 714 186 q 397 -14 636 -14 q 143 84 232 -14 q 54 370 54 182 q 144 650 54 552 q 400 747 235 747 q 642 643 558 747 q 725 336 725 538 l 725 330 l 254 330 m 541 450 q 498 583 535 538 q 397 627 460 627 q 294 581 330 627 q 256 450 258 534 l 541 450 m 540 823 l 540 802 l 425 802 l 195 989 l 195 1019 l 370 1019 l 540 823 z "},"ê":{"ha":772,"x_min":54,"x_max":725,"o":"m 254 330 q 294 169 254 223 q 407 114 334 114 q 489 136 457 114 q 534 201 522 158 l 714 186 q 397 -14 636 -14 q 143 84 232 -14 q 54 370 54 182 q 144 650 54 552 q 400 747 235 747 q 642 643 558 747 q 725 336 725 538 l 725 330 l 254 330 m 541 450 q 498 583 535 538 q 397 627 460 627 q 294 581 330 627 q 256 450 258 534 l 541 450 m 151 802 l 151 821 l 326 1037 l 481 1037 l 651 821 l 651 802 l 543 802 l 406 932 l 403 932 l 260 802 l 151 802 z "},"ë":{"ha":772,"x_min":54,"x_max":725,"o":"m 254 330 q 294 169 254 223 q 407 114 334 114 q 489 136 457 114 q 534 201 522 158 l 714 186 q 397 -14 636 -14 q 143 84 232 -14 q 54 370 54 182 q 144 650 54 552 q 400 747 235 747 q 642 643 558 747 q 725 336 725 538 l 725 330 l 254 330 m 541 450 q 498 583 535 538 q 397 627 460 627 q 294 581 330 627 q 256 450 258 534 l 541 450 m 618 962 l 618 813 l 471 813 l 471 962 l 618 962 m 321 962 l 321 813 l 176 813 l 176 962 l 321 962 z "},"í":{"ha":386,"x_min":77,"x_max":423,"o":"m 289 734 l 289 0 l 98 0 l 98 734 l 289 734 m 423 989 l 193 802 l 77 802 l 77 823 l 248 1019 l 423 1019 l 423 989 z "},"ì":{"ha":386,"x_min":-43,"x_max":302,"o":"m 289 734 l 289 0 l 98 0 l 98 734 l 289 734 m 302 823 l 302 802 l 187 802 l -43 989 l -43 1019 l 132 1019 l 302 823 z "},"î":{"ha":386,"x_min":-56,"x_max":444,"o":"m 289 734 l 289 0 l 98 0 l 98 734 l 289 734 m -56 802 l -56 821 l 119 1037 l 274 1037 l 444 821 l 444 802 l 336 802 l 198 932 l 195 932 l 52 802 l -56 802 z "},"ï":{"ha":386,"x_min":-27,"x_max":414,"o":"m 289 734 l 289 0 l 98 0 l 98 734 l 289 734 m 414 962 l 414 813 l 267 813 l 267 962 l 414 962 m 118 962 l 118 813 l -27 813 l -27 962 l 118 962 z "},"ñ":{"ha":848,"x_min":92,"x_max":762,"o":"m 288 393 l 288 0 l 97 0 l 97 570 q 95 666 97 629 q 92 734 94 704 l 273 734 q 277 695 275 726 q 280 634 279 665 q 282 588 282 602 l 285 588 q 382 710 323 672 q 521 748 440 748 q 700 676 637 748 q 762 466 762 604 l 762 0 l 572 0 l 572 412 q 540 557 572 509 q 441 605 507 605 q 330 546 372 605 q 288 393 288 486 m 549 802 q 494 814 522 802 q 439 841 467 826 q 381 871 409 857 q 330 886 353 886 q 288 870 302 886 q 264 802 273 854 l 171 802 q 218 960 178 919 q 323 1001 258 1001 q 386 986 354 1001 q 448 955 418 972 q 498 929 475 940 q 541 918 522 918 q 584 934 568 918 q 608 1001 599 951 l 700 1001 q 657 848 695 895 q 549 802 618 802 z "},"ó":{"ha":848,"x_min":54,"x_max":794,"o":"m 794 368 q 695 88 794 189 q 421 -14 596 -14 q 152 88 250 -14 q 54 368 54 190 q 152 646 54 545 q 425 747 250 747 q 700 649 605 747 q 794 368 794 551 m 595 368 q 552 557 595 498 q 428 616 509 616 q 298 554 341 616 q 254 368 254 492 q 297 181 254 245 q 419 117 339 117 q 551 179 507 117 q 595 368 595 242 m 661 989 l 431 802 l 315 802 l 315 823 l 486 1019 l 661 1019 l 661 989 z "},"ò":{"ha":848,"x_min":54,"x_max":794,"o":"m 794 368 q 695 88 794 189 q 421 -14 596 -14 q 152 88 250 -14 q 54 368 54 190 q 152 646 54 545 q 425 747 250 747 q 700 649 605 747 q 794 368 794 551 m 595 368 q 552 557 595 498 q 428 616 509 616 q 298 554 341 616 q 254 368 254 492 q 297 181 254 245 q 419 117 339 117 q 551 179 507 117 q 595 368 595 242 m 568 823 l 568 802 l 453 802 l 222 989 l 222 1019 l 397 1019 l 568 823 z "},"ô":{"ha":848,"x_min":54,"x_max":794,"o":"m 794 368 q 695 88 794 189 q 421 -14 596 -14 q 152 88 250 -14 q 54 368 54 190 q 152 646 54 545 q 425 747 250 747 q 700 649 605 747 q 794 368 794 551 m 595 368 q 552 557 595 498 q 428 616 509 616 q 298 554 341 616 q 254 368 254 492 q 297 181 254 245 q 419 117 339 117 q 551 179 507 117 q 595 368 595 242 m 174 802 l 174 821 l 349 1037 l 504 1037 l 673 821 l 673 802 l 566 802 l 428 932 l 425 932 l 282 802 l 174 802 z "},"ö":{"ha":848,"x_min":54,"x_max":794,"o":"m 794 368 q 695 88 794 189 q 421 -14 596 -14 q 152 88 250 -14 q 54 368 54 190 q 152 646 54 545 q 425 747 250 747 q 700 649 605 747 q 794 368 794 551 m 595 368 q 552 557 595 498 q 428 616 509 616 q 298 554 341 616 q 254 368 254 492 q 297 181 254 245 q 419 117 339 117 q 551 179 507 117 q 595 368 595 242 m 645 962 l 645 813 l 498 813 l 498 962 l 645 962 m 349 962 l 349 813 l 203 813 l 203 962 l 349 962 z "},"õ":{"ha":848,"x_min":54,"x_max":794,"o":"m 794 368 q 695 88 794 189 q 421 -14 596 -14 q 152 88 250 -14 q 54 368 54 190 q 152 646 54 545 q 425 747 250 747 q 700 649 605 747 q 794 368 794 551 m 595 368 q 552 557 595 498 q 428 616 509 616 q 298 554 341 616 q 254 368 254 492 q 297 181 254 245 q 419 117 339 117 q 551 179 507 117 q 595 368 595 242 m 536 802 q 482 814 510 802 q 427 841 454 826 q 369 871 397 857 q 318 886 341 886 q 276 870 290 886 q 252 802 261 854 l 159 802 q 206 960 166 919 q 311 1001 245 1001 q 374 986 342 1001 q 436 955 406 972 q 486 929 463 940 q 529 918 510 918 q 571 934 556 918 q 596 1001 587 951 l 688 1001 q 645 848 683 895 q 536 802 606 802 z "},"ú":{"ha":848,"x_min":86,"x_max":757,"o":"m 564 146 q 467 24 526 62 q 328 -14 408 -14 q 149 58 211 -14 q 86 268 86 130 l 86 734 l 277 734 l 277 322 q 309 177 277 226 q 407 129 342 129 q 518 188 476 129 q 561 340 561 248 l 561 734 l 751 734 l 751 164 q 753 76 751 117 q 757 0 754 35 l 575 0 q 569 85 571 49 q 567 146 567 122 l 564 146 m 660 989 l 429 802 l 314 802 l 314 823 l 485 1019 l 660 1019 l 660 989 z "},"ù":{"ha":848,"x_min":86,"x_max":757,"o":"m 564 146 q 467 24 526 62 q 328 -14 408 -14 q 149 58 211 -14 q 86 268 86 130 l 86 734 l 277 734 l 277 322 q 309 177 277 226 q 407 129 342 129 q 518 188 476 129 q 561 340 561 248 l 561 734 l 751 734 l 751 164 q 753 76 751 117 q 757 0 754 35 l 575 0 q 569 85 571 49 q 567 146 567 122 l 564 146 m 537 823 l 537 802 l 422 802 l 192 989 l 192 1019 l 367 1019 l 537 823 z "},"û":{"ha":848,"x_min":86,"x_max":757,"o":"m 564 146 q 467 24 526 62 q 328 -14 408 -14 q 149 58 211 -14 q 86 268 86 130 l 86 734 l 277 734 l 277 322 q 309 177 277 226 q 407 129 342 129 q 518 188 476 129 q 561 340 561 248 l 561 734 l 751 734 l 751 164 q 753 76 751 117 q 757 0 754 35 l 575 0 q 569 85 571 49 q 567 146 567 122 l 564 146 m 171 802 l 171 821 l 346 1037 l 501 1037 l 671 821 l 671 802 l 563 802 l 425 932 l 422 932 l 279 802 l 171 802 z "},"ü":{"ha":848,"x_min":86,"x_max":757,"o":"m 564 146 q 467 24 526 62 q 328 -14 408 -14 q 149 58 211 -14 q 86 268 86 130 l 86 734 l 277 734 l 277 322 q 309 177 277 226 q 407 129 342 129 q 518 188 476 129 q 561 340 561 248 l 561 734 l 751 734 l 751 164 q 753 76 751 117 q 757 0 754 35 l 575 0 q 569 85 571 49 q 567 146 567 122 l 564 146 m 644 962 l 644 813 l 496 813 l 496 962 l 644 962 m 347 962 l 347 813 l 202 813 l 202 962 l 347 962 z "},"†":{"ha":772,"x_min":94,"x_max":680,"o":"m 454 651 l 439 -94 l 334 -94 l 319 651 l 94 633 l 94 771 l 319 751 l 300 1006 l 473 1006 l 454 751 l 680 771 l 680 633 l 454 651 z "},"°":{"ha":555,"x_min":61,"x_max":496,"o":"m 496 755 q 467 647 496 696 q 388 569 437 598 q 278 539 339 539 q 169 568 218 539 q 91 645 120 596 q 61 753 61 693 q 90 860 61 812 q 169 938 119 909 q 278 966 218 966 q 388 938 339 966 q 467 862 437 909 q 496 755 496 814 m 389 753 q 357 833 389 800 q 278 865 326 865 q 198 832 230 865 q 165 753 165 800 q 199 672 165 706 q 278 639 232 639 q 356 672 323 639 q 389 753 389 705 z "},"¢":{"ha":772,"x_min":35,"x_max":741,"o":"m 399 231 q 499 268 458 231 q 549 372 539 304 l 741 364 q 650 192 726 260 q 453 109 574 123 l 453 -21 l 343 -21 l 343 107 q 116 214 197 121 q 35 465 35 306 q 114 718 35 623 q 343 831 194 814 l 343 956 l 453 956 l 453 831 q 642 754 568 818 q 734 589 715 691 l 543 579 q 495 674 533 641 q 397 708 457 708 q 270 646 313 708 q 227 472 227 583 q 272 292 227 354 q 399 231 317 231 z "},"£":{"ha":772,"x_min":14,"x_max":758,"o":"m 758 246 q 666 65 737 130 q 492 0 595 0 l 22 0 l 22 139 q 116 227 91 178 q 142 347 142 276 l 142 410 l 14 410 l 14 525 l 135 525 l 135 693 q 208 900 135 829 q 424 970 280 970 q 604 923 538 970 q 700 772 670 876 l 542 741 q 500 817 528 793 q 427 840 472 840 q 338 801 366 840 q 311 677 311 762 l 311 525 l 505 525 l 505 410 l 311 410 l 311 349 q 283 229 311 279 q 188 142 256 180 l 446 142 q 552 175 516 142 q 600 273 589 209 l 758 246 z "},"§":{"ha":772,"x_min":36,"x_max":716,"o":"m 390 968 q 601 920 522 968 q 699 782 681 872 l 537 765 q 490 830 528 807 q 390 852 451 852 q 278 832 314 852 q 243 768 243 812 q 261 721 243 741 q 313 688 280 702 q 435 653 347 673 q 604 600 547 628 q 687 530 659 572 q 716 430 716 489 q 679 318 716 367 q 583 252 642 270 q 675 181 644 224 q 705 78 705 138 q 620 -95 705 -35 q 377 -155 535 -155 q 144 -108 226 -155 q 36 40 62 -61 l 197 65 q 252 -15 210 11 q 377 -40 294 -40 q 503 -18 460 -40 q 545 58 545 4 q 529 112 545 91 q 478 147 513 132 q 317 192 443 163 q 120 278 178 225 q 62 407 62 331 q 99 513 62 470 q 206 581 136 557 q 112 652 145 606 q 79 755 79 699 q 158 912 79 857 q 390 968 238 968 m 555 407 q 515 481 555 455 q 357 529 473 507 q 258 495 291 522 q 226 425 226 469 q 244 379 226 397 q 296 346 262 360 q 422 311 328 332 q 522 338 489 314 q 555 407 555 362 z "},"•":{"ha":486,"x_min":44,"x_max":441,"o":"m 441 458 q 414 358 441 404 q 342 286 387 313 q 241 258 296 258 q 143 286 188 258 q 71 358 98 313 q 44 458 44 404 q 71 559 44 514 q 142 630 98 604 q 241 657 187 657 q 342 630 297 657 q 414 559 387 604 q 441 458 441 514 z "},"¶":{"ha":772,"x_min":48,"x_max":726,"o":"m 399 859 l 399 -179 l 294 -179 l 294 471 q 114 533 180 471 q 48 711 48 596 q 115 891 48 826 q 300 956 182 956 l 726 956 l 726 859 l 637 859 l 637 -179 l 532 -179 l 532 859 l 399 859 z "},"ß":{"ha":848,"x_min":97,"x_max":809,"o":"m 809 212 q 741 44 809 102 q 547 -14 673 -14 q 369 16 446 -14 l 369 155 q 449 127 403 140 q 526 115 494 115 q 606 139 581 115 q 631 201 631 162 q 606 266 631 236 q 517 338 580 296 q 431 419 459 375 q 402 515 402 464 q 421 584 402 552 q 478 650 439 616 q 536 714 519 686 q 553 772 553 741 q 522 842 553 816 q 431 869 490 869 q 324 826 361 869 q 288 687 288 783 l 288 0 l 97 0 l 97 683 q 183 924 97 842 q 433 1006 270 1006 q 653 945 572 1006 q 734 779 734 884 q 711 686 734 724 q 658 621 688 648 q 624 590 642 606 q 593 559 606 574 q 581 530 581 544 q 585 510 581 519 q 613 482 589 501 q 695 419 637 463 q 809 212 809 335 z "},"®":{"ha":1023,"x_min":22,"x_max":1002,"o":"m 1002 479 q 937 235 1002 349 q 757 55 871 120 q 512 -11 643 -11 q 264 58 379 -11 q 85 239 149 126 q 22 479 22 351 q 87 724 22 611 q 267 904 153 838 q 512 970 381 970 q 758 904 644 970 q 937 725 872 838 q 1002 479 1002 611 m 926 479 q 871 686 926 591 q 719 836 815 781 q 512 892 623 892 q 311 839 406 892 q 158 690 216 786 q 100 479 100 594 q 155 273 100 369 q 306 121 210 176 q 512 65 401 65 q 720 121 623 65 q 871 273 816 176 q 926 479 926 369 m 426 414 l 426 201 l 305 201 l 305 754 l 529 754 q 684 710 633 754 q 736 590 736 667 q 703 486 736 526 q 618 429 671 446 l 762 201 l 626 201 l 505 414 l 426 414 m 614 589 q 588 648 614 627 q 516 668 563 668 l 426 668 l 426 501 l 524 501 q 591 525 568 501 q 614 589 614 549 z "},"©":{"ha":1023,"x_min":22,"x_max":1002,"o":"m 1002 479 q 937 235 1002 349 q 757 55 871 120 q 512 -11 643 -11 q 264 58 379 -11 q 85 239 149 126 q 22 479 22 351 q 87 724 22 611 q 267 904 153 838 q 512 970 381 970 q 758 904 644 970 q 937 725 872 838 q 1002 479 1002 611 m 926 479 q 871 686 926 591 q 719 836 815 781 q 512 892 623 892 q 311 839 406 892 q 158 690 216 786 q 100 479 100 594 q 155 273 100 369 q 306 121 210 176 q 512 65 401 65 q 720 121 623 65 q 871 273 816 176 q 926 479 926 369 m 369 481 q 409 339 369 389 q 521 289 449 289 q 654 386 614 289 l 762 354 q 664 231 723 269 q 521 193 605 193 q 318 269 390 193 q 247 481 247 344 q 316 690 247 618 q 515 762 385 762 q 754 607 690 762 l 648 579 q 598 644 631 621 q 518 667 565 667 q 407 619 444 667 q 369 481 369 572 z "},"™":{"ha":1389,"x_min":85,"x_max":1218,"o":"m 1106 521 l 1106 751 q 1107 802 1106 771 q 1112 868 1109 833 q 1090 813 1101 839 q 1067 760 1080 787 l 956 521 l 867 521 l 760 757 q 736 812 747 785 q 713 868 725 840 q 717 790 716 820 q 718 751 718 761 l 718 521 l 606 521 l 606 956 l 774 956 l 868 751 q 886 708 876 734 q 912 643 897 681 q 936 705 925 677 q 956 751 947 732 l 1053 956 l 1218 956 l 1218 521 l 1106 521 m 372 861 l 372 521 l 250 521 l 250 861 l 85 861 l 85 956 l 542 956 l 542 861 l 372 861 z "},"´":{"ha":463,"x_min":59,"x_max":405,"o":"m 405 989 l 174 802 l 59 802 l 59 823 l 230 1019 l 405 1019 l 405 989 z "},"¨":{"ha":463,"x_min":11,"x_max":452,"o":"m 452 962 l 452 813 l 305 813 l 305 962 l 452 962 m 156 962 l 156 813 l 11 813 l 11 962 l 156 962 z "},"≠":{"ha":762,"x_min":20,"x_max":743,"o":"m 313 197 l 225 25 l 81 25 l 168 197 l 20 197 l 20 347 l 241 347 l 354 571 l 20 571 l 20 722 l 428 722 l 518 897 l 661 897 l 572 722 l 743 722 l 743 571 l 498 571 l 386 347 l 743 347 l 743 197 l 313 197 z "},"Æ":{"ha":1389,"x_min":3,"x_max":1335,"o":"m 326 244 l 210 0 l 3 0 l 477 956 l 1307 956 l 1307 802 l 831 802 l 831 561 l 1265 561 l 1265 411 l 831 411 l 831 154 l 1335 154 l 1335 0 l 631 0 l 631 244 l 326 244 m 395 395 l 631 395 l 631 808 l 590 808 l 395 395 z "},"Ø":{"ha":1080,"x_min":57,"x_max":1023,"o":"m 1023 482 q 963 221 1023 332 q 794 48 903 109 q 538 -14 686 -14 q 294 39 395 -14 l 232 -49 l 100 -50 l 204 98 q 57 482 57 231 q 114 745 57 635 q 280 912 172 854 q 539 970 388 970 q 779 920 673 970 l 835 999 l 966 999 l 869 861 q 984 701 945 798 q 1023 482 1023 604 m 258 482 q 315 257 258 344 l 681 778 q 539 812 619 812 q 332 725 405 812 q 258 482 258 638 m 819 482 q 760 704 819 619 l 393 180 q 538 143 455 143 q 746 232 673 143 q 819 482 819 320 z "},"∞":{"ha":990,"x_min":49,"x_max":942,"o":"m 942 395 q 913 269 942 326 q 835 179 884 212 q 723 146 785 146 q 495 309 578 146 q 394 192 451 231 q 269 153 338 153 q 110 223 171 153 q 49 405 49 292 q 78 533 49 477 q 156 622 106 589 q 269 654 206 654 q 395 616 339 654 q 495 492 451 578 q 593 609 538 570 q 715 648 648 648 q 880 579 818 648 q 942 395 942 510 m 428 404 q 361 509 392 480 q 290 538 331 538 q 210 500 242 538 q 178 404 178 463 q 208 309 178 347 q 291 271 239 271 q 363 303 331 271 q 428 404 396 336 m 707 530 q 562 397 626 530 q 625 298 591 333 q 706 264 659 264 q 783 301 753 264 q 813 397 813 338 q 784 493 813 456 q 707 530 755 530 z "},"±":{"ha":762,"x_min":33,"x_max":730,"o":"m 457 479 l 457 248 l 305 248 l 305 479 l 33 479 l 33 631 l 305 631 l 305 861 l 457 861 l 457 631 l 730 631 l 730 479 l 457 479 m 730 151 l 730 0 l 33 0 l 33 151 l 730 151 z "},"≤":{"ha":762,"x_min":33,"x_max":729,"o":"m 729 347 l 729 193 l 33 428 l 33 646 l 729 880 l 729 726 l 165 536 l 729 347 m 728 151 l 728 0 l 33 0 l 33 151 l 728 151 z "},"≥":{"ha":762,"x_min":33,"x_max":729,"o":"m 729 428 l 33 193 l 33 347 l 597 536 l 33 726 l 33 880 l 729 646 l 729 428 m 729 151 l 729 0 l 33 0 l 33 151 l 729 151 z "},"¥":{"ha":772,"x_min":5,"x_max":766,"o":"m 477 160 l 477 0 l 293 0 l 293 160 l 65 160 l 65 260 l 293 260 l 294 370 l 65 370 l 65 469 l 252 469 l 5 956 l 201 956 l 385 551 l 570 956 l 766 956 l 519 469 l 707 469 l 707 370 l 477 370 l 477 260 l 707 260 l 707 160 l 477 160 z "},"µ":{"ha":833,"x_min":91,"x_max":812,"o":"m 91 -289 l 91 734 l 281 734 l 281 323 q 310 176 281 222 q 400 131 339 131 q 491 182 460 131 q 521 342 521 234 l 521 734 l 711 734 l 710 217 q 724 132 710 155 q 770 109 738 109 q 812 113 792 109 l 812 9 q 752 -4 777 1 q 690 -8 727 -8 q 584 22 618 -8 q 543 121 550 52 l 539 121 q 479 16 517 45 q 387 -14 441 -14 q 325 3 352 -14 q 281 47 297 19 l 281 -289 l 91 -289 z "},"∂":{"ha":686,"x_min":36,"x_max":641,"o":"m 641 615 q 629 440 641 525 q 594 281 617 355 q 539 152 572 208 q 267 -17 440 -17 q 96 52 156 -17 q 36 252 36 121 q 77 463 36 361 q 181 615 117 564 q 328 667 246 667 q 421 637 380 667 q 484 557 463 608 l 486 557 q 487 594 487 578 q 487 618 487 609 q 451 800 487 735 q 340 864 415 864 q 263 850 304 864 q 198 818 223 837 l 229 957 q 372 996 295 996 q 570 898 500 996 q 641 615 641 800 m 465 437 q 425 520 454 488 q 359 551 396 551 q 279 512 315 551 q 236 443 254 486 q 207 351 218 401 q 197 254 197 302 q 221 152 197 189 q 287 115 245 115 q 366 159 330 115 q 429 275 403 202 q 465 437 455 349 z "},"∑":{"ha":990,"x_min":91,"x_max":914,"o":"m 914 -154 l 914 -309 l 91 -309 l 91 -200 l 502 326 l 104 852 l 104 956 l 876 956 l 876 802 l 356 802 l 714 329 l 342 -154 l 914 -154 z "},"∏":{"ha":1143,"x_min":138,"x_max":1005,"o":"m 338 790 l 338 -309 l 138 -309 l 138 956 l 1005 956 l 1005 -309 l 814 -309 l 814 790 l 338 790 z "},"∫":{"ha":380,"x_min":-87,"x_max":476,"o":"m 18 -309 q -43 -304 -12 -309 q -87 -294 -74 -299 l -87 -147 q -7 -164 -43 -164 q 98 -31 98 -164 l 98 750 q 170 940 98 872 q 371 1008 242 1008 q 476 996 431 1008 l 476 847 q 395 864 443 864 q 316 830 343 864 q 289 732 289 795 l 289 -50 q 217 -241 289 -174 q 18 -309 146 -309 z "},"ª":{"ha":514,"x_min":31,"x_max":514,"o":"m 174 492 q 70 527 109 492 q 31 629 31 563 q 223 772 31 768 l 323 773 l 323 802 q 305 862 323 842 q 252 882 288 882 q 199 866 218 882 q 176 819 180 850 l 47 825 q 113 927 60 891 q 252 962 166 962 q 396 921 345 962 q 446 803 446 880 l 446 642 q 452 593 446 610 q 481 576 458 576 q 497 578 489 577 q 514 580 506 579 l 514 506 q 433 494 471 494 q 358 518 385 494 q 327 585 330 543 l 325 585 q 174 492 276 492 m 222 581 q 293 613 264 581 q 323 690 323 646 l 323 708 l 260 707 q 180 688 201 705 q 159 638 159 672 q 222 581 159 581 z "},"º":{"ha":507,"x_min":31,"x_max":484,"o":"m 484 728 q 423 555 484 618 q 254 492 362 492 q 91 554 151 492 q 31 728 31 616 q 90 900 31 838 q 257 962 150 962 q 425 902 366 962 q 484 728 484 842 m 348 728 q 328 832 348 800 q 258 865 308 865 q 187 832 209 865 q 165 728 165 798 q 186 621 165 656 q 254 587 208 587 q 326 621 304 587 q 348 728 348 655 z "},"Ω":{"ha":1067,"x_min":58,"x_max":1009,"o":"m 534 970 q 779 920 676 970 q 936 780 881 871 q 990 562 990 688 q 921 315 990 417 q 711 147 851 213 q 778 153 749 151 q 827 155 806 155 l 1009 155 l 1009 0 l 583 0 l 583 210 q 741 338 690 262 q 792 525 792 414 q 725 737 792 662 q 534 812 657 812 q 345 738 412 812 q 277 525 277 663 q 330 337 277 412 q 489 210 383 261 l 489 0 l 58 0 l 58 155 l 241 155 q 292 153 262 155 q 359 147 321 151 q 147 314 217 212 q 77 562 77 416 q 132 781 77 690 q 289 921 186 872 q 534 970 391 970 z "},"æ":{"ha":1235,"x_min":45,"x_max":1177,"o":"m 1166 186 q 850 -14 1088 -14 q 555 142 640 -14 q 440 25 510 64 q 275 -14 370 -14 q 105 45 166 -14 q 45 208 45 103 q 343 442 45 435 l 506 445 l 506 482 q 479 590 506 555 q 392 624 452 624 q 309 599 334 624 q 277 520 283 574 l 78 530 q 176 692 96 636 q 397 747 256 747 q 623 675 545 747 q 852 747 712 747 q 1094 643 1010 747 q 1177 336 1177 538 l 1177 323 l 707 323 q 747 169 707 224 q 859 114 787 114 q 942 136 909 114 q 987 201 974 158 l 1166 186 m 993 450 q 950 583 987 538 q 850 627 913 627 q 746 581 783 627 q 708 450 710 534 l 993 450 m 243 222 q 269 145 243 170 q 336 119 294 119 q 422 146 383 119 q 484 216 462 172 q 506 309 506 260 l 506 340 l 403 338 q 303 324 333 336 q 259 288 274 312 q 243 222 243 263 z "},"ø":{"ha":848,"x_min":1,"x_max":842,"o":"m 794 368 q 695 88 794 189 q 421 -14 596 -14 q 201 47 292 -14 l 125 -37 l 1 -37 l 134 109 q 54 368 54 207 q 152 646 54 545 q 425 747 250 747 q 649 691 560 747 l 718 768 l 842 768 l 718 629 q 794 368 794 532 m 254 368 q 266 257 254 307 l 542 570 q 428 616 501 616 q 298 554 341 616 q 254 368 254 492 m 595 368 q 584 477 595 433 l 308 165 q 419 117 350 117 q 551 179 507 117 q 595 368 595 242 z "},"¿":{"ha":848,"x_min":77,"x_max":782,"o":"m 549 734 l 549 551 l 353 551 l 353 734 l 549 734 m 77 38 q 107 156 77 104 q 217 266 136 208 l 269 303 q 362 445 358 368 l 543 445 q 524 359 541 399 q 477 286 507 320 q 401 220 446 252 q 324 159 353 186 q 282 105 295 132 q 269 46 269 78 q 308 -48 269 -14 q 419 -83 347 -83 q 534 -43 488 -83 q 589 63 581 -3 l 782 55 q 669 -159 764 -83 q 422 -236 574 -236 q 169 -163 261 -236 q 77 38 77 -90 z "},"¡":{"ha":463,"x_min":132,"x_max":331,"o":"m 331 734 l 331 551 l 136 551 l 136 734 l 331 734 m 132 -222 l 153 444 l 309 444 l 331 -222 l 132 -222 z "},"¬":{"ha":811,"x_min":57,"x_max":753,"o":"m 753 538 l 753 96 l 602 96 l 602 386 l 57 386 l 57 538 l 753 538 z "},"√":{"ha":762,"x_min":1,"x_max":766,"o":"m 766 1099 l 423 -17 l 309 -17 l 126 494 l 1 494 l 1 607 l 212 607 l 361 176 l 640 1099 l 766 1099 z "},"ƒ":{"ha":772,"x_min":159,"x_max":600,"o":"m 600 866 q 564 874 585 871 q 528 878 542 878 q 473 859 490 878 q 456 791 456 841 l 456 734 l 600 734 l 600 605 l 456 605 l 456 -288 l 266 -288 l 266 605 l 159 605 l 159 734 l 266 734 l 266 810 q 318 959 266 912 q 476 1006 370 1006 q 544 1002 510 1006 q 600 988 577 997 l 600 866 z "},"≈":{"ha":762,"x_min":29,"x_max":733,"o":"m 552 513 q 452 527 501 513 q 352 558 403 541 q 202 590 262 590 q 117 577 157 590 q 29 530 77 564 l 29 675 q 213 732 104 732 q 262 728 237 732 q 327 714 288 725 q 429 682 366 704 q 504 660 471 667 q 565 653 538 653 q 733 715 655 653 l 733 567 q 650 525 690 536 q 552 513 609 513 m 552 186 q 452 201 501 186 q 352 233 403 216 q 202 264 264 264 q 114 249 154 264 q 29 204 73 235 l 29 349 q 213 406 106 406 q 323 390 269 406 q 429 357 378 374 q 500 336 476 342 q 538 328 525 330 q 565 326 552 326 q 733 389 655 326 l 733 240 q 650 198 690 210 q 552 186 610 186 z "},"∆":{"ha":850,"x_min":28,"x_max":820,"o":"m 28 0 l 29 146 l 298 956 l 548 956 l 820 146 l 820 0 l 28 0 m 423 819 q 396 722 410 770 q 368 624 383 673 l 228 157 l 621 157 l 481 625 q 449 730 462 688 q 430 795 437 773 q 423 819 424 818 z "},"«":{"ha":772,"x_min":62,"x_max":710,"o":"m 710 119 l 710 96 l 547 96 l 374 340 l 374 389 l 547 637 l 709 637 l 709 612 l 536 364 l 710 119 m 399 119 l 399 96 l 237 96 l 62 340 l 62 389 l 237 637 l 397 637 l 397 612 l 225 364 l 399 119 z "},"»":{"ha":772,"x_min":63,"x_max":711,"o":"m 536 96 l 374 96 l 374 119 l 548 364 l 376 612 l 376 637 l 536 637 l 711 389 l 711 340 l 536 96 m 226 96 l 63 96 l 63 119 l 237 364 l 64 612 l 64 637 l 226 637 l 399 389 l 399 340 l 226 96 z "},"…":{"ha":1389,"x_min":153,"x_max":1232,"o":"m 1232 207 l 1232 0 l 1036 0 l 1036 207 l 1232 207 m 791 207 l 791 0 l 597 0 l 597 207 l 791 207 m 348 207 l 348 0 l 153 0 l 153 207 l 348 207 z "},"À":{"ha":1003,"x_min":35,"x_max":966,"o":"m 319 244 l 235 0 l 35 0 l 383 956 l 619 956 l 966 0 l 768 0 l 684 244 l 319 244 m 501 808 q 482 743 494 781 q 465 690 470 705 l 364 395 l 639 395 l 536 696 q 518 752 526 724 q 501 808 510 781 m 636 1059 l 636 1038 l 522 1038 l 291 1202 l 291 1231 l 466 1231 l 636 1059 z "},"Ã":{"ha":1003,"x_min":35,"x_max":966,"o":"m 319 244 l 235 0 l 35 0 l 383 956 l 619 956 l 966 0 l 768 0 l 684 244 l 319 244 m 501 808 q 482 743 494 781 q 465 690 470 705 l 364 395 l 639 395 l 536 696 q 518 752 526 724 q 501 808 510 781 m 614 1038 q 554 1052 585 1038 q 494 1081 524 1065 q 442 1109 467 1097 q 395 1121 416 1121 q 353 1105 368 1121 q 329 1038 338 1090 l 236 1038 q 283 1194 243 1151 q 389 1236 323 1236 q 446 1223 416 1236 q 505 1195 476 1211 q 559 1166 534 1179 q 606 1153 585 1153 q 649 1170 633 1153 q 673 1236 664 1186 l 765 1236 q 722 1084 760 1130 q 614 1038 684 1038 z "},"Õ":{"ha":1080,"x_min":57,"x_max":1022,"o":"m 1022 482 q 962 221 1022 333 q 793 48 902 110 q 538 -14 684 -14 q 280 46 388 -14 q 115 218 172 106 q 57 482 57 329 q 114 745 57 635 q 280 912 172 854 q 539 970 388 970 q 799 911 691 970 q 964 743 907 852 q 1022 482 1022 634 m 818 482 q 745 725 818 637 q 539 812 671 812 q 332 725 405 812 q 258 482 258 638 q 292 302 258 378 q 389 185 326 226 q 538 144 452 144 q 745 232 672 144 q 818 482 818 320 m 647 1038 q 588 1052 618 1038 q 528 1081 557 1065 q 475 1109 500 1097 q 429 1121 450 1121 q 386 1105 401 1121 q 362 1038 372 1090 l 269 1038 q 316 1194 277 1151 q 422 1236 356 1236 q 479 1223 450 1236 q 538 1195 509 1211 q 593 1166 567 1179 q 640 1153 618 1153 q 682 1170 667 1153 q 707 1236 697 1186 l 798 1236 q 755 1084 793 1130 q 647 1038 717 1038 z "},"Œ":{"ha":1389,"x_min":57,"x_max":1335,"o":"m 673 0 q 610 -4 647 -1 q 538 -7 574 -7 q 279 52 387 -7 q 114 220 172 111 q 57 482 57 329 q 114 743 57 635 q 279 906 172 850 q 539 963 387 963 q 597 961 563 963 q 677 956 632 959 l 1307 956 l 1307 802 l 854 802 l 854 561 l 1265 561 l 1265 411 l 854 411 l 854 154 l 1335 154 l 1335 0 l 673 0 m 653 793 q 601 803 629 800 q 539 806 572 806 q 331 721 404 806 q 258 482 258 637 q 333 239 258 327 q 538 151 407 151 q 606 154 577 151 q 653 164 635 157 l 653 793 z "},"œ":{"ha":1311,"x_min":54,"x_max":1266,"o":"m 795 323 q 836 169 795 224 q 948 114 876 114 q 1030 136 998 114 q 1076 201 1063 158 l 1255 186 q 939 -14 1177 -14 q 688 94 777 -14 q 421 -14 591 -14 q 152 88 250 -14 q 54 368 54 190 q 152 646 54 545 q 425 747 250 747 q 692 644 599 747 q 941 747 783 747 q 1183 643 1099 747 q 1266 336 1266 538 l 1266 323 l 795 323 m 595 368 q 552 557 595 498 q 428 616 509 616 q 298 554 341 616 q 254 368 254 492 q 297 181 254 245 q 419 117 339 117 q 551 179 507 117 q 595 368 595 242 m 939 627 q 835 581 871 627 q 797 450 799 534 l 1082 450 q 1039 583 1076 538 q 939 627 1002 627 z "},"–":{"ha":772,"x_min":42,"x_max":730,"o":"m 730 441 l 730 304 l 42 304 l 42 441 l 730 441 z "},"—":{"ha":1389,"x_min":0,"x_max":1389,"o":"m 1389 441 l 1389 304 l 0 304 l 0 441 l 1389 441 z "},"“":{"ha":694,"x_min":102,"x_max":591,"o":"m 589 741 l 589 564 l 393 564 l 393 696 q 411 842 393 780 q 468 956 429 903 l 591 956 q 526 846 549 903 q 503 741 503 789 l 589 741 m 297 741 l 297 564 l 102 564 l 102 696 q 120 841 102 778 q 176 956 138 903 l 300 956 q 234 846 258 903 q 211 741 211 789 l 297 741 z "},"”":{"ha":694,"x_min":102,"x_max":591,"o":"m 591 825 q 574 681 591 743 q 517 564 557 618 l 393 564 q 483 779 483 677 l 397 779 l 397 956 l 591 956 l 591 825 m 300 825 q 283 680 300 741 q 226 564 266 619 l 102 564 q 191 779 191 678 l 105 779 l 105 956 l 300 956 l 300 825 z "},"‘":{"ha":386,"x_min":94,"x_max":292,"o":"m 289 741 l 289 564 l 94 564 l 94 696 q 112 841 94 778 q 168 956 130 903 l 292 956 q 226 846 250 903 q 203 741 203 789 l 289 741 z "},"’":{"ha":386,"x_min":94,"x_max":292,"o":"m 292 823 q 275 681 292 741 q 218 564 258 621 l 94 564 q 183 779 183 678 l 97 779 l 97 956 l 292 956 l 292 823 z "},"÷":{"ha":762,"x_min":33,"x_max":730,"o":"m 461 810 l 461 652 l 300 652 l 300 810 l 461 810 m 730 538 l 730 386 l 33 386 l 33 538 l 730 538 m 461 273 l 461 115 l 300 115 l 300 273 l 461 273 z "},"◊":{"ha":686,"x_min":2,"x_max":686,"o":"m 686 490 l 378 0 l 308 0 l 2 489 l 308 981 l 378 981 l 686 490 m 148 490 l 344 155 l 540 490 l 344 817 l 148 490 z "},"ÿ":{"ha":772,"x_min":11,"x_max":765,"o":"m 192 -288 q 72 -279 122 -288 l 72 -144 q 138 -149 110 -149 q 237 -113 204 -149 q 301 7 270 -77 l 11 734 l 212 734 l 328 390 q 358 296 341 353 q 396 163 375 240 q 426 279 412 226 q 457 387 440 332 l 566 734 l 765 734 l 475 -39 q 437 -121 457 -85 q 397 -185 418 -157 q 307 -265 356 -241 q 192 -288 258 -288 m 616 962 l 616 813 l 469 813 l 469 962 l 616 962 m 319 962 l 319 813 l 174 813 l 174 962 l 319 962 z "},"Ÿ":{"ha":926,"x_min":24,"x_max":904,"o":"m 564 392 l 564 0 l 364 0 l 364 392 l 24 956 l 233 956 l 463 551 l 694 956 l 904 956 l 564 392 m 681 1186 l 681 1038 l 547 1038 l 547 1186 l 681 1186 m 371 1186 l 371 1038 l 239 1038 l 239 1186 l 371 1186 z "},"⁄":{"ha":232,"x_min":-256,"x_max":488,"o":"m 488 956 l -119 0 l -256 0 l 351 956 l 488 956 z "},"€":{"ha":772,"x_min":7,"x_max":748,"o":"m 446 135 q 524 166 495 135 q 560 253 553 197 l 748 242 q 649 51 727 115 q 444 -14 572 -14 q 94 346 134 -14 l 7 346 l 34 447 l 86 447 q 85 464 85 456 q 85 481 85 473 q 85 501 85 491 q 86 519 85 511 l 7 519 l 34 621 l 93 621 q 444 970 136 970 q 644 906 567 970 q 741 726 722 842 l 551 715 q 516 793 545 766 q 437 821 488 821 q 335 773 370 821 q 289 621 299 725 l 511 621 l 491 519 l 286 519 q 285 500 285 510 q 285 481 285 491 q 285 464 285 473 q 286 447 286 456 l 517 447 l 496 346 l 290 346 q 339 188 300 241 q 446 135 378 135 z "},"‹":{"ha":463,"x_min":62,"x_max":399,"o":"m 399 119 l 399 96 l 237 96 l 62 340 l 62 389 l 237 637 l 397 637 l 397 612 l 225 364 l 399 119 z "},"›":{"ha":463,"x_min":63,"x_max":399,"o":"m 63 96 l 63 119 l 237 364 l 64 612 l 64 637 l 226 637 l 399 389 l 399 340 l 226 96 l 63 96 z "},"":{"ha":848,"x_min":24,"x_max":750,"o":"m 750 1006 l 750 866 l 559 866 l 559 1006 l 750 1006 m 321 605 l 321 0 l 131 0 l 131 605 l 24 605 l 24 734 l 131 734 l 131 810 q 184 958 131 910 q 345 1006 237 1006 q 465 996 400 1006 l 465 873 q 410 879 438 879 q 341 860 361 879 q 321 791 321 840 l 321 734 l 465 734 l 465 605 l 321 605 m 750 734 l 750 0 l 559 0 l 559 734 l 750 734 z "},"":{"ha":848,"x_min":24,"x_max":750,"o":"m 750 1006 l 750 0 l 560 0 l 560 1006 l 750 1006 m 321 605 l 321 0 l 131 0 l 131 605 l 24 605 l 24 734 l 131 734 l 131 810 q 184 958 131 910 q 345 1006 237 1006 q 465 996 400 1006 l 465 873 q 410 879 438 879 q 341 860 361 879 q 321 791 321 840 l 321 734 l 465 734 l 465 605 l 321 605 z "},"‡":{"ha":772,"x_min":92,"x_max":680,"o":"m 448 146 l 459 -96 l 313 -96 l 324 146 l 92 126 l 92 264 l 324 246 l 342 454 l 324 665 l 93 646 l 93 785 l 324 765 l 313 1006 l 459 1006 l 448 765 l 680 785 l 680 646 l 448 665 l 431 454 l 448 246 l 679 264 l 679 126 l 448 146 z "},"∙":{"ha":386,"x_min":96,"x_max":291,"o":"m 291 567 l 291 360 l 96 360 l 96 567 l 291 567 z "},"‚":{"ha":386,"x_min":94,"x_max":292,"o":"m 292 45 q 275 -99 292 -37 q 219 -215 258 -161 l 94 -215 q 160 -106 136 -163 q 184 0 184 -50 l 97 0 l 97 176 l 292 176 l 292 45 z "},"„":{"ha":694,"x_min":102,"x_max":591,"o":"m 591 45 q 574 -99 591 -37 q 517 -215 556 -162 l 393 -215 q 458 -109 433 -167 q 483 0 483 -52 l 397 0 l 397 176 l 591 176 l 591 45 m 300 45 q 283 -100 300 -39 q 226 -215 266 -161 l 102 -215 q 168 -105 144 -162 q 191 0 191 -49 l 105 0 l 105 176 l 300 176 l 300 45 z "},"‰":{"ha":1389,"x_min":28,"x_max":1361,"o":"m 224 962 q 370 902 321 962 q 418 720 418 841 q 368 539 418 603 q 222 476 318 476 q 77 538 126 476 q 28 720 28 600 q 76 903 28 843 q 224 962 123 962 m 811 956 l 259 0 l 125 0 l 676 956 l 811 956 m 298 720 q 282 841 298 804 q 224 878 265 878 q 164 843 182 878 q 146 720 146 808 q 164 598 146 635 q 223 561 181 561 q 281 597 263 561 q 298 720 298 633 m 717 484 q 862 424 814 484 q 910 241 910 363 q 860 61 910 125 q 714 -2 810 -2 q 569 60 618 -2 q 520 241 520 122 q 568 425 520 365 q 717 484 616 484 m 1168 484 q 1313 424 1265 484 q 1361 241 1361 363 q 1311 60 1361 123 q 1165 -2 1261 -2 q 1020 60 1069 -2 q 971 241 971 122 q 1019 425 971 365 q 1168 484 1067 484 m 791 241 q 774 363 791 326 q 717 400 758 400 q 655 363 673 400 q 638 241 638 327 q 655 120 638 157 q 715 83 673 83 q 773 119 755 83 q 791 241 791 155 m 1242 241 q 1225 363 1242 326 q 1168 400 1208 400 q 1107 365 1125 400 q 1090 241 1090 330 q 1107 120 1090 157 q 1166 83 1124 83 q 1224 119 1206 83 q 1242 241 1242 155 z "},"Â":{"ha":1003,"x_min":35,"x_max":966,"o":"m 319 244 l 235 0 l 35 0 l 383 956 l 619 956 l 966 0 l 768 0 l 684 244 l 319 244 m 501 808 q 482 743 494 781 q 465 690 470 705 l 364 395 l 639 395 l 536 696 q 518 752 526 724 q 501 808 510 781 m 251 1038 l 251 1057 l 426 1244 l 581 1244 l 751 1057 l 751 1038 l 643 1038 l 505 1140 l 503 1140 l 359 1038 l 251 1038 z "},"Ê":{"ha":926,"x_min":93,"x_max":872,"o":"m 872 155 l 872 0 l 93 0 l 93 956 l 844 956 l 844 801 l 293 801 l 293 561 l 803 561 l 803 406 l 293 406 l 293 155 l 872 155 m 233 1038 l 233 1057 l 408 1244 l 564 1244 l 733 1057 l 733 1038 l 625 1038 l 488 1140 l 485 1140 l 342 1038 l 233 1038 z "},"Á":{"ha":1003,"x_min":35,"x_max":966,"o":"m 319 244 l 235 0 l 35 0 l 383 956 l 619 956 l 966 0 l 768 0 l 684 244 l 319 244 m 501 808 q 482 743 494 781 q 465 690 470 705 l 364 395 l 639 395 l 536 696 q 518 752 526 724 q 501 808 510 781 m 734 1202 l 504 1038 l 389 1038 l 389 1059 l 559 1231 l 734 1231 l 734 1202 z "},"Ë":{"ha":926,"x_min":93,"x_max":872,"o":"m 872 155 l 872 0 l 93 0 l 93 956 l 844 956 l 844 801 l 293 801 l 293 561 l 803 561 l 803 406 l 293 406 l 293 155 l 872 155 m 703 1186 l 703 1038 l 570 1038 l 570 1186 l 703 1186 m 393 1186 l 393 1038 l 262 1038 l 262 1186 l 393 1186 z "},"È":{"ha":926,"x_min":93,"x_max":872,"o":"m 872 155 l 872 0 l 93 0 l 93 956 l 844 956 l 844 801 l 293 801 l 293 561 l 803 561 l 803 406 l 293 406 l 293 155 l 872 155 m 614 1059 l 614 1038 l 499 1038 l 269 1202 l 269 1231 l 444 1231 l 614 1059 z "},"Í":{"ha":386,"x_min":71,"x_max":416,"o":"m 293 956 l 293 0 l 93 0 l 93 956 l 293 956 m 416 1202 l 186 1038 l 71 1038 l 71 1059 l 241 1231 l 416 1231 l 416 1202 z "},"Î":{"ha":386,"x_min":-58,"x_max":442,"o":"m 293 956 l 293 0 l 93 0 l 93 956 l 293 956 m -58 1038 l -58 1057 l 117 1244 l 273 1244 l 442 1057 l 442 1038 l 334 1038 l 197 1140 l 194 1140 l 51 1038 l -58 1038 z "},"Ï":{"ha":386,"x_min":-28,"x_max":414,"o":"m 293 956 l 293 0 l 93 0 l 93 956 l 293 956 m 414 1186 l 414 1038 l 280 1038 l 280 1186 l 414 1186 m 104 1186 l 104 1038 l -28 1038 l -28 1186 l 104 1186 z "},"Ì":{"ha":386,"x_min":-27,"x_max":318,"o":"m 293 956 l 293 0 l 93 0 l 93 956 l 293 956 m 318 1059 l 318 1038 l 203 1038 l -27 1202 l -27 1231 l 148 1231 l 318 1059 z "},"Ó":{"ha":1080,"x_min":57,"x_max":1022,"o":"m 1022 482 q 962 221 1022 333 q 793 48 902 110 q 538 -14 684 -14 q 280 46 388 -14 q 115 218 172 106 q 57 482 57 329 q 114 745 57 635 q 280 912 172 854 q 539 970 388 970 q 799 911 691 970 q 964 743 907 852 q 1022 482 1022 634 m 818 482 q 745 725 818 637 q 539 812 671 812 q 332 725 405 812 q 258 482 258 638 q 292 302 258 378 q 389 185 326 226 q 538 144 452 144 q 745 232 672 144 q 818 482 818 320 m 770 1202 l 539 1038 l 424 1038 l 424 1059 l 595 1231 l 770 1231 l 770 1202 z "},"Ô":{"ha":1080,"x_min":57,"x_max":1022,"o":"m 1022 482 q 962 221 1022 333 q 793 48 902 110 q 538 -14 684 -14 q 280 46 388 -14 q 115 218 172 106 q 57 482 57 329 q 114 745 57 635 q 280 912 172 854 q 539 970 388 970 q 799 911 691 970 q 964 743 907 852 q 1022 482 1022 634 m 818 482 q 745 725 818 637 q 539 812 671 812 q 332 725 405 812 q 258 482 258 638 q 292 302 258 378 q 389 185 326 226 q 538 144 452 144 q 745 232 672 144 q 818 482 818 320 m 289 1038 l 289 1057 l 464 1244 l 619 1244 l 789 1057 l 789 1038 l 681 1038 l 543 1140 l 541 1140 l 397 1038 l 289 1038 z "},"Ò":{"ha":1080,"x_min":57,"x_max":1022,"o":"m 1022 482 q 962 221 1022 333 q 793 48 902 110 q 538 -14 684 -14 q 280 46 388 -14 q 115 218 172 106 q 57 482 57 329 q 114 745 57 635 q 280 912 172 854 q 539 970 388 970 q 799 911 691 970 q 964 743 907 852 q 1022 482 1022 634 m 818 482 q 745 725 818 637 q 539 812 671 812 q 332 725 405 812 q 258 482 258 638 q 292 302 258 378 q 389 185 326 226 q 538 144 452 144 q 745 232 672 144 q 818 482 818 320 m 716 1059 l 716 1038 l 602 1038 l 371 1202 l 371 1231 l 546 1231 l 716 1059 z "},"Ú":{"ha":1003,"x_min":83,"x_max":918,"o":"m 490 -14 q 268 30 359 -14 q 130 156 177 73 q 83 358 83 239 l 83 956 l 283 956 l 283 374 q 337 202 283 260 q 496 143 391 143 q 661 204 603 143 q 718 380 718 266 l 718 956 l 918 956 l 918 368 q 868 162 918 248 q 722 32 817 77 q 490 -14 626 -14 m 747 1202 l 517 1038 l 401 1038 l 401 1059 l 572 1231 l 747 1231 l 747 1202 z "},"Û":{"ha":1003,"x_min":83,"x_max":918,"o":"m 490 -14 q 268 30 359 -14 q 130 156 177 73 q 83 358 83 239 l 83 956 l 283 956 l 283 374 q 337 202 283 260 q 496 143 391 143 q 661 204 603 143 q 718 380 718 266 l 718 956 l 918 956 l 918 368 q 868 162 918 248 q 722 32 817 77 q 490 -14 626 -14 m 250 1038 l 250 1057 l 425 1244 l 580 1244 l 749 1057 l 749 1038 l 642 1038 l 504 1140 l 501 1140 l 358 1038 l 250 1038 z "},"Ù":{"ha":1003,"x_min":83,"x_max":918,"o":"m 490 -14 q 268 30 359 -14 q 130 156 177 73 q 83 358 83 239 l 83 956 l 283 956 l 283 374 q 337 202 283 260 q 496 143 391 143 q 661 204 603 143 q 718 380 718 266 l 718 956 l 918 956 l 918 368 q 868 162 918 248 q 722 32 817 77 q 490 -14 626 -14 m 627 1059 l 627 1038 l 513 1038 l 282 1202 l 282 1231 l 457 1231 l 627 1059 z "},"ı":{"ha":386,"x_min":98,"x_max":289,"o":"m 289 734 l 289 0 l 98 0 l 98 734 l 289 734 z "},"ˆ":{"ha":463,"x_min":0,"x_max":500,"o":"m 0 802 l 0 821 l 175 1037 l 330 1037 l 500 821 l 500 802 l 392 802 l 254 932 l 252 932 l 109 802 l 0 802 z "},"˜":{"ha":463,"x_min":-9,"x_max":519,"o":"m 368 802 q 314 814 342 802 q 258 841 286 826 q 201 871 229 857 q 150 886 173 886 q 107 870 122 886 q 83 802 93 854 l -9 802 q 38 960 -2 919 q 143 1001 77 1001 q 205 986 174 1001 q 268 955 237 972 q 318 929 294 940 q 361 918 342 918 q 403 934 388 918 q 428 1001 418 951 l 519 1001 q 476 848 515 895 q 368 802 438 802 z "},"ˉ":{"ha":463,"x_min":24,"x_max":439,"o":"m 24 930 l 439 930 l 439 816 l 24 816 l 24 930 z "},"˘":{"ha":463,"x_min":-39,"x_max":441,"o":"m 201 802 q 34 864 98 802 q -39 1021 -31 926 l 72 1021 q 118 939 83 969 q 201 909 153 909 q 285 938 250 909 q 330 1021 321 968 l 441 1021 q 367 862 429 921 q 201 802 304 802 z "},"˙":{"ha":463,"x_min":136,"x_max":326,"o":"m 326 1006 l 326 866 l 136 866 l 136 1006 l 326 1006 z "},"˚":{"ha":463,"x_min":26,"x_max":371,"o":"m 371 943 q 348 856 371 895 q 287 794 326 817 q 199 770 248 770 q 111 794 151 770 q 49 856 72 817 q 26 943 26 895 q 50 1029 26 990 q 112 1092 73 1068 q 199 1115 151 1115 q 285 1092 246 1115 q 348 1029 324 1068 q 371 943 371 990 m 285 943 q 260 1002 285 977 q 199 1027 235 1027 q 139 1003 164 1027 q 114 943 114 979 q 139 880 114 905 q 199 856 164 856 q 260 881 235 856 q 285 943 285 906 z "},"¸":{"ha":463,"x_min":65,"x_max":339,"o":"m 339 -159 q 286 -256 339 -223 q 134 -288 233 -288 q 65 -284 103 -288 l 65 -204 q 122 -209 87 -209 q 215 -162 215 -209 q 196 -127 215 -138 q 132 -115 177 -115 q 111 -116 119 -115 q 97 -117 102 -116 l 139 0 l 236 0 l 214 -56 q 308 -87 277 -59 q 339 -159 339 -115 z "},"˝":{"ha":463,"x_min":-62,"x_max":525,"o":"m -62 803 l -62 826 l 90 1006 l 250 1006 l 250 977 l 34 803 l -62 803 m 213 803 l 213 826 l 366 1006 l 525 1006 l 525 977 l 309 803 l 213 803 z "},"˛":{"ha":463,"x_min":52,"x_max":315,"o":"m 315 -266 q 212 -288 272 -288 q 94 -252 137 -288 q 52 -153 52 -215 q 81 -56 52 -102 q 159 14 111 -11 l 262 14 q 197 -53 220 -14 q 175 -128 175 -92 q 192 -174 175 -157 q 239 -191 208 -191 q 315 -173 275 -191 l 315 -266 z "},"ˇ":{"ha":463,"x_min":0,"x_max":500,"o":"m 500 1017 l 330 802 l 175 802 l 0 1017 l 0 1037 l 109 1037 l 252 906 l 254 906 l 392 1037 l 500 1037 l 500 1017 z "},"Ł":{"ha":848,"x_min":0,"x_max":806,"o":"m 92 0 l 93 328 l 0 283 l 0 436 l 93 481 l 93 956 l 293 956 l 293 576 l 501 676 l 501 525 l 293 425 l 293 157 l 806 157 l 806 0 l 92 0 z "},"ł":{"ha":386,"x_min":12,"x_max":375,"o":"m 97 0 l 97 380 l 12 334 l 12 479 l 97 526 l 97 1006 l 288 1006 l 288 632 l 375 682 l 375 538 l 288 486 l 288 0 l 97 0 z "},"Š":{"ha":926,"x_min":40,"x_max":872,"o":"m 872 275 q 768 61 872 135 q 463 -14 664 -14 q 40 249 100 -14 l 233 281 q 310 171 253 205 q 468 136 367 136 q 625 168 573 136 q 677 264 677 200 q 654 331 677 304 q 586 375 630 357 q 522 394 564 384 q 418 418 480 405 q 305 447 346 435 q 240 470 264 458 q 193 494 216 481 q 113 576 142 525 q 85 703 85 627 q 182 901 85 832 q 465 970 279 970 q 732 914 643 970 q 847 730 821 859 l 653 704 q 592 797 638 766 q 461 828 547 828 q 325 800 370 828 q 279 714 279 771 q 299 653 279 677 q 356 612 318 629 q 510 571 392 596 q 628 543 578 556 q 707 517 677 530 q 761 490 737 505 q 801 460 784 476 q 854 381 836 427 q 872 275 872 335 m 716 1225 l 547 1038 l 391 1038 l 216 1225 l 216 1244 l 325 1244 l 468 1141 l 471 1141 l 608 1244 l 716 1244 l 716 1225 z "},"š":{"ha":772,"x_min":49,"x_max":715,"o":"m 715 214 q 628 47 715 108 q 387 -14 541 -14 q 156 34 236 -14 q 49 183 75 82 l 216 208 q 266 134 231 156 q 387 113 300 113 q 504 133 467 113 q 541 197 541 153 q 511 253 541 232 q 411 288 481 273 q 315 309 357 298 q 242 329 273 319 q 193 347 212 338 q 107 418 137 375 q 78 526 78 462 q 159 689 78 631 q 389 748 240 748 q 599 697 519 748 q 699 550 679 646 l 530 532 q 490 599 522 577 q 389 621 458 621 q 287 604 321 621 q 253 546 253 587 q 279 495 253 514 q 367 465 305 477 q 520 428 453 447 q 627 384 587 410 q 691 318 667 358 q 715 214 715 277 m 639 1017 l 469 802 l 314 802 l 139 1017 l 139 1037 l 248 1037 l 391 906 l 393 906 l 531 1037 l 639 1037 l 639 1017 z "},"Ž":{"ha":848,"x_min":41,"x_max":808,"o":"m 808 157 l 808 0 l 41 0 l 41 142 l 558 799 l 93 799 l 93 956 l 781 956 l 781 817 l 264 157 l 808 157 m 686 1225 l 516 1038 l 361 1038 l 186 1225 l 186 1244 l 294 1244 l 437 1141 l 440 1141 l 578 1244 l 686 1244 l 686 1225 z "},"ž":{"ha":694,"x_min":56,"x_max":644,"o":"m 644 139 l 644 0 l 56 0 l 56 135 l 401 596 l 83 596 l 83 734 l 611 734 l 611 597 l 268 139 l 644 139 m 597 1017 l 427 802 l 272 802 l 97 1017 l 97 1037 l 205 1037 l 349 906 l 351 906 l 489 1037 l 597 1037 l 597 1017 z "},"¦":{"ha":389,"x_min":106,"x_max":283,"o":"m 283 986 l 283 458 l 106 458 l 106 986 l 283 986 m 283 220 l 283 -309 l 106 -309 l 106 220 l 283 220 z "},"Ð":{"ha":1003,"x_min":5,"x_max":945,"o":"m 945 485 q 885 224 945 332 q 721 58 826 115 q 479 0 616 0 l 93 0 l 93 403 l 5 403 l 5 551 l 93 551 l 93 956 l 439 956 q 812 834 680 956 q 945 485 945 712 m 743 485 q 664 718 743 637 q 435 799 585 799 l 293 799 l 293 551 l 534 551 l 534 403 l 293 403 l 293 157 l 463 157 q 612 196 549 157 q 709 310 675 236 q 743 485 743 383 z "},"ð":{"ha":848,"x_min":54,"x_max":794,"o":"m 422 -12 q 153 78 252 -12 q 54 325 54 168 q 152 571 54 482 q 425 660 250 660 q 536 638 496 660 q 434 798 492 730 l 236 715 l 236 840 l 349 887 q 275 941 319 911 q 174 1006 231 971 l 372 1006 q 481 943 438 974 l 663 1019 l 663 892 l 581 859 q 741 627 688 750 q 794 367 794 505 q 696 88 794 188 q 422 -12 598 -12 m 595 323 q 552 480 595 432 q 428 529 509 529 q 298 478 341 529 q 254 323 254 427 q 296 170 254 223 q 419 117 338 117 q 549 165 504 117 q 595 323 595 214 z "},"Ý":{"ha":926,"x_min":24,"x_max":904,"o":"m 564 392 l 564 0 l 364 0 l 364 392 l 24 956 l 233 956 l 463 551 l 694 956 l 904 956 l 564 392 m 701 1202 l 471 1038 l 355 1038 l 355 1059 l 526 1231 l 701 1231 l 701 1202 z "},"ý":{"ha":772,"x_min":11,"x_max":765,"o":"m 192 -288 q 72 -279 122 -288 l 72 -144 q 138 -149 110 -149 q 237 -113 204 -149 q 301 7 270 -77 l 11 734 l 212 734 l 328 390 q 358 296 341 353 q 396 163 375 240 q 426 279 412 226 q 457 387 440 332 l 566 734 l 765 734 l 475 -39 q 437 -121 457 -85 q 397 -185 418 -157 q 307 -265 356 -241 q 192 -288 258 -288 m 626 989 l 395 802 l 280 802 l 280 823 l 451 1019 l 626 1019 l 626 989 z "},"Þ":{"ha":926,"x_min":93,"x_max":879,"o":"m 879 500 q 837 340 879 410 q 717 231 795 271 q 530 192 639 192 l 293 192 l 293 0 l 93 0 l 93 956 l 293 956 l 293 798 l 522 798 q 787 721 694 798 q 879 500 879 644 m 677 497 q 633 614 677 572 q 500 656 589 656 l 293 656 l 293 334 l 505 334 q 632 377 587 334 q 677 497 677 420 z "},"þ":{"ha":848,"x_min":97,"x_max":791,"o":"m 288 -7 l 288 -288 l 97 -288 l 97 1006 l 288 1006 l 288 693 q 287 636 288 665 q 285 579 286 608 l 288 579 q 378 681 319 647 q 522 714 437 714 q 722 619 652 714 q 791 353 791 524 q 718 82 791 178 q 510 -14 644 -14 q 288 117 351 -14 l 283 117 q 288 -7 288 96 m 593 353 q 555 526 593 469 q 441 582 517 582 q 325 520 365 582 q 285 347 285 458 q 325 177 285 237 q 440 117 366 117 q 555 176 517 117 q 593 353 593 235 z "},"−":{"ha":811,"x_min":58,"x_max":754,"o":"m 754 538 l 754 386 l 58 386 l 58 538 l 754 538 z "},"×":{"ha":811,"x_min":58,"x_max":753,"o":"m 407 357 l 165 114 l 58 221 l 300 464 l 61 703 l 168 808 l 407 571 l 646 810 l 753 703 l 514 463 l 753 225 l 646 117 l 407 357 z "},"¹":{"ha":463,"x_min":56,"x_max":419,"o":"m 419 553 l 419 471 l 56 471 l 56 553 l 180 553 l 180 870 l 63 797 l 63 880 l 185 959 l 304 959 l 304 553 l 419 553 z "},"²":{"ha":463,"x_min":35,"x_max":433,"o":"m 433 564 l 433 471 l 36 471 l 35 553 q 90 630 54 594 q 188 705 126 665 q 268 768 246 743 q 290 819 290 792 q 277 866 290 850 q 235 881 263 881 q 190 864 206 881 q 171 814 174 848 l 39 818 q 100 926 48 885 q 235 967 151 967 q 374 929 324 967 q 425 825 425 892 q 321 673 425 740 q 262 635 286 651 q 225 608 238 618 q 188 564 199 587 l 433 564 z "},"³":{"ha":463,"x_min":30,"x_max":433,"o":"m 433 607 q 382 502 433 540 q 237 464 331 464 q 92 499 146 464 q 30 605 39 534 l 158 613 q 235 550 165 550 q 304 615 304 550 q 210 678 304 678 l 172 678 l 172 764 l 207 764 q 271 780 250 764 q 293 825 293 795 q 277 866 293 851 q 233 881 262 881 q 186 866 203 881 q 166 821 170 850 l 40 829 q 99 930 47 892 q 236 967 151 967 q 371 932 323 967 q 420 840 420 897 q 395 765 420 796 q 317 724 370 734 l 317 722 q 403 685 373 716 q 433 607 433 654 z "},"½":{"ha":1158,"x_min":64,"x_max":1093,"o":"m 427 553 l 427 471 l 64 471 l 64 553 l 189 553 l 189 870 l 71 797 l 71 880 l 193 959 l 312 959 l 312 553 l 427 553 m 962 956 l 355 0 l 219 0 l 826 956 l 962 956 m 1093 93 l 1093 -1 l 696 -1 l 694 81 q 750 158 714 123 q 848 234 786 194 q 928 296 906 272 q 950 348 950 321 q 937 394 950 379 q 895 410 923 410 q 850 393 866 410 q 831 343 834 376 l 699 347 q 760 455 708 414 q 895 496 811 496 q 1034 458 984 496 q 1084 353 1084 420 q 981 202 1084 269 q 922 163 945 180 q 885 136 898 147 q 848 93 859 115 l 1093 93 z "},"¼":{"ha":1158,"x_min":64,"x_max":1093,"o":"m 427 553 l 427 471 l 64 471 l 64 553 l 189 553 l 189 870 l 71 797 l 71 880 l 193 959 l 312 959 l 312 553 l 427 553 m 976 956 l 369 0 l 233 0 l 840 956 l 976 956 m 1023 96 l 1023 1 l 899 1 l 899 96 l 665 96 l 665 196 l 880 489 l 1023 489 l 1023 191 l 1093 191 l 1093 96 l 1023 96 m 901 395 q 877 353 886 370 q 857 322 867 336 l 762 191 l 899 191 l 899 322 q 900 359 899 340 q 901 395 901 377 z "},"¾":{"ha":1158,"x_min":70,"x_max":1093,"o":"m 976 956 l 369 0 l 233 0 l 840 956 l 976 956 m 1023 96 l 1023 1 l 899 1 l 899 96 l 665 96 l 665 196 l 880 489 l 1023 489 l 1023 191 l 1093 191 l 1093 96 l 1023 96 m 901 395 q 877 353 886 370 q 857 322 867 336 l 762 191 l 899 191 l 899 322 q 900 359 899 340 q 901 395 901 377 m 473 607 q 422 502 473 540 q 277 464 371 464 q 132 499 186 464 q 70 605 79 534 l 198 613 q 275 550 205 550 q 345 615 345 550 q 250 678 345 678 l 212 678 l 212 764 l 247 764 q 311 780 290 764 q 333 825 333 795 q 317 866 333 851 q 273 881 302 881 q 226 866 243 881 q 206 821 210 850 l 80 829 q 139 930 87 892 q 276 967 191 967 q 411 932 363 967 q 460 840 460 897 q 435 765 460 796 q 357 724 410 734 l 357 722 q 443 685 413 716 q 473 607 473 654 z "},"₣":{"ha":772,"x_min":5,"x_max":741,"o":"m 286 175 l 286 0 l 93 0 l 93 175 l 5 175 l 5 276 l 93 276 l 93 956 l 741 956 l 741 814 l 286 814 l 286 546 l 718 546 l 718 405 l 286 405 l 286 276 l 499 276 l 499 175 l 286 175 z "},"Ğ":{"ha":1080,"x_min":57,"x_max":994,"o":"m 547 143 q 698 166 625 143 q 811 224 771 189 l 811 356 l 578 356 l 578 504 l 994 504 l 994 153 q 797 31 918 75 q 541 -14 675 -14 q 278 44 386 -14 q 113 213 170 102 q 57 482 57 324 q 183 844 57 718 q 546 970 309 970 q 821 908 714 970 q 974 721 928 846 l 789 665 q 696 775 760 738 q 546 812 632 812 q 332 727 405 812 q 258 482 258 642 q 334 232 258 320 q 547 143 410 143 m 548 1031 q 383 1086 450 1031 q 309 1226 317 1141 l 420 1226 q 466 1159 430 1184 q 549 1134 502 1134 q 633 1159 598 1134 q 678 1226 669 1183 l 789 1226 q 712 1083 777 1136 q 548 1031 647 1031 z "},"ğ":{"ha":848,"x_min":57,"x_max":755,"o":"m 404 -294 q 188 -243 270 -294 q 87 -97 106 -192 l 278 -75 q 322 -144 288 -119 q 410 -169 355 -169 q 526 -120 489 -169 q 562 25 562 -71 l 564 136 l 562 136 q 472 35 531 68 q 326 1 413 1 q 127 98 198 1 q 57 373 57 194 q 130 650 57 553 q 340 748 202 748 q 476 715 420 748 q 562 616 531 682 l 566 616 q 567 656 566 632 q 571 703 568 681 q 575 734 573 726 l 755 734 q 751 564 751 661 l 751 22 q 663 -214 751 -134 q 404 -294 574 -294 m 564 377 q 523 554 564 490 q 408 617 483 617 q 294 556 332 617 q 256 373 256 495 q 293 194 256 254 q 407 134 331 134 q 523 197 483 134 q 564 377 564 260 m 411 802 q 244 864 309 802 q 172 1021 179 926 l 282 1021 q 328 939 293 969 q 412 909 363 909 q 495 938 460 909 q 541 1021 531 968 l 652 1021 q 577 862 640 921 q 411 802 515 802 z "},"İ":{"ha":386,"x_min":93,"x_max":293,"o":"m 293 956 l 293 0 l 93 0 l 93 956 l 293 956 m 290 1190 l 290 1049 l 99 1049 l 99 1190 l 290 1190 z "},"Ş":{"ha":926,"x_min":40,"x_max":872,"o":"m 872 275 q 768 61 872 135 q 463 -14 664 -14 q 40 249 100 -14 l 233 281 q 310 171 253 205 q 468 136 367 136 q 625 168 573 136 q 677 264 677 200 q 654 331 677 304 q 586 375 630 357 q 522 394 564 384 q 418 418 480 405 q 305 447 346 435 q 240 470 264 458 q 193 494 216 481 q 113 576 142 525 q 85 703 85 627 q 182 901 85 832 q 465 970 279 970 q 732 914 643 970 q 847 730 821 859 l 653 704 q 592 797 638 766 q 461 828 547 828 q 325 800 370 828 q 279 714 279 771 q 299 653 279 677 q 356 612 318 629 q 510 571 392 596 q 628 543 578 556 q 707 517 677 530 q 761 490 737 505 q 801 460 784 476 q 854 381 836 427 q 872 275 872 335 m 625 -159 q 572 -256 625 -223 q 420 -288 519 -288 q 351 -284 389 -288 l 351 -204 q 408 -209 373 -209 q 501 -162 501 -209 q 482 -127 501 -138 q 418 -115 463 -115 q 397 -116 406 -115 q 383 -117 388 -116 l 425 0 l 522 0 l 500 -56 q 594 -87 564 -59 q 625 -159 625 -115 z "},"ş":{"ha":772,"x_min":49,"x_max":715,"o":"m 715 214 q 628 47 715 108 q 387 -14 541 -14 q 156 34 236 -14 q 49 183 75 82 l 216 208 q 266 134 231 156 q 387 113 300 113 q 504 133 467 113 q 541 197 541 153 q 511 253 541 232 q 411 288 481 273 q 315 309 357 298 q 242 329 273 319 q 193 347 212 338 q 107 418 137 375 q 78 526 78 462 q 159 689 78 631 q 389 748 240 748 q 599 697 519 748 q 699 550 679 646 l 530 532 q 490 599 522 577 q 389 621 458 621 q 287 604 321 621 q 253 546 253 587 q 279 495 253 514 q 367 465 305 477 q 520 428 453 447 q 627 384 587 410 q 691 318 667 358 q 715 214 715 277 m 533 -159 q 480 -256 533 -223 q 328 -288 427 -288 q 259 -284 297 -288 l 259 -204 q 316 -209 281 -209 q 409 -162 409 -209 q 390 -127 409 -138 q 326 -115 371 -115 q 304 -116 313 -115 q 291 -117 296 -116 l 333 0 l 430 0 l 408 -56 q 502 -87 471 -59 q 533 -159 533 -115 z "},"Ć":{"ha":1003,"x_min":57,"x_max":965,"o":"m 539 144 q 791 326 721 144 l 965 260 q 800 54 909 121 q 539 -14 691 -14 q 278 45 386 -14 q 114 215 170 104 q 57 482 57 326 q 111 748 57 640 q 271 913 165 857 q 530 970 377 970 q 804 902 699 970 q 953 704 910 835 l 777 656 q 689 770 754 728 q 534 812 623 812 q 329 728 399 812 q 258 482 258 644 q 291 297 258 372 q 386 183 323 222 q 539 144 448 144 m 788 1202 l 557 1038 l 442 1038 l 442 1059 l 613 1231 l 788 1231 l 788 1202 z "},"ć":{"ha":772,"x_min":54,"x_max":732,"o":"m 403 -14 q 145 86 236 -14 q 54 363 54 185 q 146 646 54 545 q 406 747 237 747 q 620 682 535 747 q 726 503 705 617 l 534 493 q 494 583 526 549 q 401 616 461 616 q 291 555 328 616 q 254 370 254 494 q 292 180 254 243 q 404 117 330 117 q 495 151 458 117 q 541 253 532 185 l 732 244 q 677 109 722 167 q 562 19 633 51 q 403 -14 492 -14 m 648 989 l 418 802 l 302 802 l 302 823 l 473 1019 l 648 1019 l 648 989 z "},"Č":{"ha":1003,"x_min":57,"x_max":965,"o":"m 539 144 q 791 326 721 144 l 965 260 q 800 54 909 121 q 539 -14 691 -14 q 278 45 386 -14 q 114 215 170 104 q 57 482 57 326 q 111 748 57 640 q 271 913 165 857 q 530 970 377 970 q 804 902 699 970 q 953 704 910 835 l 777 656 q 689 770 754 728 q 534 812 623 812 q 329 728 399 812 q 258 482 258 644 q 291 297 258 372 q 386 183 323 222 q 539 144 448 144 m 780 1225 l 610 1038 l 455 1038 l 280 1225 l 280 1244 l 389 1244 l 532 1141 l 534 1141 l 672 1244 l 780 1244 l 780 1225 z "},"č":{"ha":772,"x_min":54,"x_max":732,"o":"m 403 -14 q 145 86 236 -14 q 54 363 54 185 q 146 646 54 545 q 406 747 237 747 q 620 682 535 747 q 726 503 705 617 l 534 493 q 494 583 526 549 q 401 616 461 616 q 291 555 328 616 q 254 370 254 494 q 292 180 254 243 q 404 117 330 117 q 495 151 458 117 q 541 253 532 185 l 732 244 q 677 109 722 167 q 562 19 633 51 q 403 -14 492 -14 m 645 1017 l 475 802 l 320 802 l 145 1017 l 145 1037 l 254 1037 l 397 906 l 399 906 l 537 1037 l 645 1037 l 645 1017 z "},"đ":{"ha":848,"x_min":57,"x_max":842,"o":"m 561 912 l 561 1006 l 752 1006 l 752 912 l 842 912 l 842 797 l 752 797 l 752 160 q 753 86 752 126 q 758 0 755 46 l 573 0 q 569 28 572 7 q 565 76 566 50 q 563 119 563 102 l 560 119 q 470 20 529 53 q 325 -14 412 -14 q 127 82 197 -14 q 57 353 57 178 q 130 625 57 530 q 339 720 203 720 q 474 688 417 720 q 561 591 530 655 l 562 591 l 561 711 l 561 797 l 367 797 l 367 912 l 561 912 m 256 354 q 293 176 256 235 q 406 117 331 117 q 523 180 482 117 q 564 359 564 243 q 524 532 564 472 q 407 593 485 593 q 293 535 330 593 q 256 354 256 477 z "},"¯":{"ha":767,"x_min":-12,"x_max":779,"o":"m 779 1048 l 779 985 l -12 985 l -12 1048 l 779 1048 z "},"·":{"ha":463,"x_min":96,"x_max":291,"o":"m 291 567 l 291 360 l 96 360 l 96 567 l 291 567 z "},"Ă":{"ha":1003,"x_min":35,"x_max":966,"o":"m 319 244 l 235 0 l 35 0 l 383 956 l 619 956 l 966 0 l 768 0 l 684 244 l 319 244 m 501 808 q 482 743 494 781 q 465 690 470 705 l 364 395 l 639 395 l 536 696 q 518 752 526 724 q 501 808 510 781 m 500 1031 q 335 1086 401 1031 q 261 1226 269 1141 l 372 1226 q 418 1159 382 1184 q 501 1134 454 1134 q 585 1159 550 1134 q 630 1226 621 1183 l 741 1226 q 664 1083 728 1136 q 500 1031 599 1031 z "},"ă":{"ha":772,"x_min":41,"x_max":781,"o":"m 267 -14 q 100 44 160 -14 q 41 208 41 102 q 115 380 41 321 q 330 442 189 439 l 488 445 l 488 482 q 463 589 488 554 q 381 624 438 624 q 303 600 328 624 q 273 520 279 576 l 74 530 q 389 747 111 747 q 604 679 528 747 q 679 484 679 610 l 679 217 q 693 132 679 155 q 739 109 707 109 q 781 113 761 109 l 781 9 q 721 -4 746 1 q 659 -8 696 -8 q 553 27 587 -8 q 512 131 519 62 l 508 131 q 408 23 468 59 q 267 -14 347 -14 m 488 340 l 391 338 q 296 324 323 335 q 254 288 269 312 q 239 222 239 263 q 263 145 239 170 q 328 119 288 119 q 410 144 372 119 q 467 211 446 168 q 488 302 488 254 l 488 340 m 393 802 q 225 864 290 802 q 153 1021 161 926 l 264 1021 q 310 939 275 969 q 393 909 345 909 q 477 938 441 909 q 522 1021 513 968 l 633 1021 q 559 862 621 921 q 393 802 496 802 z "},"Ą":{"ha":1003,"x_min":35,"x_max":966,"o":"m 319 244 l 235 0 l 35 0 l 383 956 l 619 956 l 966 0 l 768 0 l 684 244 l 319 244 m 501 808 q 482 743 494 781 q 465 690 470 705 l 364 395 l 639 395 l 536 696 q 518 752 526 724 q 501 808 510 781 m 958 -258 q 856 -281 916 -281 q 738 -244 781 -281 q 695 -145 695 -208 q 725 -49 695 -94 q 802 22 754 -3 l 906 22 q 841 -46 863 -7 q 819 -121 819 -85 q 835 -166 819 -149 q 882 -184 852 -184 q 958 -165 919 -184 l 958 -258 z "},"ą":{"ha":772,"x_min":41,"x_max":781,"o":"m 267 -14 q 100 44 160 -14 q 41 208 41 102 q 115 380 41 321 q 330 442 189 439 l 488 445 l 488 482 q 463 589 488 554 q 381 624 438 624 q 303 600 328 624 q 273 520 279 576 l 74 530 q 389 747 111 747 q 604 679 528 747 q 679 484 679 610 l 679 217 q 693 132 679 155 q 739 109 707 109 q 781 113 761 109 l 781 9 q 721 -4 746 1 q 659 -8 696 -8 q 553 27 587 -8 q 512 131 519 62 l 508 131 q 408 23 468 59 q 267 -14 347 -14 m 488 340 l 391 338 q 296 324 323 335 q 254 288 269 312 q 239 222 239 263 q 263 145 239 170 q 328 119 288 119 q 410 144 372 119 q 467 211 446 168 q 488 302 488 254 l 488 340 m 728 -266 q 625 -288 685 -288 q 507 -252 550 -288 q 465 -153 465 -215 q 494 -56 465 -102 q 572 14 524 -11 l 675 14 q 610 -53 633 -14 q 588 -128 588 -92 q 605 -174 588 -157 q 652 -191 621 -191 q 728 -173 688 -191 l 728 -266 z "},"Ď":{"ha":1003,"x_min":93,"x_max":945,"o":"m 945 485 q 885 223 945 332 q 721 57 826 115 q 479 0 616 0 l 93 0 l 93 956 l 439 956 q 812 834 680 956 q 945 485 945 712 m 743 485 q 663 720 743 639 q 435 801 583 801 l 293 801 l 293 155 l 463 155 q 611 195 549 155 q 709 309 674 235 q 743 485 743 383 m 724 1225 l 555 1038 l 399 1038 l 224 1225 l 224 1244 l 333 1244 l 476 1141 l 479 1141 l 616 1244 l 724 1244 l 724 1225 z "},"ď":{"ha":998,"x_min":57,"x_max":999,"o":"m 572 0 q 568 28 571 7 q 564 76 566 50 q 562 119 562 102 l 559 119 q 470 20 528 53 q 325 -14 412 -14 q 127 86 197 -14 q 57 366 57 186 q 131 648 57 549 q 339 747 204 747 q 474 715 417 747 q 561 618 530 682 l 562 618 l 561 739 l 561 1006 l 751 1006 l 751 160 q 753 86 751 126 q 757 0 754 46 l 572 0 m 256 366 q 293 179 256 241 q 406 117 331 117 q 522 183 481 117 q 564 371 564 249 q 524 554 564 490 q 407 618 484 618 q 293 556 330 618 q 256 366 256 494 m 999 907 q 984 818 999 858 q 935 737 970 778 l 842 737 q 906 866 906 805 l 833 866 l 833 1006 l 999 1006 l 999 907 z "},"Đ":{"ha":1003,"x_min":5,"x_max":945,"o":"m 945 485 q 885 224 945 332 q 721 58 826 115 q 479 0 616 0 l 93 0 l 93 403 l 5 403 l 5 551 l 93 551 l 93 956 l 439 956 q 812 834 680 956 q 945 485 945 712 m 743 485 q 664 718 743 637 q 435 799 585 799 l 293 799 l 293 551 l 534 551 l 534 403 l 293 403 l 293 157 l 463 157 q 612 196 549 157 q 709 310 675 236 q 743 485 743 383 z "},"Ę":{"ha":926,"x_min":93,"x_max":872,"o":"m 872 155 l 872 0 l 93 0 l 93 956 l 844 956 l 844 801 l 293 801 l 293 561 l 803 561 l 803 406 l 293 406 l 293 155 l 872 155 m 823 -266 q 720 -288 780 -288 q 602 -252 645 -288 q 559 -153 559 -215 q 589 -56 559 -102 q 667 14 618 -11 l 770 14 q 705 -53 728 -14 q 683 -128 683 -92 q 700 -174 683 -157 q 747 -191 716 -191 q 823 -173 783 -191 l 823 -266 z "},"ę":{"ha":772,"x_min":54,"x_max":725,"o":"m 254 330 q 294 169 254 223 q 407 114 334 114 q 489 136 457 114 q 534 201 522 158 l 714 186 q 397 -14 636 -14 q 143 84 232 -14 q 54 370 54 182 q 144 650 54 552 q 400 747 235 747 q 642 643 558 747 q 725 336 725 538 l 725 330 l 254 330 m 541 450 q 498 583 535 538 q 397 627 460 627 q 294 581 330 627 q 256 450 258 534 l 541 450 m 629 -254 q 526 -277 586 -277 q 408 -240 451 -277 q 366 -141 366 -203 q 395 -45 366 -90 q 473 26 425 1 l 576 26 q 511 -42 534 -3 q 489 -117 489 -81 q 506 -162 489 -145 q 553 -180 522 -180 q 629 -161 589 -180 l 629 -254 z "},"Ě":{"ha":926,"x_min":93,"x_max":872,"o":"m 872 155 l 872 0 l 93 0 l 93 956 l 844 956 l 844 801 l 293 801 l 293 561 l 803 561 l 803 406 l 293 406 l 293 155 l 872 155 m 730 1225 l 561 1038 l 406 1038 l 231 1225 l 231 1244 l 339 1244 l 482 1141 l 485 1141 l 623 1244 l 730 1244 l 730 1225 z "},"ě":{"ha":772,"x_min":54,"x_max":725,"o":"m 254 330 q 294 169 254 223 q 407 114 334 114 q 489 136 457 114 q 534 201 522 158 l 714 186 q 397 -14 636 -14 q 143 84 232 -14 q 54 370 54 182 q 144 650 54 552 q 400 747 235 747 q 642 643 558 747 q 725 336 725 538 l 725 330 l 254 330 m 541 450 q 498 583 535 538 q 397 627 460 627 q 294 581 330 627 q 256 450 258 534 l 541 450 m 646 1017 l 477 802 l 321 802 l 146 1017 l 146 1037 l 255 1037 l 398 906 l 401 906 l 538 1037 l 646 1037 l 646 1017 z "},"Ĺ":{"ha":848,"x_min":93,"x_max":806,"o":"m 806 155 l 806 0 l 93 0 l 93 956 l 293 956 l 293 155 l 806 155 m 522 1202 l 292 1038 l 176 1038 l 176 1059 l 347 1231 l 522 1231 l 522 1202 z "},"ĺ":{"ha":386,"x_min":72,"x_max":418,"o":"m 288 1006 l 288 0 l 97 0 l 97 1006 l 288 1006 m 418 1255 l 187 1091 l 72 1091 l 72 1112 l 243 1284 l 418 1284 l 418 1255 z "},"Ľ":{"ha":848,"x_min":93,"x_max":806,"o":"m 806 155 l 806 0 l 93 0 l 93 956 l 293 956 l 293 155 l 806 155 m 667 857 q 653 767 667 807 q 604 686 638 727 l 511 686 q 574 815 574 754 l 501 815 l 501 956 l 667 956 l 667 857 z "},"ľ":{"ha":535,"x_min":97,"x_max":536,"o":"m 288 1006 l 288 0 l 97 0 l 97 1006 l 288 1006 m 536 907 q 521 818 536 858 q 472 737 507 778 l 379 737 q 443 866 443 805 l 370 866 l 370 1006 l 536 1006 l 536 907 z "},"Ŀ":{"ha":848,"x_min":93,"x_max":806,"o":"m 806 155 l 806 0 l 93 0 l 93 956 l 293 956 l 293 155 l 806 155 m 644 582 l 644 441 l 454 441 l 454 582 l 644 582 z "},"ŀ":{"ha":665,"x_min":97,"x_max":597,"o":"m 288 1006 l 288 0 l 97 0 l 97 1006 l 288 1006 m 597 582 l 597 441 l 407 441 l 407 582 l 597 582 z "},"Ń":{"ha":1003,"x_min":93,"x_max":909,"o":"m 271 564 l 271 0 l 93 0 l 93 956 l 321 956 l 744 214 q 732 400 732 317 l 732 956 l 909 956 l 909 0 l 675 0 l 258 736 q 268 639 264 682 q 271 564 271 596 m 735 1202 l 505 1038 l 389 1038 l 389 1059 l 560 1231 l 735 1231 l 735 1202 z "},"ń":{"ha":848,"x_min":92,"x_max":762,"o":"m 288 393 l 288 0 l 97 0 l 97 570 q 95 666 97 629 q 92 734 94 704 l 273 734 q 277 695 275 726 q 280 634 279 665 q 282 588 282 602 l 285 588 q 382 710 323 672 q 521 748 440 748 q 700 676 637 748 q 762 466 762 604 l 762 0 l 572 0 l 572 412 q 540 557 572 509 q 441 605 507 605 q 330 546 372 605 q 288 393 288 486 m 668 989 l 437 802 l 322 802 l 322 823 l 493 1019 l 668 1019 l 668 989 z "},"Ň":{"ha":1003,"x_min":93,"x_max":909,"o":"m 271 564 l 271 0 l 93 0 l 93 956 l 321 956 l 744 214 q 732 400 732 317 l 732 956 l 909 956 l 909 0 l 675 0 l 258 736 q 268 639 264 682 q 271 564 271 596 m 747 1225 l 578 1038 l 422 1038 l 248 1225 l 248 1244 l 356 1244 l 499 1141 l 502 1141 l 640 1244 l 747 1244 l 747 1225 z "},"ň":{"ha":848,"x_min":92,"x_max":762,"o":"m 288 393 l 288 0 l 97 0 l 97 570 q 95 666 97 629 q 92 734 94 704 l 273 734 q 277 695 275 726 q 280 634 279 665 q 282 588 282 602 l 285 588 q 382 710 323 672 q 521 748 440 748 q 700 676 637 748 q 762 466 762 604 l 762 0 l 572 0 l 572 412 q 540 557 572 509 q 441 605 507 605 q 330 546 372 605 q 288 393 288 486 m 664 1017 l 494 802 l 339 802 l 164 1017 l 164 1037 l 273 1037 l 416 906 l 418 906 l 556 1037 l 664 1037 l 664 1017 z "},"Ő":{"ha":1080,"x_min":57,"x_max":1022,"o":"m 1022 482 q 962 221 1022 333 q 793 48 902 110 q 538 -14 684 -14 q 280 46 388 -14 q 115 218 172 106 q 57 482 57 329 q 114 745 57 635 q 280 912 172 854 q 539 970 388 970 q 799 911 691 970 q 964 743 907 852 q 1022 482 1022 634 m 818 482 q 745 725 818 637 q 539 812 671 812 q 332 725 405 812 q 258 482 258 638 q 292 302 258 378 q 389 185 326 226 q 538 144 452 144 q 745 232 672 144 q 818 482 818 320 m 325 1038 l 325 1061 l 471 1232 l 630 1232 l 630 1202 l 414 1038 l 325 1038 m 600 1038 l 600 1061 l 746 1232 l 905 1232 l 905 1202 l 690 1038 l 600 1038 z "},"ő":{"ha":848,"x_min":54,"x_max":794,"o":"m 794 368 q 695 88 794 189 q 421 -14 596 -14 q 152 88 250 -14 q 54 368 54 190 q 152 646 54 545 q 425 747 250 747 q 700 649 605 747 q 794 368 794 551 m 595 368 q 552 557 595 498 q 428 616 509 616 q 298 554 341 616 q 254 368 254 492 q 297 181 254 245 q 419 117 339 117 q 551 179 507 117 q 595 368 595 242 m 199 803 l 199 826 l 351 1006 l 511 1006 l 511 977 l 295 803 l 199 803 m 474 803 l 474 826 l 627 1006 l 786 1006 l 786 977 l 570 803 l 474 803 z "},"Ŕ":{"ha":1003,"x_min":93,"x_max":975,"o":"m 293 363 l 293 0 l 93 0 l 93 956 l 570 956 q 834 882 741 956 q 927 671 927 808 q 870 497 927 570 q 716 401 813 425 l 975 0 l 749 0 l 528 363 l 293 363 m 726 663 q 682 766 726 731 q 549 800 637 800 l 293 800 l 293 518 l 555 518 q 682 556 639 518 q 726 663 726 594 m 718 1202 l 487 1038 l 372 1038 l 372 1059 l 543 1231 l 718 1231 l 718 1202 z "},"ŕ":{"ha":541,"x_min":92,"x_max":528,"o":"m 288 360 l 288 0 l 97 0 l 97 562 q 95 662 97 622 q 92 734 94 703 l 273 734 q 276 707 275 728 q 279 660 277 686 q 281 610 280 633 q 282 577 282 587 l 285 577 q 334 686 312 653 q 386 733 356 718 q 460 748 416 748 q 519 738 497 748 l 519 578 q 438 589 474 589 q 327 531 367 589 q 288 360 288 473 m 528 989 l 298 802 l 182 802 l 182 823 l 353 1019 l 528 1019 l 528 989 z "},"Ř":{"ha":1003,"x_min":93,"x_max":975,"o":"m 293 363 l 293 0 l 93 0 l 93 956 l 570 956 q 834 882 741 956 q 927 671 927 808 q 870 497 927 570 q 716 401 813 425 l 975 0 l 749 0 l 528 363 l 293 363 m 726 663 q 682 766 726 731 q 549 800 637 800 l 293 800 l 293 518 l 555 518 q 682 556 639 518 q 726 663 726 594 m 724 1225 l 555 1038 l 399 1038 l 224 1225 l 224 1244 l 333 1244 l 476 1141 l 479 1141 l 616 1244 l 724 1244 l 724 1225 z "},"ř":{"ha":541,"x_min":38,"x_max":538,"o":"m 288 360 l 288 0 l 97 0 l 97 562 q 95 662 97 622 q 92 734 94 703 l 273 734 q 276 707 275 728 q 279 660 277 686 q 281 610 280 633 q 282 577 282 587 l 285 577 q 334 686 312 653 q 386 733 356 718 q 460 748 416 748 q 519 738 497 748 l 519 578 q 438 589 474 589 q 327 531 367 589 q 288 360 288 473 m 538 1017 l 368 802 l 213 802 l 38 1017 l 38 1037 l 146 1037 l 290 906 l 292 906 l 430 1037 l 538 1037 l 538 1017 z "},"Ś":{"ha":926,"x_min":40,"x_max":872,"o":"m 872 275 q 768 61 872 135 q 463 -14 664 -14 q 40 249 100 -14 l 233 281 q 310 171 253 205 q 468 136 367 136 q 625 168 573 136 q 677 264 677 200 q 654 331 677 304 q 586 375 630 357 q 522 394 564 384 q 418 418 480 405 q 305 447 346 435 q 240 470 264 458 q 193 494 216 481 q 113 576 142 525 q 85 703 85 627 q 182 901 85 832 q 465 970 279 970 q 732 914 643 970 q 847 730 821 859 l 653 704 q 592 797 638 766 q 461 828 547 828 q 325 800 370 828 q 279 714 279 771 q 299 653 279 677 q 356 612 318 629 q 510 571 392 596 q 628 543 578 556 q 707 517 677 530 q 761 490 737 505 q 801 460 784 476 q 854 381 836 427 q 872 275 872 335 m 722 1202 l 492 1038 l 376 1038 l 376 1059 l 547 1231 l 722 1231 l 722 1202 z "},"ś":{"ha":772,"x_min":49,"x_max":715,"o":"m 715 214 q 628 47 715 108 q 387 -14 541 -14 q 156 34 236 -14 q 49 183 75 82 l 216 208 q 266 134 231 156 q 387 113 300 113 q 504 133 467 113 q 541 197 541 153 q 511 253 541 232 q 411 288 481 273 q 315 309 357 298 q 242 329 273 319 q 193 347 212 338 q 107 418 137 375 q 78 526 78 462 q 159 689 78 631 q 389 748 240 748 q 599 697 519 748 q 699 550 679 646 l 530 532 q 490 599 522 577 q 389 621 458 621 q 287 604 321 621 q 253 546 253 587 q 279 495 253 514 q 367 465 305 477 q 520 428 453 447 q 627 384 587 410 q 691 318 667 358 q 715 214 715 277 m 617 989 l 387 802 l 271 802 l 271 823 l 442 1019 l 617 1019 l 617 989 z "},"Ţ":{"ha":848,"x_min":16,"x_max":833,"o":"m 524 801 l 524 0 l 324 0 l 324 801 l 16 801 l 16 956 l 833 956 l 833 801 l 524 801 m 576 -159 q 524 -256 576 -223 q 371 -288 471 -288 q 302 -284 340 -288 l 302 -204 q 359 -209 324 -209 q 452 -162 452 -209 q 433 -127 452 -138 q 370 -115 414 -115 q 348 -116 357 -115 q 334 -117 339 -116 l 376 0 l 473 0 l 451 -56 q 546 -87 515 -59 q 576 -159 576 -115 z "},"ţ":{"ha":463,"x_min":17,"x_max":446,"o":"m 446 11 q 285 -12 376 -12 q 155 34 201 -12 q 110 172 110 79 l 110 605 l 17 605 l 17 734 l 119 734 l 179 906 l 298 906 l 298 734 l 437 734 l 437 605 l 298 605 l 298 224 q 319 145 298 170 q 382 119 339 119 q 446 129 402 119 l 446 11 m 433 -159 q 380 -256 433 -223 q 227 -288 327 -288 q 159 -284 197 -288 l 159 -204 q 216 -209 180 -209 q 309 -162 309 -209 q 290 -127 309 -138 q 226 -115 271 -115 q 204 -116 213 -115 q 191 -117 195 -116 l 233 0 l 330 0 l 307 -56 q 402 -87 371 -59 q 433 -159 433 -115 z "},"Ť":{"ha":848,"x_min":16,"x_max":833,"o":"m 524 801 l 524 0 l 324 0 l 324 801 l 16 801 l 16 956 l 833 956 l 833 801 l 524 801 m 677 1225 l 508 1038 l 353 1038 l 178 1225 l 178 1244 l 286 1244 l 429 1141 l 432 1141 l 570 1244 l 677 1244 l 677 1225 z "},"ť":{"ha":665,"x_min":17,"x_max":665,"o":"m 446 11 q 285 -12 376 -12 q 155 34 201 -12 q 110 172 110 79 l 110 605 l 17 605 l 17 734 l 119 734 l 179 906 l 298 906 l 298 734 l 437 734 l 437 605 l 298 605 l 298 224 q 319 145 298 170 q 382 119 339 119 q 446 129 402 119 l 446 11 m 665 907 q 651 818 665 858 q 602 737 636 778 l 509 737 q 572 866 572 805 l 499 866 l 499 1006 l 665 1006 l 665 907 z "},"Ů":{"ha":1003,"x_min":83,"x_max":918,"o":"m 490 -14 q 268 30 359 -14 q 130 156 177 73 q 83 358 83 239 l 83 956 l 283 956 l 283 374 q 337 202 283 260 q 496 143 391 143 q 661 204 603 143 q 718 380 718 266 l 718 956 l 918 956 l 918 368 q 868 162 918 248 q 722 32 817 77 q 490 -14 626 -14 m 674 1169 q 651 1083 674 1122 q 590 1020 629 1044 q 502 997 551 997 q 414 1020 454 997 q 352 1083 375 1044 q 330 1169 330 1122 q 353 1256 330 1217 q 415 1318 376 1295 q 502 1341 454 1341 q 588 1318 549 1341 q 651 1256 627 1295 q 674 1169 674 1217 m 588 1169 q 563 1229 588 1204 q 502 1254 538 1254 q 442 1230 467 1254 q 417 1169 417 1205 q 442 1107 417 1131 q 502 1082 467 1082 q 563 1107 538 1082 q 588 1169 588 1133 z "},"ů":{"ha":848,"x_min":86,"x_max":757,"o":"m 564 146 q 467 24 526 62 q 328 -14 408 -14 q 149 58 211 -14 q 86 268 86 130 l 86 734 l 277 734 l 277 322 q 309 177 277 226 q 407 129 342 129 q 518 188 476 129 q 561 340 561 248 l 561 734 l 751 734 l 751 164 q 753 76 751 117 q 757 0 754 35 l 575 0 q 569 85 571 49 q 567 146 567 122 l 564 146 m 593 943 q 571 856 593 895 q 509 794 548 817 q 421 770 470 770 q 334 794 373 770 q 272 856 294 817 q 249 943 249 895 q 272 1029 249 990 q 335 1092 296 1068 q 421 1115 374 1115 q 508 1092 469 1115 q 570 1029 547 1068 q 593 943 593 990 m 507 943 q 483 1002 507 977 q 421 1027 458 1027 q 361 1003 387 1027 q 336 943 336 979 q 361 880 336 905 q 421 856 387 856 q 482 881 457 856 q 507 943 507 906 z "},"Ű":{"ha":1003,"x_min":83,"x_max":918,"o":"m 490 -14 q 268 30 359 -14 q 130 156 177 73 q 83 358 83 239 l 83 956 l 283 956 l 283 374 q 337 202 283 260 q 496 143 391 143 q 661 204 603 143 q 718 380 718 266 l 718 956 l 918 956 l 918 368 q 868 162 918 248 q 722 32 817 77 q 490 -14 626 -14 m 267 1038 l 267 1061 l 412 1232 l 572 1232 l 572 1202 l 356 1038 l 267 1038 m 542 1038 l 542 1061 l 688 1232 l 847 1232 l 847 1202 l 631 1038 l 542 1038 z "},"ű":{"ha":848,"x_min":86,"x_max":762,"o":"m 564 146 q 467 24 526 62 q 328 -14 408 -14 q 149 58 211 -14 q 86 268 86 130 l 86 734 l 277 734 l 277 322 q 309 177 277 226 q 407 129 342 129 q 518 188 476 129 q 561 340 561 248 l 561 734 l 751 734 l 751 164 q 753 76 751 117 q 757 0 754 35 l 575 0 q 569 85 571 49 q 567 146 567 122 l 564 146 m 174 803 l 174 826 l 327 1006 l 486 1006 l 486 977 l 271 803 l 174 803 m 450 803 l 450 826 l 602 1006 l 762 1006 l 762 977 l 546 803 l 450 803 z "},"Ź":{"ha":848,"x_min":41,"x_max":808,"o":"m 808 157 l 808 0 l 41 0 l 41 142 l 558 799 l 93 799 l 93 956 l 781 956 l 781 817 l 264 157 l 808 157 m 667 1202 l 436 1038 l 321 1038 l 321 1059 l 492 1231 l 667 1231 l 667 1202 z "},"ź":{"ha":694,"x_min":56,"x_max":644,"o":"m 644 139 l 644 0 l 56 0 l 56 135 l 401 596 l 83 596 l 83 734 l 611 734 l 611 597 l 268 139 l 644 139 m 574 989 l 343 802 l 228 802 l 228 823 l 399 1019 l 574 1019 l 574 989 z "},"Ż":{"ha":848,"x_min":41,"x_max":808,"o":"m 808 157 l 808 0 l 41 0 l 41 142 l 558 799 l 93 799 l 93 956 l 781 956 l 781 817 l 264 157 l 808 157 m 527 1190 l 527 1049 l 336 1049 l 336 1190 l 527 1190 z "},"ż":{"ha":694,"x_min":56,"x_max":644,"o":"m 644 139 l 644 0 l 56 0 l 56 135 l 401 596 l 83 596 l 83 734 l 611 734 l 611 597 l 268 139 l 644 139 m 454 1006 l 454 866 l 264 866 l 264 1006 l 454 1006 z "},"Γ":{"ha":835,"x_min":93,"x_max":812,"o":"m 293 801 l 293 1 l 93 1 l 93 956 l 812 956 l 812 801 l 293 801 z "},"Θ":{"ha":1080,"x_min":57,"x_max":1022,"o":"m 1022 482 q 962 221 1022 333 q 793 48 902 110 q 538 -14 684 -14 q 280 46 388 -14 q 115 218 172 106 q 57 482 57 329 q 114 745 57 635 q 280 912 172 854 q 539 970 388 970 q 799 911 691 970 q 964 743 907 852 q 1022 482 1022 634 m 818 482 q 745 725 818 637 q 539 812 671 812 q 332 725 405 812 q 258 482 258 638 q 292 302 258 378 q 389 185 326 226 q 538 144 452 144 q 745 232 672 144 q 818 482 818 320 m 739 561 l 739 406 l 340 406 l 340 561 l 739 561 z "},"Φ":{"ha":1140,"x_min":43,"x_max":1098,"o":"m 1098 498 q 1049 306 1098 389 q 912 175 1001 222 q 701 127 823 127 l 665 127 l 665 -7 l 476 -7 l 476 127 l 439 127 q 230 175 319 127 q 92 306 140 222 q 43 498 43 389 q 148 762 43 668 q 448 855 253 855 l 476 855 l 476 962 l 665 962 l 665 855 l 693 855 q 992 762 887 855 q 1098 498 1098 668 m 897 495 q 843 656 897 598 q 677 713 789 713 l 665 713 l 665 269 l 682 269 q 841 328 785 269 q 897 495 897 386 m 244 495 q 299 328 244 387 q 458 269 355 269 l 476 269 l 476 713 l 463 713 q 298 656 351 713 q 244 495 244 598 z "},"α":{"ha":854,"x_min":54,"x_max":840,"o":"m 583 161 q 483 28 541 69 q 340 -14 425 -14 q 125 80 196 -14 q 54 363 54 173 q 131 652 54 556 q 357 747 208 747 q 510 702 446 747 q 607 574 574 657 l 609 574 q 660 734 626 659 l 840 734 q 792 629 817 693 q 749 497 768 564 q 725 377 730 429 q 759 178 736 273 q 817 0 782 84 l 634 0 q 605 81 617 41 q 586 161 593 121 l 583 161 m 254 366 q 283 175 254 233 q 377 117 312 117 q 481 186 437 117 q 536 368 524 254 q 482 552 522 488 q 382 616 442 616 q 284 555 313 616 q 254 366 254 495 z "},"δ":{"ha":842,"x_min":58,"x_max":784,"o":"m 784 328 q 739 150 784 227 q 612 30 694 73 q 418 -14 530 -14 q 153 76 248 -14 q 58 326 58 166 q 374 694 58 585 l 162 907 l 162 1006 l 741 1006 l 741 878 l 498 878 l 398 882 l 617 684 q 713 574 677 630 q 767 457 750 518 q 784 328 784 397 m 587 330 q 556 472 587 405 q 452 612 526 539 q 306 506 357 578 q 255 326 255 433 q 297 174 255 228 q 415 119 339 119 q 587 330 587 119 z "},"ε":{"ha":659,"x_min":52,"x_max":637,"o":"m 357 114 q 449 137 404 114 q 540 207 495 161 l 637 112 q 498 14 565 41 q 337 -14 432 -14 q 127 43 202 -14 q 52 201 52 99 q 105 325 52 278 q 248 378 159 371 l 248 380 q 121 433 167 388 q 75 551 75 479 q 153 694 75 641 q 361 747 231 747 q 516 722 454 747 q 626 633 578 696 l 516 549 q 453 607 488 588 q 372 626 419 626 q 286 604 315 626 q 256 543 256 582 q 304 467 256 492 q 478 442 351 442 l 478 322 q 336 312 378 322 q 271 278 293 302 q 248 213 248 255 q 277 139 248 164 q 357 114 306 114 z "},"σ":{"ha":950,"x_min":54,"x_max":923,"o":"m 793 311 q 696 73 793 159 q 426 -14 600 -14 q 151 81 248 -14 q 54 355 54 175 q 167 634 54 535 q 488 734 279 734 l 923 734 l 923 605 l 791 605 l 680 609 l 680 606 q 766 457 739 530 q 793 311 793 385 m 594 334 q 525 605 594 480 l 475 605 q 314 538 374 605 q 254 355 254 472 q 421 117 254 117 q 550 172 505 117 q 594 334 594 228 z "},"τ":{"ha":620,"x_min":12,"x_max":597,"o":"m 183 605 q 111 601 146 605 q 49 592 75 597 q 12 580 22 586 l 12 714 q 65 728 28 722 q 136 734 101 734 l 597 734 l 597 605 l 390 605 l 390 212 q 407 142 390 165 q 468 120 425 120 q 494 121 481 120 q 523 125 508 123 l 539 5 q 474 -8 515 -2 q 404 -14 434 -14 q 252 32 303 -14 q 201 170 201 78 l 201 605 l 183 605 z "},"φ":{"ha":994,"x_min":54,"x_max":940,"o":"m 940 383 q 845 97 940 198 q 573 -12 751 -3 l 573 -288 l 412 -288 l 412 -14 q 146 91 237 -6 q 54 369 54 188 q 127 630 54 536 q 359 750 201 724 l 373 629 q 275 544 310 612 q 241 369 241 476 q 284 184 241 250 q 412 113 328 119 l 412 476 q 471 680 412 610 q 656 749 530 749 q 806 704 743 749 q 905 576 870 659 q 940 383 940 494 m 753 385 q 729 569 753 508 q 656 631 705 631 q 573 474 573 631 l 573 113 q 707 184 660 117 q 753 385 753 252 z "},"‗":{"ha":767,"x_min":-14,"x_max":785,"o":"m 785 -294 l 785 -347 l -14 -347 l -14 -294 l 785 -294 m 785 -117 l 785 -170 l -14 -170 l -14 -117 l 785 -117 z "},"‼":{"ha":839,"x_min":131,"x_max":708,"o":"m 330 956 l 309 289 l 153 289 l 131 956 l 330 956 m 326 183 l 326 0 l 131 0 l 131 183 l 326 183 m 708 956 l 686 289 l 530 289 l 509 956 l 708 956 m 704 183 l 704 0 l 509 0 l 509 183 l 704 183 z "},"ⁿ":{"ha":550,"x_min":73,"x_max":481,"o":"m 197 590 l 197 352 l 76 352 l 76 699 l 73 793 l 186 793 q 189 763 187 790 q 191 718 191 736 l 193 718 q 251 781 217 762 q 334 801 284 801 q 445 764 409 801 q 481 646 481 728 l 481 352 l 360 352 l 360 612 q 345 694 360 671 q 288 717 329 717 q 221 684 246 717 q 197 590 197 652 z "},"₧":{"ha":1519,"x_min":107,"x_max":1472,"o":"m 674 668 q 653 551 674 606 l 711 551 l 771 715 l 856 715 l 856 551 l 956 551 l 956 439 l 856 439 l 856 189 q 869 122 856 142 q 918 103 883 103 q 968 113 941 103 l 968 5 q 868 -11 918 -11 q 745 31 783 -11 q 707 155 707 72 l 707 439 l 636 439 l 636 515 q 523 410 598 448 q 345 372 448 372 l 271 372 l 271 0 l 107 0 l 107 956 l 320 956 q 582 880 489 956 q 674 668 674 805 m 510 667 q 465 787 510 749 q 321 825 420 825 l 271 825 l 271 502 l 327 502 q 467 541 424 502 q 510 667 510 581 m 1472 163 q 1407 32 1472 77 q 1219 -14 1341 -14 q 1040 27 1101 -14 q 959 156 979 68 l 1094 174 q 1134 116 1104 132 q 1218 100 1164 100 q 1330 155 1330 100 q 1308 192 1330 178 q 1262 210 1293 201 q 1200 223 1231 218 q 1104 248 1137 237 q 1047 277 1071 260 q 1004 326 1021 297 q 988 399 988 355 q 1048 518 988 477 q 1225 559 1109 559 q 1385 516 1326 559 q 1461 389 1445 473 l 1324 377 q 1226 445 1312 445 q 1157 436 1179 445 q 1134 402 1134 427 q 1154 372 1134 384 q 1222 351 1175 360 q 1384 304 1343 327 q 1449 247 1426 282 q 1472 163 1472 212 z "},"←":{"ha":1389,"x_min":283,"x_max":1105,"o":"m 435 337 q 515 203 475 290 l 467 203 q 283 354 380 304 l 283 378 q 467 529 380 429 l 515 529 q 435 395 475 443 l 1105 395 l 1105 337 l 435 337 z "},"↑":{"ha":694,"x_min":184,"x_max":510,"o":"m 318 629 q 184 549 271 589 l 184 597 q 335 781 286 684 l 359 781 q 510 597 410 684 l 510 549 q 376 629 424 589 l 376 -41 l 318 -41 l 318 629 z "},"→":{"ha":1389,"x_min":283,"x_max":1105,"o":"m 954 395 q 873 529 914 443 l 922 529 q 1105 378 1009 429 l 1105 354 q 922 203 1009 304 l 873 203 q 954 337 914 290 l 283 337 l 283 395 l 954 395 z "},"↓":{"ha":694,"x_min":184,"x_max":510,"o":"m 376 110 q 510 191 424 150 l 510 142 q 359 -41 410 56 l 335 -41 q 184 142 286 56 l 184 191 q 318 110 271 150 l 318 781 l 376 781 l 376 110 z "},"↔":{"ha":1389,"x_min":283,"x_max":1105,"o":"m 435 337 q 515 203 475 290 l 467 203 q 283 354 380 304 l 283 378 q 467 529 380 429 l 515 529 q 435 395 475 443 l 954 395 q 873 529 914 443 l 922 529 q 1105 378 1009 429 l 1105 354 q 922 203 1009 304 l 873 203 q 954 337 914 290 l 435 337 z "},"↕":{"ha":694,"x_min":184,"x_max":510,"o":"m 318 629 q 184 549 271 589 l 184 597 q 335 781 286 684 l 359 781 q 510 597 410 684 l 510 549 q 376 629 424 589 l 376 110 q 510 191 424 150 l 510 142 q 359 -41 410 56 l 335 -41 q 184 142 286 56 l 184 191 q 318 110 271 150 l 318 629 z "},"↨":{"ha":694,"x_min":184,"x_max":510,"o":"m 318 629 q 184 549 271 589 l 184 597 q 335 781 286 684 l 359 781 q 510 597 410 684 l 510 549 q 376 629 424 589 l 376 110 q 510 191 424 150 l 510 142 q 359 -41 410 56 l 335 -41 q 184 142 286 56 l 184 191 q 318 110 271 150 l 318 629 m 510 -71 l 510 -125 l 184 -125 l 184 -71 l 510 -71 z "},"∟":{"ha":1360,"x_min":277,"x_max":1107,"o":"m 1107 64 l 1107 0 l 277 0 l 277 829 l 340 829 l 340 64 l 1107 64 z "},"∩":{"ha":1003,"x_min":191,"x_max":812,"o":"m 260 346 l 260 -1 l 191 -1 l 191 346 q 230 529 191 448 q 340 655 269 610 q 499 700 411 700 q 660 655 588 700 q 771 528 731 610 q 812 346 812 446 l 812 -1 l 742 -1 l 742 347 q 675 553 742 476 q 500 631 609 631 q 326 554 391 631 q 260 346 260 477 z "},"≡":{"ha":810,"x_min":68,"x_max":743,"o":"m 743 749 l 743 648 l 68 648 l 68 749 l 743 749 m 743 507 l 743 407 l 68 407 l 68 507 l 743 507 m 743 266 l 743 165 l 68 165 l 68 266 l 743 266 z "},"⌂":{"ha":839,"x_min":106,"x_max":732,"o":"m 732 431 l 732 0 l 106 0 l 106 431 l 419 782 l 732 431 m 161 56 l 677 56 l 677 407 l 419 696 l 161 407 l 161 56 z "},"⌐":{"ha":811,"x_min":68,"x_max":743,"o":"m 166 412 l 166 122 l 68 122 l 68 511 l 743 511 l 743 412 l 166 412 z "},"⌠":{"ha":839,"x_min":370,"x_max":663,"o":"m 470 965 l 470 -416 l 370 -416 l 370 857 q 396 1014 370 946 q 468 1119 422 1081 q 570 1157 513 1157 q 638 1136 612 1157 q 663 1082 663 1114 q 646 1037 663 1055 q 604 1019 629 1019 q 574 1026 583 1019 q 538 1060 564 1031 q 505 1086 515 1086 q 474 1060 480 1086 q 470 965 470 1037 z "},"⌡":{"ha":839,"x_min":177,"x_max":470,"o":"m 470 -118 q 445 -273 470 -206 q 375 -378 420 -340 q 270 -416 330 -416 q 203 -396 230 -416 q 177 -343 177 -375 q 194 -299 177 -317 q 235 -281 211 -281 q 275 -292 258 -281 q 303 -322 281 -294 q 335 -347 324 -347 q 363 -330 355 -347 q 370 -227 370 -311 l 370 1157 l 470 1157 l 470 -118 z "},"─":{"ha":984,"x_min":-7,"x_max":991,"o":"m 991 471 l 991 372 l -7 372 l -7 471 l 991 471 z "},"│":{"ha":868,"x_min":320,"x_max":418,"o":"m 418 1264 l 418 -421 l 320 -421 l 320 1264 l 418 1264 z "},"┌":{"ha":984,"x_min":443,"x_max":991,"o":"m 541 372 l 541 -421 l 443 -421 l 443 471 l 991 471 l 991 372 l 541 372 z "},"┐":{"ha":984,"x_min":-7,"x_max":541,"o":"m 541 471 l 541 -421 l 443 -421 l 443 372 l -7 372 l -7 471 l 541 471 z "},"└":{"ha":984,"x_min":443,"x_max":991,"o":"m 991 471 l 991 372 l 443 372 l 443 1264 l 541 1264 l 541 471 l 991 471 z "},"┘":{"ha":984,"x_min":-7,"x_max":541,"o":"m 541 1264 l 541 372 l -7 372 l -7 471 l 443 471 l 443 1264 l 541 1264 z "},"├":{"ha":984,"x_min":443,"x_max":991,"o":"m 541 372 l 541 -421 l 443 -421 l 443 1264 l 541 1264 l 541 471 l 991 471 l 991 372 l 541 372 z "},"┤":{"ha":984,"x_min":-7,"x_max":541,"o":"m 541 1264 l 541 -421 l 443 -421 l 443 372 l -7 372 l -7 471 l 443 471 l 443 1264 l 541 1264 z "},"┬":{"ha":984,"x_min":-7,"x_max":991,"o":"m 541 372 l 541 -421 l 443 -421 l 443 372 l -7 372 l -7 471 l 991 471 l 991 372 l 541 372 z "},"┴":{"ha":984,"x_min":-7,"x_max":991,"o":"m 991 471 l 991 372 l -7 372 l -7 471 l 443 471 l 443 1264 l 541 1264 l 541 471 l 991 471 z "},"┼":{"ha":984,"x_min":-7,"x_max":991,"o":"m 541 372 l 541 -421 l 443 -421 l 443 372 l -7 372 l -7 471 l 443 471 l 443 1264 l 541 1264 l 541 471 l 991 471 l 991 372 l 541 372 z "},"═":{"ha":984,"x_min":-7,"x_max":991,"o":"m 991 593 l 991 494 l -7 494 l -7 593 l 991 593 m 991 349 l 991 250 l -7 250 l -7 349 l 991 349 z "},"║":{"ha":984,"x_min":321,"x_max":663,"o":"m 419 1264 l 419 -421 l 321 -421 l 321 1264 l 419 1264 m 663 1264 l 663 -421 l 565 -421 l 565 1264 l 663 1264 z "},"╒":{"ha":984,"x_min":443,"x_max":991,"o":"m 541 250 l 541 -421 l 443 -421 l 443 593 l 991 593 l 991 494 l 541 494 l 541 349 l 991 349 l 991 250 l 541 250 z "},"╓":{"ha":984,"x_min":321,"x_max":991,"o":"m 419 372 l 419 -421 l 321 -421 l 321 471 l 991 471 l 991 372 l 663 372 l 663 -421 l 565 -421 l 565 372 l 419 372 z "},"╔":{"ha":984,"x_min":321,"x_max":991,"o":"m 419 494 l 419 -421 l 321 -421 l 321 593 l 991 593 l 991 494 l 419 494 m 663 250 l 663 -421 l 565 -421 l 565 349 l 991 349 l 991 250 l 663 250 z "},"╕":{"ha":984,"x_min":-7,"x_max":541,"o":"m 541 593 l 541 -421 l 443 -421 l 443 250 l -7 250 l -7 349 l 443 349 l 443 494 l -7 494 l -7 593 l 541 593 z "},"╖":{"ha":984,"x_min":-7,"x_max":663,"o":"m 419 372 l 419 -421 l 321 -421 l 321 372 l -7 372 l -7 471 l 663 471 l 663 -421 l 565 -421 l 565 372 l 419 372 z "},"╗":{"ha":984,"x_min":-7,"x_max":663,"o":"m 663 593 l 663 -421 l 565 -421 l 565 494 l -7 494 l -7 593 l 663 593 m 419 349 l 419 -421 l 321 -421 l 321 250 l -7 250 l -7 349 l 419 349 z "},"╘":{"ha":984,"x_min":443,"x_max":991,"o":"m 991 349 l 991 250 l 443 250 l 443 1264 l 541 1264 l 541 593 l 991 593 l 991 494 l 541 494 l 541 349 l 991 349 z "},"╙":{"ha":984,"x_min":321,"x_max":991,"o":"m 991 471 l 991 372 l 321 372 l 321 1264 l 419 1264 l 419 471 l 565 471 l 565 1264 l 663 1264 l 663 471 l 991 471 z "},"╚":{"ha":984,"x_min":321,"x_max":991,"o":"m 991 349 l 991 250 l 321 250 l 321 1264 l 419 1264 l 419 349 l 991 349 m 991 593 l 991 494 l 565 494 l 565 1264 l 663 1264 l 663 593 l 991 593 z "},"╛":{"ha":984,"x_min":-7,"x_max":541,"o":"m 541 1264 l 541 250 l -7 250 l -7 349 l 443 349 l 443 494 l -7 494 l -7 593 l 443 593 l 443 1264 l 541 1264 z "},"╜":{"ha":984,"x_min":-7,"x_max":663,"o":"m 663 1264 l 663 372 l -7 372 l -7 471 l 321 471 l 321 1264 l 419 1264 l 419 471 l 565 471 l 565 1264 l 663 1264 z "},"╝":{"ha":984,"x_min":-7,"x_max":663,"o":"m 663 1264 l 663 250 l -7 250 l -7 349 l 565 349 l 565 1264 l 663 1264 m 419 1264 l 419 494 l -7 494 l -7 593 l 321 593 l 321 1264 l 419 1264 z "},"╞":{"ha":984,"x_min":443,"x_max":991,"o":"m 541 250 l 541 -421 l 443 -421 l 443 1264 l 541 1264 l 541 593 l 991 593 l 991 494 l 541 494 l 541 349 l 991 349 l 991 250 l 541 250 z "},"╟":{"ha":984,"x_min":321,"x_max":991,"o":"m 663 372 l 663 -421 l 565 -421 l 565 1264 l 663 1264 l 663 471 l 991 471 l 991 372 l 663 372 m 419 1264 l 419 -421 l 321 -421 l 321 1264 l 419 1264 z "},"╠":{"ha":984,"x_min":321,"x_max":991,"o":"m 419 1264 l 419 -421 l 321 -421 l 321 1264 l 419 1264 m 991 593 l 991 494 l 565 494 l 565 1264 l 663 1264 l 663 593 l 991 593 m 663 250 l 663 -421 l 565 -421 l 565 349 l 991 349 l 991 250 l 663 250 z "},"╡":{"ha":984,"x_min":-7,"x_max":541,"o":"m 541 1264 l 541 -421 l 443 -421 l 443 250 l -7 250 l -7 349 l 443 349 l 443 494 l -7 494 l -7 593 l 443 593 l 443 1264 l 541 1264 z "},"╢":{"ha":984,"x_min":-7,"x_max":663,"o":"m 419 1264 l 419 -421 l 321 -421 l 321 372 l -7 372 l -7 471 l 321 471 l 321 1264 l 419 1264 m 663 1264 l 663 -421 l 565 -421 l 565 1264 l 663 1264 z "},"╣":{"ha":984,"x_min":-7,"x_max":663,"o":"m 663 1264 l 663 -421 l 565 -421 l 565 1264 l 663 1264 m 419 1264 l 419 494 l -7 494 l -7 593 l 321 593 l 321 1264 l 419 1264 m 419 349 l 419 -421 l 321 -421 l 321 250 l -7 250 l -7 349 l 419 349 z "},"╤":{"ha":984,"x_min":-7,"x_max":991,"o":"m 991 593 l 991 494 l -7 494 l -7 593 l 991 593 m 541 250 l 541 -421 l 443 -421 l 443 250 l -7 250 l -7 349 l 991 349 l 991 250 l 541 250 z "},"╥":{"ha":984,"x_min":-7,"x_max":991,"o":"m 419 372 l 419 -421 l 321 -421 l 321 372 l -7 372 l -7 471 l 991 471 l 991 372 l 663 372 l 663 -421 l 565 -421 l 565 372 l 419 372 z "},"╦":{"ha":984,"x_min":-7,"x_max":991,"o":"m 991 593 l 991 494 l -7 494 l -7 593 l 991 593 m 419 349 l 419 -421 l 321 -421 l 321 250 l -7 250 l -7 349 l 419 349 m 663 250 l 663 -421 l 565 -421 l 565 349 l 991 349 l 991 250 l 663 250 z "},"╧":{"ha":984,"x_min":-7,"x_max":991,"o":"m 991 593 l 991 494 l -7 494 l -7 593 l 443 593 l 443 1264 l 541 1264 l 541 593 l 991 593 m 991 349 l 991 250 l -7 250 l -7 349 l 991 349 z "},"╨":{"ha":984,"x_min":-7,"x_max":991,"o":"m 991 471 l 991 372 l -7 372 l -7 471 l 321 471 l 321 1264 l 419 1264 l 419 471 l 565 471 l 565 1264 l 663 1264 l 663 471 l 991 471 z "},"╩":{"ha":984,"x_min":-7,"x_max":991,"o":"m 991 593 l 991 494 l 565 494 l 565 1264 l 663 1264 l 663 593 l 991 593 m 419 1264 l 419 494 l -7 494 l -7 593 l 321 593 l 321 1264 l 419 1264 m 991 349 l 991 250 l -7 250 l -7 349 l 991 349 z "},"╪":{"ha":984,"x_min":-7,"x_max":991,"o":"m 541 250 l 541 -421 l 443 -421 l 443 250 l -7 250 l -7 349 l 443 349 l 443 494 l -7 494 l -7 593 l 443 593 l 443 1264 l 541 1264 l 541 593 l 991 593 l 991 494 l 541 494 l 541 349 l 991 349 l 991 250 l 541 250 z "},"╫":{"ha":984,"x_min":-7,"x_max":991,"o":"m 419 372 l 419 -421 l 321 -421 l 321 372 l -7 372 l -7 471 l 321 471 l 321 1264 l 419 1264 l 419 471 l 565 471 l 565 1264 l 663 1264 l 663 471 l 991 471 l 991 372 l 663 372 l 663 -421 l 565 -421 l 565 372 l 419 372 z "},"╬":{"ha":984,"x_min":-7,"x_max":991,"o":"m 991 593 l 991 494 l 565 494 l 565 1264 l 663 1264 l 663 593 l 991 593 m 419 1264 l 419 494 l -7 494 l -7 593 l 321 593 l 321 1264 l 419 1264 m 419 349 l 419 -421 l 321 -421 l 321 250 l -7 250 l -7 349 l 419 349 m 663 250 l 663 -421 l 565 -421 l 565 349 l 991 349 l 991 250 l 663 250 z "},"▀":{"ha":984,"x_min":0,"x_max":984,"o":"m 984 1264 l 984 421 l 0 421 l 0 1264 l 984 1264 z "},"▄":{"ha":984,"x_min":0,"x_max":984,"o":"m 984 421 l 984 -421 l 0 -421 l 0 421 l 984 421 z "},"█":{"ha":984,"x_min":0,"x_max":984,"o":"m 984 1264 l 984 -421 l 0 -421 l 0 1264 l 984 1264 z "},"▌":{"ha":984,"x_min":0,"x_max":492,"o":"m 492 1264 l 492 -421 l 0 -421 l 0 1264 l 492 1264 z "},"▐":{"ha":984,"x_min":492,"x_max":984,"o":"m 984 1264 l 984 -421 l 492 -421 l 492 1264 l 984 1264 z "},"░":{"ha":984,"x_min":70,"x_max":984,"o":"m 984 1152 l 984 1087 l 913 1087 l 913 1152 l 984 1152 m 703 1152 l 703 1087 l 633 1087 l 633 1152 l 703 1152 m 421 1152 l 421 1087 l 351 1087 l 351 1152 l 421 1152 m 140 1152 l 140 1087 l 70 1087 l 70 1152 l 140 1152 m 844 1021 l 844 955 l 773 955 l 773 1021 l 844 1021 m 562 1021 l 562 955 l 492 955 l 492 1021 l 562 1021 m 281 1021 l 281 955 l 210 955 l 210 1021 l 281 1021 m 984 891 l 984 825 l 913 825 l 913 891 l 984 891 m 140 891 l 140 825 l 70 825 l 70 891 l 140 891 m 421 891 l 421 825 l 351 825 l 351 891 l 421 891 m 703 891 l 703 825 l 633 825 l 633 891 l 703 891 m 281 759 l 281 694 l 210 694 l 210 759 l 281 759 m 562 759 l 562 694 l 492 694 l 492 759 l 562 759 m 844 759 l 844 694 l 773 694 l 773 759 l 844 759 m 984 629 l 984 564 l 913 564 l 913 629 l 984 629 m 703 629 l 703 564 l 633 564 l 633 629 l 703 629 m 421 629 l 421 564 l 351 564 l 351 629 l 421 629 m 140 629 l 140 564 l 70 564 l 70 629 l 140 629 m 844 496 l 844 431 l 773 431 l 773 496 l 844 496 m 562 496 l 562 431 l 492 431 l 492 496 l 562 496 m 281 496 l 281 431 l 210 431 l 210 496 l 281 496 m 984 366 l 984 301 l 913 301 l 913 366 l 984 366 m 140 366 l 140 301 l 70 301 l 70 366 l 140 366 m 421 366 l 421 301 l 351 301 l 351 366 l 421 366 m 703 366 l 703 301 l 633 301 l 633 366 l 703 366 m 844 234 l 844 169 l 773 169 l 773 234 l 844 234 m 562 234 l 562 169 l 492 169 l 492 234 l 562 234 m 281 234 l 281 169 l 210 169 l 210 234 l 281 234 m 703 104 l 703 38 l 633 38 l 633 104 l 703 104 m 421 104 l 421 38 l 351 38 l 351 104 l 421 104 m 140 104 l 140 38 l 70 38 l 70 104 l 140 104 m 984 104 l 984 38 l 913 38 l 913 104 l 984 104 m 844 -28 l 844 -92 l 773 -92 l 773 -28 l 844 -28 m 562 -28 l 562 -92 l 492 -92 l 492 -28 l 562 -28 m 281 -28 l 281 -92 l 210 -92 l 210 -28 l 281 -28 m 140 -159 l 140 -224 l 70 -224 l 70 -159 l 140 -159 m 421 -159 l 421 -224 l 351 -224 l 351 -159 l 421 -159 m 703 -159 l 703 -224 l 633 -224 l 633 -159 l 703 -159 m 984 -159 l 984 -224 l 913 -224 l 913 -159 l 984 -159 m 281 -290 l 281 -355 l 210 -355 l 210 -290 l 281 -290 m 562 -290 l 562 -355 l 492 -355 l 492 -290 l 562 -290 m 844 -290 l 844 -355 l 773 -355 l 773 -290 l 844 -290 z "},"▒":{"ha":984,"x_min":0,"x_max":984,"o":"m 984 1152 l 984 1087 l 913 1087 l 913 1152 l 984 1152 m 844 1152 l 844 1087 l 773 1087 l 773 1152 l 844 1152 m 703 1152 l 703 1087 l 633 1087 l 633 1152 l 703 1152 m 562 1152 l 562 1087 l 492 1087 l 492 1152 l 562 1152 m 421 1152 l 421 1087 l 351 1087 l 351 1152 l 421 1152 m 281 1152 l 281 1087 l 210 1087 l 210 1152 l 281 1152 m 140 1152 l 140 1087 l 70 1087 l 70 1152 l 140 1152 m 913 1021 l 913 955 l 844 955 l 844 1021 l 913 1021 m 773 1021 l 773 955 l 703 955 l 703 1021 l 773 1021 m 633 1021 l 633 955 l 562 955 l 562 1021 l 633 1021 m 492 1021 l 492 955 l 421 955 l 421 1021 l 492 1021 m 351 1021 l 351 955 l 281 955 l 281 1021 l 351 1021 m 210 1021 l 210 955 l 140 955 l 140 1021 l 210 1021 m 70 1021 l 70 955 l 0 955 l 0 1021 l 70 1021 m 984 891 l 984 825 l 913 825 l 913 891 l 984 891 m 140 891 l 140 825 l 70 825 l 70 891 l 140 891 m 281 891 l 281 825 l 210 825 l 210 891 l 281 891 m 421 891 l 421 825 l 351 825 l 351 891 l 421 891 m 562 891 l 562 825 l 492 825 l 492 891 l 562 891 m 703 891 l 703 825 l 633 825 l 633 891 l 703 891 m 844 891 l 844 825 l 773 825 l 773 891 l 844 891 m 773 759 l 773 694 l 703 694 l 703 759 l 773 759 m 633 759 l 633 694 l 562 694 l 562 759 l 633 759 m 492 759 l 492 694 l 421 694 l 421 759 l 492 759 m 351 759 l 351 694 l 281 694 l 281 759 l 351 759 m 210 759 l 210 694 l 140 694 l 140 759 l 210 759 m 70 759 l 70 694 l 0 694 l 0 759 l 70 759 m 913 759 l 913 694 l 844 694 l 844 759 l 913 759 m 984 629 l 984 564 l 913 564 l 913 629 l 984 629 m 140 629 l 140 564 l 70 564 l 70 629 l 140 629 m 281 629 l 281 564 l 210 564 l 210 629 l 281 629 m 421 629 l 421 564 l 351 564 l 351 629 l 421 629 m 562 629 l 562 564 l 492 564 l 492 629 l 562 629 m 703 629 l 703 564 l 633 564 l 633 629 l 703 629 m 844 629 l 844 564 l 773 564 l 773 629 l 844 629 m 773 496 l 773 431 l 703 431 l 703 496 l 773 496 m 633 496 l 633 431 l 562 431 l 562 496 l 633 496 m 492 496 l 492 431 l 421 431 l 421 496 l 492 496 m 351 496 l 351 431 l 281 431 l 281 496 l 351 496 m 210 496 l 210 431 l 140 431 l 140 496 l 210 496 m 70 496 l 70 431 l 0 431 l 0 496 l 70 496 m 913 496 l 913 431 l 844 431 l 844 496 l 913 496 m 984 366 l 984 301 l 913 301 l 913 366 l 984 366 m 140 366 l 140 301 l 70 301 l 70 366 l 140 366 m 281 366 l 281 301 l 210 301 l 210 366 l 281 366 m 421 366 l 421 301 l 351 301 l 351 366 l 421 366 m 562 366 l 562 301 l 492 301 l 492 366 l 562 366 m 703 366 l 703 301 l 633 301 l 633 366 l 703 366 m 844 366 l 844 301 l 773 301 l 773 366 l 844 366 m 913 234 l 913 169 l 844 169 l 844 234 l 913 234 m 70 234 l 70 169 l 0 169 l 0 234 l 70 234 m 351 234 l 351 169 l 281 169 l 281 234 l 351 234 m 492 234 l 492 169 l 421 169 l 421 234 l 492 234 m 633 234 l 633 169 l 562 169 l 562 234 l 633 234 m 773 234 l 773 169 l 703 169 l 703 234 l 773 234 m 210 234 l 210 169 l 140 169 l 140 234 l 210 234 m 984 104 l 984 38 l 913 38 l 913 104 l 984 104 m 844 104 l 844 38 l 773 38 l 773 104 l 844 104 m 703 104 l 703 38 l 633 38 l 633 104 l 703 104 m 562 104 l 562 38 l 492 38 l 492 104 l 562 104 m 421 104 l 421 38 l 351 38 l 351 104 l 421 104 m 281 104 l 281 38 l 210 38 l 210 104 l 281 104 m 140 104 l 140 38 l 70 38 l 70 104 l 140 104 m 913 -28 l 913 -92 l 844 -92 l 844 -28 l 913 -28 m 70 -28 l 70 -92 l 0 -92 l 0 -28 l 70 -28 m 210 -28 l 210 -92 l 140 -92 l 140 -28 l 210 -28 m 351 -28 l 351 -92 l 281 -92 l 281 -28 l 351 -28 m 492 -28 l 492 -92 l 421 -92 l 421 -28 l 492 -28 m 633 -28 l 633 -92 l 562 -92 l 562 -28 l 633 -28 m 773 -28 l 773 -92 l 703 -92 l 703 -28 l 773 -28 m 281 -159 l 281 -224 l 210 -224 l 210 -159 l 281 -159 m 140 -159 l 140 -224 l 70 -224 l 70 -159 l 140 -159 m 984 -159 l 984 -224 l 913 -224 l 913 -159 l 984 -159 m 421 -159 l 421 -224 l 351 -224 l 351 -159 l 421 -159 m 562 -159 l 562 -224 l 492 -224 l 492 -159 l 562 -159 m 703 -159 l 703 -224 l 633 -224 l 633 -159 l 703 -159 m 844 -159 l 844 -224 l 773 -224 l 773 -159 l 844 -159 m 773 -290 l 773 -355 l 703 -355 l 703 -290 l 773 -290 m 633 -290 l 633 -355 l 562 -355 l 562 -290 l 633 -290 m 492 -290 l 492 -355 l 421 -355 l 421 -290 l 492 -290 m 351 -290 l 351 -355 l 281 -355 l 281 -290 l 351 -290 m 210 -290 l 210 -355 l 140 -355 l 140 -290 l 210 -290 m 70 -290 l 70 -355 l 0 -355 l 0 -290 l 70 -290 m 913 -290 l 913 -355 l 844 -355 l 844 -290 l 913 -290 z "},"▓":{"ha":1013,"x_min":0,"x_max":1013,"o":"m 1013 -355 l 1013 -421 l 0 -421 l 0 -224 l 72 -224 l 72 -159 l 0 -159 l 0 38 l 72 38 l 72 104 l 0 104 l 0 301 l 72 301 l 72 366 l 0 366 l 0 562 l 72 562 l 72 629 l 0 629 l 0 825 l 72 825 l 72 891 l 0 891 l 0 1087 l 72 1087 l 72 1152 l 144 1152 l 144 1087 l 216 1087 l 216 1152 l 289 1152 l 289 1087 l 361 1087 l 361 1152 l 433 1152 l 433 1087 l 506 1087 l 506 1152 l 578 1152 l 578 1087 l 651 1087 l 651 1152 l 724 1152 l 724 1087 l 795 1087 l 795 1152 l 868 1152 l 868 1087 l 940 1087 l 940 1152 l 1013 1152 l 1013 1021 l 940 1021 l 940 955 l 1013 955 l 1013 759 l 940 759 l 940 694 l 1013 694 l 1013 496 l 940 496 l 940 431 l 1013 431 l 1013 234 l 940 234 l 940 169 l 1013 169 l 1013 -28 l 940 -28 l 940 -92 l 1013 -92 l 1013 -290 l 940 -290 l 940 -355 l 1013 -355 m 651 955 l 724 955 l 724 1021 l 651 1021 l 651 955 m 795 955 l 868 955 l 868 1021 l 795 1021 l 795 955 m 72 955 l 144 955 l 144 1021 l 72 1021 l 72 955 m 216 955 l 289 955 l 289 1021 l 216 1021 l 216 955 m 361 955 l 433 955 l 433 1021 l 361 1021 l 361 955 m 506 955 l 578 955 l 578 1021 l 506 1021 l 506 955 m 724 825 l 795 825 l 795 891 l 724 891 l 724 825 m 868 825 l 940 825 l 940 891 l 868 891 l 868 825 m 144 825 l 216 825 l 216 891 l 144 891 l 144 825 m 289 825 l 361 825 l 361 891 l 289 891 l 289 825 m 433 825 l 506 825 l 506 891 l 433 891 l 433 825 m 578 825 l 651 825 l 651 891 l 578 891 l 578 825 m 72 694 l 144 694 l 144 759 l 72 759 l 72 694 m 216 694 l 289 694 l 289 759 l 216 759 l 216 694 m 795 694 l 868 694 l 868 759 l 795 759 l 795 694 m 651 694 l 724 694 l 724 759 l 651 759 l 651 694 m 361 694 l 433 694 l 433 759 l 361 759 l 361 694 m 506 694 l 578 694 l 578 759 l 506 759 l 506 694 m 433 562 l 506 562 l 506 629 l 433 629 l 433 562 m 578 562 l 651 562 l 651 629 l 578 629 l 578 562 m 868 562 l 940 562 l 940 629 l 868 629 l 868 562 m 724 562 l 795 562 l 795 629 l 724 629 l 724 562 m 144 562 l 216 562 l 216 629 l 144 629 l 144 562 m 289 562 l 361 562 l 361 629 l 289 629 l 289 562 m 795 431 l 868 431 l 868 496 l 795 496 l 795 431 m 651 431 l 724 431 l 724 496 l 651 496 l 651 431 m 216 431 l 289 431 l 289 496 l 216 496 l 216 431 m 72 431 l 144 431 l 144 496 l 72 496 l 72 431 m 361 431 l 433 431 l 433 496 l 361 496 l 361 431 m 506 431 l 578 431 l 578 496 l 506 496 l 506 431 m 868 301 l 940 301 l 940 366 l 868 366 l 868 301 m 724 301 l 795 301 l 795 366 l 724 366 l 724 301 m 144 301 l 216 301 l 216 366 l 144 366 l 144 301 m 289 301 l 361 301 l 361 366 l 289 366 l 289 301 m 433 301 l 506 301 l 506 366 l 433 366 l 433 301 m 578 301 l 651 301 l 651 366 l 578 366 l 578 301 m 216 169 l 289 169 l 289 234 l 216 234 l 216 169 m 506 169 l 578 169 l 578 234 l 506 234 l 506 169 m 795 169 l 868 169 l 868 234 l 795 234 l 795 169 m 651 169 l 724 169 l 724 234 l 651 234 l 651 169 m 361 169 l 433 169 l 433 234 l 361 234 l 361 169 m 72 169 l 144 169 l 144 234 l 72 234 l 72 169 m 724 38 l 795 38 l 795 104 l 724 104 l 724 38 m 868 38 l 940 38 l 940 104 l 868 104 l 868 38 m 433 38 l 506 38 l 506 104 l 433 104 l 433 38 m 578 38 l 651 38 l 651 104 l 578 104 l 578 38 m 289 38 l 361 38 l 361 104 l 289 104 l 289 38 m 144 38 l 216 38 l 216 104 l 144 104 l 144 38 m 216 -92 l 289 -92 l 289 -28 l 216 -28 l 216 -92 m 72 -92 l 144 -92 l 144 -28 l 72 -28 l 72 -92 m 361 -92 l 433 -92 l 433 -28 l 361 -28 l 361 -92 m 506 -92 l 578 -92 l 578 -28 l 506 -28 l 506 -92 m 651 -92 l 724 -92 l 724 -28 l 651 -28 l 651 -92 m 795 -92 l 868 -92 l 868 -28 l 795 -28 l 795 -92 m 578 -224 l 651 -224 l 651 -159 l 578 -159 l 578 -224 m 433 -224 l 506 -224 l 506 -159 l 433 -159 l 433 -224 m 289 -224 l 361 -224 l 361 -159 l 289 -159 l 289 -224 m 144 -224 l 216 -224 l 216 -159 l 144 -159 l 144 -224 m 868 -224 l 940 -224 l 940 -159 l 868 -159 l 868 -224 m 724 -224 l 795 -224 l 795 -159 l 724 -159 l 724 -224 m 795 -355 l 868 -355 l 868 -290 l 795 -290 l 795 -355 m 651 -355 l 724 -355 l 724 -290 l 651 -290 l 651 -355 m 506 -355 l 578 -355 l 578 -290 l 506 -290 l 506 -355 m 361 -355 l 433 -355 l 433 -290 l 361 -290 l 361 -355 m 72 -355 l 144 -355 l 144 -290 l 72 -290 l 72 -355 m 216 -355 l 289 -355 l 289 -290 l 216 -290 l 216 -355 z "},"■":{"ha":839,"x_min":83,"x_max":755,"o":"m 755 751 l 755 79 l 83 79 l 83 751 l 755 751 z "},"▬":{"ha":1389,"x_min":0,"x_max":1389,"o":"m 1389 418 l 1389 0 l 0 0 l 0 418 l 1389 418 z "},"▲":{"ha":1375,"x_min":281,"x_max":1093,"o":"m 688 812 l 1093 0 l 281 0 l 688 812 z "},"►":{"ha":1375,"x_min":272,"x_max":1103,"o":"m 1103 397 l 272 -18 l 272 811 l 1103 397 z "},"▼":{"ha":1375,"x_min":281,"x_max":1093,"o":"m 1093 794 l 688 -18 l 281 794 l 1093 794 z "},"◄":{"ha":1375,"x_min":272,"x_max":1103,"o":"m 1103 811 l 1103 -18 l 272 397 l 1103 811 z "},"○":{"ha":839,"x_min":113,"x_max":726,"o":"m 113 415 q 154 569 113 498 q 266 681 195 640 q 418 722 336 722 q 572 682 501 722 q 685 569 644 640 q 726 415 726 497 q 685 262 726 333 q 573 151 644 191 q 418 110 502 110 q 265 151 336 110 q 154 262 195 191 q 113 415 113 332 m 172 415 q 205 292 172 348 q 295 201 238 234 q 418 168 351 168 q 543 201 485 168 q 633 291 600 233 q 667 415 667 349 q 634 540 667 482 q 543 631 601 598 q 418 664 485 664 q 296 631 352 664 q 205 540 238 597 q 172 415 172 483 z "},"◘":{"ha":839,"x_min":28,"x_max":811,"o":"m 811 783 l 811 0 l 28 0 l 28 783 l 811 783 m 119 391 q 159 242 119 312 q 268 133 199 173 q 418 93 337 93 q 568 133 497 93 q 677 242 637 173 q 717 391 717 312 q 677 541 717 471 q 568 650 637 610 q 418 690 498 690 q 269 650 338 690 q 159 541 199 610 q 119 391 119 471 z "},"◙":{"ha":839,"x_min":28,"x_max":811,"o":"m 811 783 l 811 0 l 28 0 l 28 783 l 811 783 m 119 391 q 159 242 119 312 q 268 133 199 173 q 418 93 337 93 q 568 133 497 93 q 677 242 637 173 q 717 391 717 312 q 677 541 717 471 q 568 650 637 610 q 418 690 498 690 q 269 650 338 690 q 159 541 199 610 q 119 391 119 471 m 172 391 q 205 515 172 457 q 296 606 238 572 q 419 639 353 639 q 543 606 485 639 q 633 515 600 572 q 667 391 667 457 q 633 268 667 326 q 543 177 600 210 q 419 144 485 144 q 296 177 353 144 q 205 268 238 210 q 172 391 172 326 z "},"☺":{"ha":1418,"x_min":294,"x_max":1124,"o":"m 1124 396 q 1091 235 1124 310 q 1002 103 1059 159 q 869 14 945 46 q 709 -18 794 -18 q 548 14 623 -18 q 416 103 473 46 q 326 235 359 160 q 294 396 294 311 q 326 556 294 481 q 414 688 357 631 q 546 779 471 746 q 709 811 621 811 q 872 778 796 811 q 1004 688 947 745 q 1092 556 1061 631 q 1124 396 1124 481 m 1063 396 q 1015 575 1063 494 q 887 703 967 655 q 709 751 806 751 q 458 647 561 751 q 355 396 355 543 q 402 218 355 298 q 531 90 450 138 q 709 41 611 42 q 887 90 807 41 q 1015 218 967 138 q 1063 396 1063 299 m 603 482 q 587 445 603 460 q 550 429 572 429 q 513 445 528 429 q 498 482 498 460 q 513 519 498 504 q 550 534 528 534 q 587 519 572 534 q 603 482 603 504 m 920 482 q 905 445 920 460 q 868 429 890 429 q 830 445 846 429 q 814 482 814 460 q 830 519 814 504 q 868 534 846 534 q 905 519 890 534 q 920 482 920 504 m 557 286 q 709 193 610 193 q 859 286 806 193 l 901 262 q 709 136 835 136 q 517 262 583 136 l 557 286 z "},"☻":{"ha":1461,"x_min":315,"x_max":1145,"o":"m 1145 396 q 1113 235 1145 310 q 1023 103 1080 159 q 891 14 966 46 q 730 -18 816 -18 q 570 14 645 -18 q 437 103 494 46 q 348 235 380 160 q 315 396 315 311 q 347 556 315 481 q 436 688 379 631 q 568 779 492 746 q 730 811 643 811 q 893 778 818 811 q 1026 688 969 745 q 1114 556 1082 631 q 1145 396 1145 481 m 625 482 q 609 519 625 504 q 572 534 593 534 q 535 519 550 534 q 519 482 519 504 q 535 445 519 460 q 572 429 550 429 q 609 445 593 429 q 625 482 625 460 m 941 482 q 926 519 941 504 q 890 534 911 534 q 852 519 868 534 q 836 482 836 504 q 852 445 836 460 q 890 429 868 429 q 926 445 911 429 q 941 482 941 460 m 538 262 q 730 136 605 136 q 922 262 857 136 l 880 286 q 730 193 828 193 q 579 286 631 193 l 538 262 z "},"☼":{"ha":1273,"x_min":221,"x_max":1051,"o":"m 659 52 l 659 -96 l 614 -96 l 614 52 q 464 113 532 62 l 336 -9 l 307 21 l 431 146 q 367 298 378 214 l 221 298 l 221 340 l 367 340 q 429 492 375 427 l 307 616 l 334 650 l 463 526 q 614 587 536 578 l 614 734 l 659 734 l 659 587 q 737 570 703 583 q 811 526 770 557 l 937 650 l 968 619 l 843 494 q 905 339 901 418 l 1051 339 l 1051 297 l 905 297 q 843 147 895 213 l 968 20 l 935 -9 l 811 114 q 744 74 775 88 q 659 52 713 60 m 635 546 q 521 515 572 546 q 440 432 470 484 q 410 319 410 381 q 440 207 410 258 q 522 125 471 156 q 635 94 573 94 q 750 125 699 94 q 831 207 801 155 q 861 319 861 258 q 831 432 861 381 q 749 515 800 484 q 635 546 697 546 z "},"♀":{"ha":1042,"x_min":321,"x_max":720,"o":"m 496 392 q 409 425 446 399 q 349 492 372 451 q 326 585 326 534 q 354 686 326 642 q 426 756 381 731 q 522 782 470 782 q 658 724 602 782 q 716 585 716 667 q 694 494 716 536 q 633 425 671 452 q 547 392 595 398 l 547 279 l 720 279 l 720 232 l 547 232 l 547 54 l 496 54 l 496 232 l 321 232 l 321 279 l 496 279 l 496 392 m 520 725 q 451 707 483 725 q 400 657 420 689 q 381 586 381 625 q 423 487 381 528 q 520 446 465 446 q 619 488 579 446 q 661 586 661 529 q 642 658 661 626 q 520 725 601 725 z "},"♂":{"ha":1042,"x_min":229,"x_max":813,"o":"m 694 694 q 565 753 593 724 q 559 765 559 756 q 564 777 559 770 q 573 779 567 779 l 595 777 q 682 765 643 765 q 769 774 743 765 q 802 782 793 782 q 813 772 813 782 l 809 754 q 798 647 798 715 q 806 559 798 594 l 809 538 q 806 528 809 531 l 797 524 q 772 546 784 524 q 747 598 759 568 q 726 663 734 629 l 565 501 q 622 372 622 446 q 594 270 622 316 q 522 197 567 224 q 425 170 477 170 q 328 195 372 170 q 256 264 283 220 q 229 363 229 308 q 255 462 229 417 q 326 533 281 507 q 426 559 371 559 q 530 530 475 559 l 694 694 m 426 509 q 323 467 366 509 q 281 366 281 426 q 324 261 281 301 q 426 221 367 221 q 528 263 486 221 q 569 366 569 306 q 527 467 569 425 q 426 509 485 509 z "},"♠":{"ha":738,"x_min":40,"x_max":698,"o":"m 369 835 q 397 753 380 791 q 450 669 414 714 q 553 561 486 624 q 673 431 650 475 q 698 338 697 385 q 654 229 698 273 q 551 186 610 186 q 377 315 444 186 q 406 151 379 206 q 488 63 433 95 q 633 25 543 31 l 638 0 l 101 0 l 105 25 q 248 58 190 25 q 335 149 306 91 q 365 306 365 208 l 365 315 q 189 186 304 186 q 84 229 128 186 q 40 335 40 273 q 70 441 40 395 q 168 543 100 488 q 271 642 231 597 q 334 733 311 687 q 369 835 357 779 z "},"♣":{"ha":911,"x_min":41,"x_max":871,"o":"m 736 24 l 742 0 l 171 0 l 176 24 q 274 47 237 36 q 335 76 311 59 q 381 119 359 92 q 431 211 413 160 q 449 313 449 261 l 448 345 q 349 223 409 263 q 228 183 288 183 q 132 209 176 183 q 41 372 41 263 q 64 466 41 425 q 124 533 87 508 q 203 558 161 558 q 313 524 245 558 q 290 563 300 545 q 275 595 281 581 q 268 646 268 621 q 293 742 268 701 q 361 806 319 783 q 454 829 404 829 q 550 804 507 829 q 617 738 592 779 q 642 648 642 697 q 595 524 642 590 q 663 553 651 551 q 704 558 679 558 q 821 505 776 558 q 871 375 871 454 q 847 279 871 323 q 781 210 823 236 q 686 184 739 184 q 608 201 647 184 q 536 245 568 218 q 463 345 504 273 q 483 207 466 259 q 536 115 499 155 q 616 56 573 74 q 736 24 659 38 z "},"♥":{"ha":825,"x_min":69,"x_max":755,"o":"m 414 -16 q 368 104 398 44 q 218 326 337 167 l 157 410 q 87 521 106 477 q 69 610 69 565 q 116 729 69 682 q 232 775 163 775 q 339 736 291 775 q 414 616 388 698 q 485 737 437 697 q 593 777 533 777 q 674 755 637 777 q 733 699 711 734 q 755 618 755 663 q 726 495 755 559 q 621 338 696 431 q 518 200 557 257 q 454 93 478 142 q 414 -16 430 43 z "},"♦":{"ha":709,"x_min":45,"x_max":663,"o":"m 352 829 q 437 698 385 773 q 549 546 489 623 q 663 407 608 469 q 600 333 640 383 q 513 221 559 283 q 425 96 467 159 q 353 -17 382 33 q 319 41 340 7 q 266 120 297 76 q 153 273 203 209 q 45 407 102 338 q 155 543 98 469 q 265 691 213 616 q 352 829 317 766 z "},"♪":{"ha":694,"x_min":133,"x_max":561,"o":"m 383 205 q 333 71 383 122 q 211 20 283 20 q 153 38 172 20 q 133 87 133 56 q 153 152 133 123 q 204 200 172 182 q 271 218 235 218 q 332 205 301 218 l 332 782 l 383 782 l 383 714 l 487 583 q 561 368 561 484 q 497 184 561 267 l 465 184 q 504 353 504 271 q 486 449 504 407 q 440 518 467 492 q 383 549 412 544 l 383 205 z "},"♫":{"ha":1042,"x_min":184,"x_max":857,"o":"m 857 220 q 838 129 857 167 q 778 62 820 90 q 687 33 736 33 q 610 102 610 33 q 651 194 610 157 q 745 232 692 232 q 806 220 778 232 l 806 524 l 433 422 l 433 155 q 387 23 433 76 q 262 -29 340 -29 q 204 -11 224 -29 q 184 37 184 7 q 204 102 184 72 q 255 151 224 132 q 322 168 287 170 q 383 155 353 168 l 383 665 l 857 786 l 857 220 m 433 586 l 433 509 l 806 610 l 806 689 l 433 586 z "},"Ĳ":{"ha":1090,"x_min":93,"x_max":995,"o":"m 293 956 l 293 0 l 93 0 l 93 956 l 293 956 m 673 -14 q 445 51 524 -14 q 338 259 365 115 l 537 288 q 583 179 549 214 q 674 143 616 143 q 765 183 734 143 q 795 298 795 223 l 795 799 l 605 799 l 605 956 l 995 956 l 995 302 q 910 70 995 153 q 673 -14 825 -14 z "},"ĳ":{"ha":772,"x_min":97,"x_max":674,"o":"m 288 1006 l 288 866 l 97 866 l 97 1006 l 288 1006 m 288 734 l 288 0 l 97 0 l 97 734 l 288 734 m 674 1006 l 674 866 l 484 866 l 484 1006 l 674 1006 m 479 -288 q 364 -282 412 -288 l 364 -148 q 381 -150 373 -149 q 399 -151 390 -151 q 466 -129 448 -151 q 484 -41 484 -108 l 484 734 l 674 734 l 674 -87 q 625 -236 674 -184 q 479 -288 576 -288 z "},"ŉ":{"ha":984,"x_min":-15,"x_max":898,"o":"m 423 393 l 423 0 l 233 0 l 233 570 q 231 666 233 629 q 227 734 229 704 l 409 734 q 412 695 410 726 q 416 634 414 665 q 418 588 418 602 l 420 588 q 517 710 459 672 q 656 748 576 748 q 836 676 773 748 q 898 466 898 604 l 898 0 l 708 0 l 708 412 q 675 557 708 509 q 577 605 643 605 q 466 546 508 605 q 423 393 423 486 m 182 823 q 166 681 182 741 q 109 564 149 621 l -15 564 q 74 779 74 678 l -12 779 l -12 956 l 182 956 l 182 823 z "},"′":{"ha":333,"x_min":58,"x_max":309,"o":"m 309 956 l 201 604 l 58 604 l 101 956 l 309 956 z "},"″":{"ha":665,"x_min":58,"x_max":640,"o":"m 309 956 l 201 604 l 58 604 l 101 956 l 309 956 m 640 956 l 533 604 l 389 604 l 433 956 l 640 956 z "},"℅":{"ha":1230,"x_min":37,"x_max":1193,"o":"m 284 356 q 100 435 163 356 q 37 662 37 513 q 100 887 37 808 q 282 966 163 966 q 429 919 371 966 q 503 779 486 872 l 375 771 q 347 839 370 814 q 285 865 325 865 q 204 816 227 865 q 180 669 180 768 q 204 517 180 566 q 285 468 228 468 q 349 494 326 468 q 377 566 372 520 l 505 559 q 433 410 493 464 q 284 356 373 356 m 998 956 l 372 0 l 232 0 l 856 956 l 998 956 m 1193 293 q 1132 67 1193 145 q 953 -11 1071 -11 q 773 66 833 -11 q 713 293 713 144 q 771 521 713 445 q 956 597 829 597 q 1135 520 1078 597 q 1193 293 1193 444 m 1047 293 q 1026 447 1047 401 q 956 493 1006 493 q 881 446 901 493 q 860 293 860 399 q 882 140 860 184 q 954 96 904 96 q 1025 142 1004 96 q 1047 293 1047 189 z "},"ℓ":{"ha":679,"x_min":28,"x_max":629,"o":"m 395 132 q 478 168 449 132 q 522 277 507 204 l 621 277 q 523 59 593 132 q 340 -14 452 -14 q 171 43 225 -14 q 117 210 117 100 l 117 323 q 73 307 95 315 q 28 290 50 298 l 28 422 q 73 439 50 431 q 118 455 96 447 l 117 720 q 189 905 117 842 q 389 969 260 969 q 566 917 503 969 q 629 768 629 864 q 545 541 629 637 q 307 392 460 445 l 307 256 q 329 163 307 194 q 395 132 351 132 m 467 751 q 449 826 467 798 q 392 854 431 854 q 333 829 353 854 q 313 754 313 804 l 313 526 q 426 616 385 555 q 467 751 467 677 z "},"□":{"ha":839,"x_min":4,"x_max":835,"o":"m 835 831 l 835 0 l 4 0 l 4 831 l 835 831 m 56 52 l 783 52 l 783 779 l 56 779 l 56 52 z "},"▪":{"ha":492,"x_min":74,"x_max":418,"o":"m 418 604 l 418 260 l 74 260 l 74 604 l 418 604 z "},"▫":{"ha":492,"x_min":74,"x_max":418,"o":"m 418 604 l 418 260 l 74 260 l 74 604 l 418 604 m 125 311 l 367 311 l 367 551 l 125 551 l 125 311 z "},"●":{"ha":839,"x_min":121,"x_max":718,"o":"m 419 690 q 568 651 494 690 q 650 583 616 625 q 701 490 684 540 q 718 392 718 440 q 678 241 718 309 q 570 133 637 174 q 419 93 502 93 q 269 133 337 93 q 161 242 201 174 q 121 392 121 310 q 159 538 121 465 q 269 650 197 610 q 419 690 342 690 z "},"◦":{"ha":492,"x_min":78,"x_max":414,"o":"m 414 432 q 391 346 414 384 q 329 286 367 307 q 246 264 290 264 q 162 286 200 264 q 101 347 124 308 q 78 432 78 385 q 101 517 78 479 q 162 577 124 555 q 246 600 201 600 q 364 550 316 600 q 414 432 414 502 m 363 432 q 328 514 363 479 q 246 549 294 549 q 164 514 199 549 q 130 432 130 479 q 163 350 130 384 q 246 315 196 315 q 331 351 298 315 q 363 432 363 387 z "},"Ā":{"ha":1003,"x_min":35,"x_max":966,"o":"m 319 244 l 235 0 l 35 0 l 383 956 l 619 956 l 966 0 l 768 0 l 684 244 l 319 244 m 501 808 q 482 743 494 781 q 465 690 470 705 l 364 395 l 639 395 l 536 696 q 518 752 526 724 q 501 808 510 781 m 293 1156 l 708 1156 l 708 1042 l 293 1042 l 293 1156 z "},"ā":{"ha":772,"x_min":41,"x_max":781,"o":"m 267 -14 q 100 44 160 -14 q 41 208 41 102 q 115 380 41 321 q 330 442 189 439 l 488 445 l 488 482 q 463 589 488 554 q 381 624 438 624 q 303 600 328 624 q 273 520 279 576 l 74 530 q 389 747 111 747 q 604 679 528 747 q 679 484 679 610 l 679 217 q 693 132 679 155 q 739 109 707 109 q 781 113 761 109 l 781 9 q 721 -4 746 1 q 659 -8 696 -8 q 553 27 587 -8 q 512 131 519 62 l 508 131 q 408 23 468 59 q 267 -14 347 -14 m 488 340 l 391 338 q 296 324 323 335 q 254 288 269 312 q 239 222 239 263 q 263 145 239 170 q 328 119 288 119 q 410 144 372 119 q 467 211 446 168 q 488 302 488 254 l 488 340 m 189 930 l 604 930 l 604 816 l 189 816 l 189 930 z "},"Ĉ":{"ha":1003,"x_min":57,"x_max":965,"o":"m 539 144 q 791 326 721 144 l 965 260 q 800 54 909 121 q 539 -14 691 -14 q 278 45 386 -14 q 114 215 170 104 q 57 482 57 326 q 111 748 57 640 q 271 913 165 857 q 530 970 377 970 q 804 902 699 970 q 953 704 910 835 l 777 656 q 689 770 754 728 q 534 812 623 812 q 329 728 399 812 q 258 482 258 644 q 291 297 258 372 q 386 183 323 222 q 539 144 448 144 m 294 1038 l 294 1057 l 469 1244 l 624 1244 l 793 1057 l 793 1038 l 686 1038 l 548 1140 l 545 1140 l 402 1038 l 294 1038 z "},"ĉ":{"ha":772,"x_min":54,"x_max":732,"o":"m 403 -14 q 145 86 236 -14 q 54 363 54 185 q 146 646 54 545 q 406 747 237 747 q 620 682 535 747 q 726 503 705 617 l 534 493 q 494 583 526 549 q 401 616 461 616 q 291 555 328 616 q 254 370 254 494 q 292 180 254 243 q 404 117 330 117 q 495 151 458 117 q 541 253 532 185 l 732 244 q 677 109 722 167 q 562 19 633 51 q 403 -14 492 -14 m 156 802 l 156 821 l 331 1037 l 486 1037 l 656 821 l 656 802 l 548 802 l 410 932 l 408 932 l 264 802 l 156 802 z "},"Ċ":{"ha":1003,"x_min":57,"x_max":965,"o":"m 539 144 q 791 326 721 144 l 965 260 q 800 54 909 121 q 539 -14 691 -14 q 278 45 386 -14 q 114 215 170 104 q 57 482 57 326 q 111 748 57 640 q 271 913 165 857 q 530 970 377 970 q 804 902 699 970 q 953 704 910 835 l 777 656 q 689 770 754 728 q 534 812 623 812 q 329 728 399 812 q 258 482 258 644 q 291 297 258 372 q 386 183 323 222 q 539 144 448 144 m 629 1190 l 629 1049 l 438 1049 l 438 1190 l 629 1190 z "},"ċ":{"ha":772,"x_min":54,"x_max":732,"o":"m 403 -14 q 145 86 236 -14 q 54 363 54 185 q 146 646 54 545 q 406 747 237 747 q 620 682 535 747 q 726 503 705 617 l 534 493 q 494 583 526 549 q 401 616 461 616 q 291 555 328 616 q 254 370 254 494 q 292 180 254 243 q 404 117 330 117 q 495 151 458 117 q 541 253 532 185 l 732 244 q 677 109 722 167 q 562 19 633 51 q 403 -14 492 -14 m 503 1006 l 503 866 l 312 866 l 312 1006 l 503 1006 z "},"Ē":{"ha":926,"x_min":93,"x_max":872,"o":"m 872 155 l 872 0 l 93 0 l 93 956 l 844 956 l 844 801 l 293 801 l 293 561 l 803 561 l 803 406 l 293 406 l 293 155 l 872 155 m 262 1156 l 677 1156 l 677 1042 l 262 1042 l 262 1156 z "},"ē":{"ha":772,"x_min":54,"x_max":725,"o":"m 254 330 q 294 169 254 223 q 407 114 334 114 q 489 136 457 114 q 534 201 522 158 l 714 186 q 397 -14 636 -14 q 143 84 232 -14 q 54 370 54 182 q 144 650 54 552 q 400 747 235 747 q 642 643 558 747 q 725 336 725 538 l 725 330 l 254 330 m 541 450 q 498 583 535 538 q 397 627 460 627 q 294 581 330 627 q 256 450 258 534 l 541 450 m 191 930 l 606 930 l 606 816 l 191 816 l 191 930 z "},"Ĕ":{"ha":926,"x_min":93,"x_max":872,"o":"m 872 155 l 872 0 l 93 0 l 93 956 l 844 956 l 844 801 l 293 801 l 293 561 l 803 561 l 803 406 l 293 406 l 293 155 l 872 155 m 475 1031 q 310 1086 376 1031 q 236 1226 243 1141 l 347 1226 q 393 1159 357 1184 q 476 1134 429 1134 q 560 1159 525 1134 q 605 1226 595 1183 l 716 1226 q 638 1083 703 1136 q 475 1031 574 1031 z "},"ĕ":{"ha":772,"x_min":54,"x_max":725,"o":"m 254 330 q 294 169 254 223 q 407 114 334 114 q 489 136 457 114 q 534 201 522 158 l 714 186 q 397 -14 636 -14 q 143 84 232 -14 q 54 370 54 182 q 144 650 54 552 q 400 747 235 747 q 642 643 558 747 q 725 336 725 538 l 725 330 l 254 330 m 541 450 q 498 583 535 538 q 397 627 460 627 q 294 581 330 627 q 256 450 258 534 l 541 450 m 385 802 q 218 864 283 802 q 146 1021 153 926 l 256 1021 q 302 939 267 969 q 386 909 338 909 q 470 938 434 909 q 515 1021 505 968 l 626 1021 q 551 862 614 921 q 385 802 489 802 z "},"Ė":{"ha":926,"x_min":93,"x_max":872,"o":"m 872 155 l 872 0 l 93 0 l 93 956 l 844 956 l 844 801 l 293 801 l 293 561 l 803 561 l 803 406 l 293 406 l 293 155 l 872 155 m 574 1190 l 574 1049 l 383 1049 l 383 1190 l 574 1190 z "},"ė":{"ha":772,"x_min":54,"x_max":725,"o":"m 254 330 q 294 169 254 223 q 407 114 334 114 q 489 136 457 114 q 534 201 522 158 l 714 186 q 397 -14 636 -14 q 143 84 232 -14 q 54 370 54 182 q 144 650 54 552 q 400 747 235 747 q 642 643 558 747 q 725 336 725 538 l 725 330 l 254 330 m 541 450 q 498 583 535 538 q 397 627 460 627 q 294 581 330 627 q 256 450 258 534 l 541 450 m 490 1006 l 490 866 l 299 866 l 299 1006 l 490 1006 z "},"Ĝ":{"ha":1080,"x_min":57,"x_max":994,"o":"m 547 143 q 698 166 625 143 q 811 224 771 189 l 811 356 l 578 356 l 578 504 l 994 504 l 994 153 q 797 31 918 75 q 541 -14 675 -14 q 278 44 386 -14 q 113 213 170 102 q 57 482 57 324 q 183 844 57 718 q 546 970 309 970 q 821 908 714 970 q 974 721 928 846 l 789 665 q 696 775 760 738 q 546 812 632 812 q 332 727 405 812 q 258 482 258 642 q 334 232 258 320 q 547 143 410 143 m 290 1038 l 290 1057 l 465 1244 l 621 1244 l 790 1057 l 790 1038 l 682 1038 l 545 1140 l 542 1140 l 399 1038 l 290 1038 z "},"ĝ":{"ha":848,"x_min":57,"x_max":755,"o":"m 404 -294 q 188 -243 270 -294 q 87 -97 106 -192 l 278 -75 q 322 -144 288 -119 q 410 -169 355 -169 q 526 -120 489 -169 q 562 25 562 -71 l 564 136 l 562 136 q 472 35 531 68 q 326 1 413 1 q 127 98 198 1 q 57 373 57 194 q 130 650 57 553 q 340 748 202 748 q 476 715 420 748 q 562 616 531 682 l 566 616 q 567 656 566 632 q 571 703 568 681 q 575 734 573 726 l 755 734 q 751 564 751 661 l 751 22 q 663 -214 751 -134 q 404 -294 574 -294 m 564 377 q 523 554 564 490 q 408 617 483 617 q 294 556 332 617 q 256 373 256 495 q 293 194 256 254 q 407 134 331 134 q 523 197 483 134 q 564 377 564 260 m 158 802 l 158 821 l 333 1037 l 488 1037 l 658 821 l 658 802 l 550 802 l 412 932 l 410 932 l 267 802 l 158 802 z "},"Ġ":{"ha":1080,"x_min":57,"x_max":994,"o":"m 547 143 q 698 166 625 143 q 811 224 771 189 l 811 356 l 578 356 l 578 504 l 994 504 l 994 153 q 797 31 918 75 q 541 -14 675 -14 q 278 44 386 -14 q 113 213 170 102 q 57 482 57 324 q 183 844 57 718 q 546 970 309 970 q 821 908 714 970 q 974 721 928 846 l 789 665 q 696 775 760 738 q 546 812 632 812 q 332 727 405 812 q 258 482 258 642 q 334 232 258 320 q 547 143 410 143 m 643 1190 l 643 1049 l 452 1049 l 452 1190 l 643 1190 z "},"ġ":{"ha":848,"x_min":57,"x_max":755,"o":"m 404 -294 q 188 -243 270 -294 q 87 -97 106 -192 l 278 -75 q 322 -144 288 -119 q 410 -169 355 -169 q 526 -120 489 -169 q 562 25 562 -71 l 564 136 l 562 136 q 472 35 531 68 q 326 1 413 1 q 127 98 198 1 q 57 373 57 194 q 130 650 57 553 q 340 748 202 748 q 476 715 420 748 q 562 616 531 682 l 566 616 q 567 656 566 632 q 571 703 568 681 q 575 734 573 726 l 755 734 q 751 564 751 661 l 751 22 q 663 -214 751 -134 q 404 -294 574 -294 m 564 377 q 523 554 564 490 q 408 617 483 617 q 294 556 332 617 q 256 373 256 495 q 293 194 256 254 q 407 134 331 134 q 523 197 483 134 q 564 377 564 260 m 519 1006 l 519 866 l 329 866 l 329 1006 l 519 1006 z "},"Ģ":{"ha":1080,"x_min":57,"x_max":994,"o":"m 547 143 q 698 166 625 143 q 811 224 771 189 l 811 356 l 578 356 l 578 504 l 994 504 l 994 153 q 797 31 918 75 q 541 -14 675 -14 q 278 44 386 -14 q 113 213 170 102 q 57 482 57 324 q 183 844 57 718 q 546 970 309 970 q 821 908 714 970 q 974 721 928 846 l 789 665 q 696 775 760 738 q 546 812 632 812 q 332 727 405 812 q 258 482 258 642 q 334 232 258 320 q 547 143 410 143 m 636 -138 q 622 -228 636 -188 q 572 -309 607 -267 l 479 -309 q 527 -246 511 -275 q 543 -193 543 -217 l 470 -193 l 470 -53 l 636 -53 l 636 -138 z "},"ģ":{"ha":848,"x_min":57,"x_max":755,"o":"m 404 -294 q 188 -243 270 -294 q 87 -97 106 -192 l 278 -75 q 322 -144 288 -119 q 410 -169 355 -169 q 526 -120 489 -169 q 562 25 562 -71 l 564 136 l 562 136 q 472 35 531 68 q 326 1 413 1 q 127 98 198 1 q 57 373 57 194 q 130 650 57 553 q 340 748 202 748 q 476 715 420 748 q 562 616 531 682 l 566 616 q 567 656 566 632 q 571 703 568 681 q 575 734 573 726 l 755 734 q 751 564 751 661 l 751 22 q 663 -214 751 -134 q 404 -294 574 -294 m 564 377 q 523 554 564 490 q 408 617 483 617 q 294 556 332 617 q 256 373 256 495 q 293 194 256 254 q 407 134 331 134 q 523 197 483 134 q 564 377 564 260 m 336 921 q 351 1020 336 980 q 393 1091 366 1059 l 493 1091 q 429 962 429 1023 l 503 962 l 503 822 l 336 822 l 336 921 z "},"Ĥ":{"ha":1003,"x_min":93,"x_max":909,"o":"m 293 410 l 293 0 l 93 0 l 93 956 l 293 956 l 293 575 l 709 575 l 709 956 l 909 956 l 909 0 l 709 0 l 709 410 l 293 410 m 255 1038 l 255 1057 l 430 1244 l 585 1244 l 755 1057 l 755 1038 l 647 1038 l 509 1140 l 507 1140 l 363 1038 l 255 1038 z "},"ĥ":{"ha":848,"x_min":97,"x_max":762,"o":"m 285 587 q 382 709 323 671 q 521 747 440 747 q 700 675 637 747 q 762 465 762 604 l 762 0 l 572 0 l 572 411 q 540 556 572 508 q 441 604 507 604 q 330 545 372 604 q 288 393 288 486 l 288 0 l 97 0 l 97 1006 l 288 1006 l 288 732 q 287 683 288 707 q 285 635 286 659 q 282 587 284 611 l 285 587 m 186 1091 l 186 1111 l 361 1298 l 517 1298 l 686 1111 l 686 1091 l 578 1091 l 441 1194 l 438 1194 l 295 1091 l 186 1091 z "},"Ħ":{"ha":1003,"x_min":9,"x_max":994,"o":"m 293 410 l 293 0 l 93 0 l 93 709 l 9 709 l 9 824 l 93 824 l 93 956 l 293 956 l 293 824 l 717 824 l 717 956 l 909 956 l 909 824 l 994 824 l 994 709 l 909 709 l 909 0 l 717 0 l 717 410 l 293 410 m 293 575 l 717 575 l 717 709 l 293 709 l 293 575 z "},"ħ":{"ha":848,"x_min":7,"x_max":762,"o":"m 285 560 q 382 682 323 644 q 521 720 440 720 q 700 648 637 720 q 762 438 762 576 l 762 0 l 572 0 l 572 384 q 540 529 572 481 q 441 577 507 577 q 330 518 372 577 q 288 366 288 458 l 288 0 l 97 0 l 97 797 l 7 797 l 7 912 l 97 912 l 97 1006 l 288 1006 l 288 912 l 495 912 l 495 797 l 288 797 l 288 705 q 287 656 288 680 q 285 608 286 631 q 282 560 284 584 l 285 560 z "},"Ĩ":{"ha":386,"x_min":-70,"x_max":459,"o":"m 293 956 l 293 0 l 93 0 l 93 956 l 293 956 m 308 1038 q 249 1052 279 1038 q 189 1081 218 1065 q 136 1109 161 1097 q 90 1121 111 1121 q 47 1105 62 1121 q 23 1038 33 1090 l -70 1038 q -23 1194 -62 1151 q 83 1236 17 1236 q 140 1223 111 1236 q 199 1195 170 1211 q 254 1166 228 1179 q 300 1153 279 1153 q 343 1170 328 1153 q 368 1236 358 1186 l 459 1236 q 416 1084 454 1130 q 308 1038 378 1038 z "},"ĩ":{"ha":386,"x_min":-70,"x_max":459,"o":"m 289 734 l 289 0 l 98 0 l 98 734 l 289 734 m 308 802 q 254 814 281 802 q 198 841 226 826 q 140 871 168 857 q 90 886 113 886 q 47 870 62 886 q 23 802 33 854 l -70 802 q -23 960 -62 919 q 83 1001 17 1001 q 145 986 113 1001 q 208 955 177 972 q 258 929 234 940 q 300 918 281 918 q 343 934 328 918 q 368 1001 358 951 l 459 1001 q 416 848 454 895 q 308 802 378 802 z "},"Ī":{"ha":386,"x_min":-14,"x_max":401,"o":"m 293 956 l 293 0 l 93 0 l 93 956 l 293 956 m -14 1156 l 401 1156 l 401 1042 l -14 1042 l -14 1156 z "},"ī":{"ha":386,"x_min":-14,"x_max":401,"o":"m 289 734 l 289 0 l 98 0 l 98 734 l 289 734 m -14 930 l 401 930 l 401 816 l -14 816 l -14 930 z "},"Ĭ":{"ha":386,"x_min":-46,"x_max":434,"o":"m 293 956 l 293 0 l 93 0 l 93 956 l 293 956 m 193 1031 q 28 1086 94 1031 q -46 1226 -39 1141 l 64 1226 q 111 1159 75 1184 q 194 1134 146 1134 q 278 1159 243 1134 q 323 1226 313 1183 l 434 1226 q 356 1083 421 1136 q 193 1031 292 1031 z "},"ĭ":{"ha":386,"x_min":-45,"x_max":435,"o":"m 289 734 l 289 0 l 98 0 l 98 734 l 289 734 m 194 802 q 27 864 92 802 q -45 1021 -38 926 l 65 1021 q 111 939 76 969 q 195 909 146 909 q 278 938 243 909 q 323 1021 314 968 l 435 1021 q 360 862 422 921 q 194 802 298 802 z "},"Į":{"ha":386,"x_min":60,"x_max":323,"o":"m 293 956 l 293 0 l 93 0 l 93 956 l 293 956 m 323 -266 q 220 -288 280 -288 q 102 -252 145 -288 q 60 -153 60 -215 q 89 -56 60 -102 q 167 14 119 -11 l 271 14 q 205 -53 228 -14 q 183 -128 183 -92 q 200 -174 183 -157 q 247 -191 216 -191 q 323 -173 283 -191 l 323 -266 z "},"į":{"ha":386,"x_min":47,"x_max":310,"o":"m 288 1006 l 288 866 l 97 866 l 97 1006 l 288 1006 m 288 734 l 288 0 l 97 0 l 97 734 l 288 734 m 310 -266 q 208 -288 267 -288 q 90 -252 132 -288 q 47 -153 47 -215 q 76 -56 47 -102 q 154 14 106 -11 l 258 14 q 193 -53 215 -14 q 170 -128 170 -92 q 187 -174 170 -157 q 234 -191 203 -191 q 310 -173 271 -191 l 310 -266 z "},"Ĵ":{"ha":772,"x_min":21,"x_max":718,"o":"m 355 -14 q 127 51 207 -14 q 21 259 47 115 l 220 288 q 265 179 232 214 q 357 143 298 143 q 447 183 416 143 q 478 298 478 223 l 478 799 l 288 799 l 288 956 l 677 956 l 677 302 q 593 70 677 153 q 355 -14 508 -14 m 218 1038 l 218 1057 l 393 1244 l 548 1244 l 718 1057 l 718 1038 l 610 1038 l 472 1140 l 469 1140 l 326 1038 l 218 1038 z "},"ĵ":{"ha":386,"x_min":-61,"x_max":439,"o":"m 191 932 l 47 802 l -61 802 l -61 821 l 114 1037 l 269 1037 l 439 821 l 439 802 l 331 802 l 193 932 l 191 932 m 94 -288 q -22 -282 26 -288 l -22 -148 l 13 -151 q 80 -129 62 -151 q 98 -41 98 -108 l 98 734 l 288 734 l 288 -87 q 239 -236 288 -184 q 94 -288 190 -288 z "},"Ķ":{"ha":1003,"x_min":93,"x_max":990,"o":"m 293 349 l 293 0 l 93 0 l 93 956 l 293 956 l 293 522 l 724 956 l 957 956 l 549 551 l 990 0 l 754 0 l 411 439 l 293 349 m 593 -138 q 579 -228 593 -188 q 530 -309 564 -267 l 437 -309 q 485 -246 469 -275 q 500 -193 500 -217 l 427 -193 l 427 -53 l 593 -53 l 593 -138 z "},"ķ":{"ha":772,"x_min":97,"x_max":774,"o":"m 288 275 l 288 0 l 97 0 l 97 1006 l 288 1006 l 288 430 l 549 734 l 754 734 l 496 448 l 774 0 l 566 0 l 370 332 l 288 275 m 492 -138 q 477 -228 492 -188 q 428 -309 463 -267 l 335 -309 q 383 -246 367 -275 q 399 -193 399 -217 l 326 -193 l 326 -53 l 492 -53 l 492 -138 z "},"ĸ":{"ha":772,"x_min":97,"x_max":774,"o":"m 288 275 l 288 0 l 97 0 l 97 734 l 288 734 l 288 430 l 549 734 l 754 734 l 496 448 l 774 0 l 566 0 l 370 332 l 288 275 z "},"Ļ":{"ha":848,"x_min":93,"x_max":806,"o":"m 806 155 l 806 0 l 93 0 l 93 956 l 293 956 l 293 155 l 806 155 m 513 -138 q 499 -228 513 -188 q 450 -309 484 -267 l 357 -309 q 405 -246 389 -275 q 420 -193 420 -217 l 347 -193 l 347 -53 l 513 -53 l 513 -138 z "},"ļ":{"ha":386,"x_min":97,"x_max":288,"o":"m 288 1006 l 288 0 l 97 0 l 97 1006 l 288 1006 m 275 -138 q 261 -228 275 -188 q 212 -309 246 -267 l 119 -309 q 166 -246 151 -275 q 182 -193 182 -217 l 109 -193 l 109 -53 l 275 -53 l 275 -138 z "},"Ņ":{"ha":1003,"x_min":93,"x_max":909,"o":"m 271 564 l 271 0 l 93 0 l 93 956 l 321 956 l 744 214 q 732 400 732 317 l 732 956 l 909 956 l 909 0 l 675 0 l 258 736 q 268 639 264 682 q 271 564 271 596 m 581 -138 q 566 -228 581 -188 q 517 -309 551 -267 l 424 -309 q 472 -246 456 -275 q 488 -193 488 -217 l 414 -193 l 414 -53 l 581 -53 l 581 -138 z "},"ņ":{"ha":848,"x_min":92,"x_max":762,"o":"m 288 393 l 288 0 l 97 0 l 97 570 q 95 666 97 629 q 92 734 94 704 l 273 734 q 277 695 275 726 q 280 634 279 665 q 282 588 282 602 l 285 588 q 382 710 323 672 q 521 748 440 748 q 700 676 637 748 q 762 466 762 604 l 762 0 l 572 0 l 572 412 q 540 557 572 509 q 441 605 507 605 q 330 546 372 605 q 288 393 288 486 m 515 -138 q 500 -228 515 -188 q 451 -309 486 -267 l 358 -309 q 406 -246 390 -275 q 422 -193 422 -217 l 349 -193 l 349 -53 l 515 -53 l 515 -138 z "},"Ŋ":{"ha":1004,"x_min":90,"x_max":919,"o":"m 613 -14 q 463 13 524 -14 q 352 107 402 40 l 489 223 q 552 160 524 177 q 612 144 580 144 q 715 234 694 144 q 726 375 726 278 l 726 575 q 683 758 726 701 q 541 814 640 814 q 418 781 475 814 q 327 690 360 747 q 293 569 293 633 l 293 0 l 93 0 l 93 741 l 90 956 l 286 956 q 291 872 289 914 q 293 785 293 829 l 296 785 q 427 920 340 871 q 620 969 514 969 q 848 882 778 969 q 919 603 919 794 l 919 368 q 887 148 919 232 q 787 25 854 64 q 613 -14 719 -14 z "},"ŋ":{"ha":848,"x_min":92,"x_max":762,"o":"m 568 -288 q 452 -282 500 -288 l 452 -148 l 487 -151 q 555 -129 537 -151 q 572 -41 572 -106 l 572 412 q 540 557 572 509 q 441 605 507 605 q 330 546 372 605 q 288 393 288 486 l 288 0 l 97 0 l 97 570 q 95 666 97 629 q 92 734 94 704 l 273 734 q 277 695 275 726 q 280 634 279 665 q 282 588 282 602 l 285 588 q 382 710 323 672 q 521 748 440 748 q 700 676 637 748 q 762 466 762 604 l 762 -87 q 713 -236 762 -184 q 568 -288 664 -288 z "},"Ō":{"ha":1080,"x_min":57,"x_max":1022,"o":"m 1022 482 q 962 221 1022 333 q 793 48 902 110 q 538 -14 684 -14 q 280 46 388 -14 q 115 218 172 106 q 57 482 57 329 q 114 745 57 635 q 280 912 172 854 q 539 970 388 970 q 799 911 691 970 q 964 743 907 852 q 1022 482 1022 634 m 818 482 q 745 725 818 637 q 539 812 671 812 q 332 725 405 812 q 258 482 258 638 q 292 302 258 378 q 389 185 326 226 q 538 144 452 144 q 745 232 672 144 q 818 482 818 320 m 332 1156 l 747 1156 l 747 1042 l 332 1042 l 332 1156 z "},"ō":{"ha":848,"x_min":54,"x_max":794,"o":"m 794 368 q 695 88 794 189 q 421 -14 596 -14 q 152 88 250 -14 q 54 368 54 190 q 152 646 54 545 q 425 747 250 747 q 700 649 605 747 q 794 368 794 551 m 595 368 q 552 557 595 498 q 428 616 509 616 q 298 554 341 616 q 254 368 254 492 q 297 181 254 245 q 419 117 339 117 q 551 179 507 117 q 595 368 595 242 m 220 930 l 635 930 l 635 816 l 220 816 l 220 930 z "},"Ŏ":{"ha":1080,"x_min":57,"x_max":1022,"o":"m 1022 482 q 962 221 1022 333 q 793 48 902 110 q 538 -14 684 -14 q 280 46 388 -14 q 115 218 172 106 q 57 482 57 329 q 114 745 57 635 q 280 912 172 854 q 539 970 388 970 q 799 911 691 970 q 964 743 907 852 q 1022 482 1022 634 m 818 482 q 745 725 818 637 q 539 812 671 812 q 332 725 405 812 q 258 482 258 638 q 292 302 258 378 q 389 185 326 226 q 538 144 452 144 q 745 232 672 144 q 818 482 818 320 m 532 1031 q 367 1086 433 1031 q 293 1226 300 1141 l 404 1226 q 450 1159 414 1184 q 533 1134 486 1134 q 617 1159 582 1134 q 662 1226 652 1183 l 773 1226 q 695 1083 760 1136 q 532 1031 631 1031 z "},"ŏ":{"ha":848,"x_min":54,"x_max":794,"o":"m 794 368 q 695 88 794 189 q 421 -14 596 -14 q 152 88 250 -14 q 54 368 54 190 q 152 646 54 545 q 425 747 250 747 q 700 649 605 747 q 794 368 794 551 m 595 368 q 552 557 595 498 q 428 616 509 616 q 298 554 341 616 q 254 368 254 492 q 297 181 254 245 q 419 117 339 117 q 551 179 507 117 q 595 368 595 242 m 429 802 q 261 864 326 802 q 189 1021 197 926 l 300 1021 q 346 939 311 969 q 429 909 381 909 q 513 938 477 909 q 558 1021 549 968 l 669 1021 q 595 862 657 921 q 429 802 532 802 z "},"Ŗ":{"ha":1003,"x_min":93,"x_max":975,"o":"m 293 363 l 293 0 l 93 0 l 93 956 l 570 956 q 834 882 741 956 q 927 671 927 808 q 870 497 927 570 q 716 401 813 425 l 975 0 l 749 0 l 528 363 l 293 363 m 726 663 q 682 766 726 731 q 549 800 637 800 l 293 800 l 293 518 l 555 518 q 682 556 639 518 q 726 663 726 594 m 587 -138 q 572 -228 587 -188 q 523 -309 557 -267 l 430 -309 q 478 -246 462 -275 q 494 -193 494 -217 l 420 -193 l 420 -53 l 587 -53 l 587 -138 z "},"ŗ":{"ha":541,"x_min":92,"x_max":519,"o":"m 288 360 l 288 0 l 97 0 l 97 562 q 95 662 97 622 q 92 734 94 703 l 273 734 q 276 707 275 728 q 279 660 277 686 q 281 610 280 633 q 282 577 282 587 l 285 577 q 334 686 312 653 q 386 733 356 718 q 460 748 416 748 q 519 738 497 748 l 519 578 q 438 589 474 589 q 327 531 367 589 q 288 360 288 473 m 275 -138 q 260 -228 275 -188 q 211 -309 245 -267 l 118 -309 q 166 -246 150 -275 q 182 -193 182 -217 l 109 -193 l 109 -53 l 275 -53 l 275 -138 z "},"Ŝ":{"ha":926,"x_min":40,"x_max":872,"o":"m 872 275 q 768 61 872 135 q 463 -14 664 -14 q 40 249 100 -14 l 233 281 q 310 171 253 205 q 468 136 367 136 q 625 168 573 136 q 677 264 677 200 q 654 331 677 304 q 586 375 630 357 q 522 394 564 384 q 418 418 480 405 q 305 447 346 435 q 240 470 264 458 q 193 494 216 481 q 113 576 142 525 q 85 703 85 627 q 182 901 85 832 q 465 970 279 970 q 732 914 643 970 q 847 730 821 859 l 653 704 q 592 797 638 766 q 461 828 547 828 q 325 800 370 828 q 279 714 279 771 q 299 653 279 677 q 356 612 318 629 q 510 571 392 596 q 628 543 578 556 q 707 517 677 530 q 761 490 737 505 q 801 460 784 476 q 854 381 836 427 q 872 275 872 335 m 232 1038 l 232 1057 l 407 1244 l 562 1244 l 732 1057 l 732 1038 l 624 1038 l 486 1140 l 484 1140 l 340 1038 l 232 1038 z "},"ŝ":{"ha":772,"x_min":49,"x_max":715,"o":"m 715 214 q 628 47 715 108 q 387 -14 541 -14 q 156 34 236 -14 q 49 183 75 82 l 216 208 q 266 134 231 156 q 387 113 300 113 q 504 133 467 113 q 541 197 541 153 q 511 253 541 232 q 411 288 481 273 q 315 309 357 298 q 242 329 273 319 q 193 347 212 338 q 107 418 137 375 q 78 526 78 462 q 159 689 78 631 q 389 748 240 748 q 599 697 519 748 q 699 550 679 646 l 530 532 q 490 599 522 577 q 389 621 458 621 q 287 604 321 621 q 253 546 253 587 q 279 495 253 514 q 367 465 305 477 q 520 428 453 447 q 627 384 587 410 q 691 318 667 358 q 715 214 715 277 m 134 802 l 134 821 l 309 1037 l 465 1037 l 634 821 l 634 802 l 526 802 l 389 932 l 386 932 l 243 802 l 134 802 z "},"Ŧ":{"ha":848,"x_min":16,"x_max":833,"o":"m 524 425 l 524 0 l 324 0 l 324 425 l 170 425 l 170 553 l 324 553 l 324 801 l 16 801 l 16 956 l 833 956 l 833 801 l 524 801 l 524 553 l 679 553 l 679 425 l 524 425 z "},"ŧ":{"ha":463,"x_min":17,"x_max":446,"o":"m 285 -12 q 155 34 201 -12 q 110 172 110 79 l 110 321 l 24 321 l 24 450 l 110 450 l 110 605 l 17 605 l 17 734 l 119 734 l 179 906 l 298 906 l 298 734 l 437 734 l 437 605 l 298 605 l 298 450 l 424 450 l 424 321 l 298 321 l 298 224 q 319 145 298 170 q 382 119 339 119 q 446 129 402 119 l 446 11 q 285 -12 376 -12 z "},"Ũ":{"ha":1003,"x_min":83,"x_max":918,"o":"m 490 -14 q 268 30 359 -14 q 130 156 177 73 q 83 358 83 239 l 83 956 l 283 956 l 283 374 q 337 202 283 260 q 496 143 391 143 q 661 204 603 143 q 718 380 718 266 l 718 956 l 918 956 l 918 368 q 868 162 918 248 q 722 32 817 77 q 490 -14 626 -14 m 614 1038 q 554 1052 585 1038 q 494 1081 524 1065 q 442 1109 467 1097 q 395 1121 416 1121 q 353 1105 368 1121 q 329 1038 338 1090 l 236 1038 q 283 1194 243 1151 q 389 1236 323 1236 q 446 1223 416 1236 q 505 1195 476 1211 q 559 1166 534 1179 q 606 1153 585 1153 q 649 1170 633 1153 q 673 1236 664 1186 l 765 1236 q 722 1084 760 1130 q 614 1038 684 1038 z "},"ũ":{"ha":848,"x_min":86,"x_max":757,"o":"m 564 146 q 467 24 526 62 q 328 -14 408 -14 q 149 58 211 -14 q 86 268 86 130 l 86 734 l 277 734 l 277 322 q 309 177 277 226 q 407 129 342 129 q 518 188 476 129 q 561 340 561 248 l 561 734 l 751 734 l 751 164 q 753 76 751 117 q 757 0 754 35 l 575 0 q 569 85 571 49 q 567 146 567 122 l 564 146 m 533 802 q 479 814 507 802 q 423 841 451 826 q 366 871 393 857 q 315 886 338 886 q 272 870 287 886 q 248 802 258 854 l 155 802 q 202 960 163 919 q 308 1001 242 1001 q 370 986 338 1001 q 433 955 402 972 q 483 929 459 940 q 526 918 507 918 q 568 934 553 918 q 593 1001 583 951 l 684 1001 q 641 848 680 895 q 533 802 603 802 z "},"Ū":{"ha":1003,"x_min":83,"x_max":918,"o":"m 490 -14 q 268 30 359 -14 q 130 156 177 73 q 83 358 83 239 l 83 956 l 283 956 l 283 374 q 337 202 283 260 q 496 143 391 143 q 661 204 603 143 q 718 380 718 266 l 718 956 l 918 956 l 918 368 q 868 162 918 248 q 722 32 817 77 q 490 -14 626 -14 m 294 1153 l 709 1153 l 709 1039 l 294 1039 l 294 1153 z "},"ū":{"ha":848,"x_min":86,"x_max":757,"o":"m 564 146 q 467 24 526 62 q 328 -14 408 -14 q 149 58 211 -14 q 86 268 86 130 l 86 734 l 277 734 l 277 322 q 309 177 277 226 q 407 129 342 129 q 518 188 476 129 q 561 340 561 248 l 561 734 l 751 734 l 751 164 q 753 76 751 117 q 757 0 754 35 l 575 0 q 569 85 571 49 q 567 146 567 122 l 564 146 m 212 930 l 627 930 l 627 816 l 212 816 l 212 930 z "},"Ŭ":{"ha":1003,"x_min":83,"x_max":918,"o":"m 490 -14 q 268 30 359 -14 q 130 156 177 73 q 83 358 83 239 l 83 956 l 283 956 l 283 374 q 337 202 283 260 q 496 143 391 143 q 661 204 603 143 q 718 380 718 266 l 718 956 l 918 956 l 918 368 q 868 162 918 248 q 722 32 817 77 q 490 -14 626 -14 m 500 1031 q 335 1086 401 1031 q 261 1226 269 1141 l 372 1226 q 418 1159 382 1184 q 501 1134 454 1134 q 585 1159 550 1134 q 630 1226 621 1183 l 741 1226 q 664 1083 728 1136 q 500 1031 599 1031 z "},"ŭ":{"ha":848,"x_min":86,"x_max":757,"o":"m 564 146 q 467 24 526 62 q 328 -14 408 -14 q 149 58 211 -14 q 86 268 86 130 l 86 734 l 277 734 l 277 322 q 309 177 277 226 q 407 129 342 129 q 518 188 476 129 q 561 340 561 248 l 561 734 l 751 734 l 751 164 q 753 76 751 117 q 757 0 754 35 l 575 0 q 569 85 571 49 q 567 146 567 122 l 564 146 m 422 802 q 255 864 320 802 q 183 1021 191 926 l 294 1021 q 340 939 304 969 q 423 909 375 909 q 507 938 471 909 q 552 1021 543 968 l 663 1021 q 589 862 651 921 q 422 802 526 802 z "},"Ų":{"ha":1003,"x_min":83,"x_max":918,"o":"m 490 -14 q 268 30 359 -14 q 130 156 177 73 q 83 358 83 239 l 83 956 l 283 956 l 283 374 q 337 202 283 260 q 496 143 391 143 q 661 204 603 143 q 718 380 718 266 l 718 956 l 918 956 l 918 368 q 868 162 918 248 q 722 32 817 77 q 490 -14 626 -14 m 684 -266 q 581 -288 641 -288 q 463 -252 506 -288 q 420 -153 420 -215 q 450 -56 420 -102 q 528 14 479 -11 l 631 14 q 566 -53 589 -14 q 544 -128 544 -92 q 561 -174 544 -157 q 608 -191 577 -191 q 684 -173 644 -191 l 684 -266 z "},"ų":{"ha":848,"x_min":86,"x_max":757,"o":"m 564 146 q 467 24 526 62 q 328 -14 408 -14 q 149 58 211 -14 q 86 268 86 130 l 86 734 l 277 734 l 277 322 q 309 177 277 226 q 407 129 342 129 q 518 188 476 129 q 561 340 561 248 l 561 734 l 751 734 l 751 164 q 753 76 751 117 q 757 0 754 35 l 575 0 q 569 85 571 49 q 567 146 567 122 l 564 146 m 752 -266 q 650 -288 709 -288 q 532 -252 574 -288 q 489 -153 489 -215 q 518 -56 489 -102 q 596 14 548 -11 l 700 14 q 635 -53 657 -14 q 612 -128 612 -92 q 629 -174 612 -157 q 676 -191 646 -191 q 752 -173 713 -191 l 752 -266 z "},"Ŵ":{"ha":1311,"x_min":1,"x_max":1310,"o":"m 616 566 l 485 0 l 248 0 l 1 956 l 204 956 l 337 370 q 356 284 346 333 q 374 189 367 235 q 386 251 380 221 q 398 311 392 281 q 411 370 404 340 l 546 956 l 770 956 l 903 391 q 920 308 910 362 q 939 189 930 254 q 955 259 947 229 q 969 319 962 289 q 984 388 976 349 l 1107 956 l 1310 956 l 1063 0 l 825 0 l 696 553 q 674 652 684 602 q 656 757 664 703 q 642 688 650 728 q 627 615 634 649 q 616 566 620 581 m 407 1038 l 407 1057 l 582 1244 l 737 1244 l 907 1057 l 907 1038 l 799 1038 l 661 1140 l 659 1140 l 515 1038 l 407 1038 z "},"ŵ":{"ha":1080,"x_min":-4,"x_max":1083,"o":"m 505 446 l 387 0 l 186 0 l -4 734 l 175 734 l 269 300 q 282 237 275 269 q 296 173 289 205 q 308 238 302 205 q 322 302 313 271 l 437 734 l 642 734 l 754 302 q 766 253 759 285 q 782 173 773 220 q 797 238 789 205 q 810 302 804 270 l 907 734 l 1083 734 l 890 0 l 689 0 l 572 448 q 560 501 568 463 q 541 598 552 538 q 524 522 532 560 q 505 446 515 484 m 291 802 l 291 821 l 466 1037 l 621 1037 l 791 821 l 791 802 l 683 802 l 545 932 l 543 932 l 399 802 l 291 802 z "},"Ŷ":{"ha":926,"x_min":24,"x_max":904,"o":"m 564 392 l 564 0 l 364 0 l 364 392 l 24 956 l 233 956 l 463 551 l 694 956 l 904 956 l 564 392 m 214 1038 l 214 1057 l 389 1244 l 545 1244 l 714 1057 l 714 1038 l 606 1038 l 469 1140 l 466 1140 l 323 1038 l 214 1038 z "},"ŷ":{"ha":772,"x_min":11,"x_max":765,"o":"m 192 -288 q 72 -279 122 -288 l 72 -144 q 138 -149 110 -149 q 237 -113 204 -149 q 301 7 270 -77 l 11 734 l 212 734 l 328 390 q 358 296 341 353 q 396 163 375 240 q 426 279 412 226 q 457 387 440 332 l 566 734 l 765 734 l 475 -39 q 437 -121 457 -85 q 397 -185 418 -157 q 307 -265 356 -241 q 192 -288 258 -288 m 144 802 l 144 821 l 319 1037 l 474 1037 l 644 821 l 644 802 l 536 802 l 398 932 l 395 932 l 252 802 l 144 802 z "},"ſ":{"ha":386,"x_min":96,"x_max":431,"o":"m 286 791 l 286 0 l 96 0 l 96 810 q 149 958 96 910 q 310 1006 202 1006 q 431 996 366 1006 l 431 873 q 375 879 404 879 q 306 860 326 879 q 286 791 286 840 z "},"Ǻ":{"ha":1003,"x_min":35,"x_max":966,"o":"m 513 1242 l 397 1242 l 397 1263 l 568 1435 l 743 1435 l 743 1406 l 513 1242 m 673 1042 q 662 980 673 1009 q 629 927 650 950 l 966 0 l 768 0 l 684 244 l 319 244 l 235 0 l 35 0 l 373 927 q 340 980 352 950 q 329 1042 329 1009 q 352 1129 329 1090 q 415 1191 376 1168 q 501 1215 454 1215 q 588 1191 549 1215 q 650 1129 627 1168 q 673 1042 673 1090 m 587 1042 q 563 1102 587 1077 q 501 1127 538 1127 q 441 1103 467 1127 q 416 1042 416 1078 q 441 980 416 1004 q 501 956 467 956 q 562 981 537 956 q 587 1042 587 1006 m 501 808 q 482 743 494 781 q 465 690 470 705 l 364 395 l 639 395 l 536 696 q 518 751 526 724 q 501 808 509 779 z "},"ǻ":{"ha":772,"x_min":41,"x_max":781,"o":"m 267 -14 q 100 44 160 -14 q 41 208 41 102 q 115 380 41 321 q 330 442 189 439 l 488 445 l 488 482 q 463 589 488 554 q 381 624 438 624 q 303 600 328 624 q 273 520 279 576 l 74 530 q 389 747 111 747 q 604 679 528 747 q 679 484 679 610 l 679 217 q 693 132 679 155 q 739 109 707 109 q 781 113 761 109 l 781 9 q 721 -4 746 1 q 659 -8 696 -8 q 553 27 587 -8 q 512 131 519 62 l 508 131 q 408 23 468 59 q 267 -14 347 -14 m 488 340 l 391 338 q 296 324 323 335 q 254 288 269 312 q 239 222 239 263 q 263 145 239 170 q 328 119 288 119 q 410 144 372 119 q 467 211 446 168 q 488 302 488 254 l 488 340 m 558 943 q 535 856 558 895 q 474 794 513 817 q 386 770 435 770 q 298 794 338 770 q 236 856 259 817 q 214 943 214 895 q 237 1029 214 990 q 299 1092 260 1068 q 386 1115 338 1115 q 472 1092 433 1115 q 535 1029 511 1068 q 558 943 558 990 m 472 943 q 447 1002 472 977 q 386 1027 422 1027 q 326 1003 351 1027 q 301 943 301 979 q 326 880 301 905 q 386 856 351 856 q 447 881 422 856 q 472 943 472 906 m 646 1335 l 415 1148 l 300 1148 l 300 1169 l 471 1364 l 646 1364 l 646 1335 z "},"Ǽ":{"ha":1389,"x_min":3,"x_max":1335,"o":"m 326 244 l 210 0 l 3 0 l 477 956 l 1307 956 l 1307 802 l 831 802 l 831 561 l 1265 561 l 1265 411 l 831 411 l 831 154 l 1335 154 l 1335 0 l 631 0 l 631 244 l 326 244 m 395 395 l 631 395 l 631 808 l 590 808 l 395 395 m 1080 1202 l 850 1038 l 734 1038 l 734 1059 l 905 1231 l 1080 1231 l 1080 1202 z "},"ǽ":{"ha":1235,"x_min":45,"x_max":1177,"o":"m 1166 186 q 850 -14 1088 -14 q 555 142 640 -14 q 440 25 510 64 q 275 -14 370 -14 q 105 45 166 -14 q 45 208 45 103 q 343 442 45 435 l 506 445 l 506 482 q 479 590 506 555 q 392 624 452 624 q 309 599 334 624 q 277 520 283 574 l 78 530 q 176 692 96 636 q 397 747 256 747 q 623 675 545 747 q 852 747 712 747 q 1094 643 1010 747 q 1177 336 1177 538 l 1177 323 l 707 323 q 747 169 707 224 q 859 114 787 114 q 942 136 909 114 q 987 201 974 158 l 1166 186 m 993 450 q 950 583 987 538 q 850 627 913 627 q 746 581 783 627 q 708 450 710 534 l 993 450 m 243 222 q 269 145 243 170 q 336 119 294 119 q 422 146 383 119 q 484 216 462 172 q 506 309 506 260 l 506 340 l 403 338 q 303 324 333 336 q 259 288 274 312 q 243 222 243 263 m 871 989 l 640 802 l 525 802 l 525 823 l 696 1019 l 871 1019 l 871 989 z "},"Ǿ":{"ha":1080,"x_min":57,"x_max":1023,"o":"m 1023 482 q 963 221 1023 332 q 794 48 903 109 q 538 -14 686 -14 q 294 39 395 -14 l 232 -49 l 100 -50 l 204 98 q 57 482 57 231 q 114 745 57 635 q 280 912 172 854 q 539 970 388 970 q 779 920 673 970 l 835 999 l 966 999 l 869 861 q 984 701 945 798 q 1023 482 1023 604 m 258 482 q 315 257 258 344 l 681 778 q 539 812 619 812 q 332 725 405 812 q 258 482 258 638 m 819 482 q 760 704 819 619 l 393 180 q 538 143 455 143 q 746 232 673 143 q 819 482 819 320 m 770 1202 l 539 1038 l 424 1038 l 424 1059 l 595 1231 l 770 1231 l 770 1202 z "},"ǿ":{"ha":848,"x_min":1,"x_max":842,"o":"m 794 368 q 695 88 794 189 q 421 -14 596 -14 q 201 47 292 -14 l 125 -37 l 1 -37 l 134 109 q 54 368 54 207 q 152 646 54 545 q 425 747 250 747 q 649 691 560 747 l 718 768 l 842 768 l 718 629 q 794 368 794 532 m 254 368 q 266 257 254 307 l 542 570 q 428 616 501 616 q 298 554 341 616 q 254 368 254 492 m 595 368 q 584 477 595 433 l 308 165 q 419 117 350 117 q 551 179 507 117 q 595 368 595 242 m 661 989 l 431 802 l 315 802 l 315 823 l 486 1019 l 661 1019 l 661 989 z "},"·":{"ha":463,"x_min":134,"x_max":329,"o":"m 329 567 l 329 360 l 134 360 l 134 567 l 329 567 z "},"Ẁ":{"ha":1311,"x_min":1,"x_max":1310,"o":"m 616 566 l 485 0 l 248 0 l 1 956 l 204 956 l 337 370 q 356 284 346 333 q 374 189 367 235 q 386 251 380 221 q 398 311 392 281 q 411 370 404 340 l 546 956 l 770 956 l 903 391 q 920 308 910 362 q 939 189 930 254 q 955 259 947 229 q 969 319 962 289 q 984 388 976 349 l 1107 956 l 1310 956 l 1063 0 l 825 0 l 696 553 q 674 652 684 602 q 656 757 664 703 q 642 688 650 728 q 627 615 634 649 q 616 566 620 581 m 795 1059 l 795 1038 l 681 1038 l 450 1202 l 450 1231 l 625 1231 l 795 1059 z "},"ẁ":{"ha":1080,"x_min":-4,"x_max":1083,"o":"m 505 446 l 387 0 l 186 0 l -4 734 l 175 734 l 269 300 q 282 237 275 269 q 296 173 289 205 q 308 238 302 205 q 322 302 313 271 l 437 734 l 642 734 l 754 302 q 766 253 759 285 q 782 173 773 220 q 797 238 789 205 q 810 302 804 270 l 907 734 l 1083 734 l 890 0 l 689 0 l 572 448 q 560 501 568 463 q 541 598 552 538 q 524 522 532 560 q 505 446 515 484 m 647 823 l 647 802 l 532 802 l 302 989 l 302 1019 l 477 1019 l 647 823 z "},"Ẃ":{"ha":1311,"x_min":1,"x_max":1310,"o":"m 616 566 l 485 0 l 248 0 l 1 956 l 204 956 l 337 370 q 356 284 346 333 q 374 189 367 235 q 386 251 380 221 q 398 311 392 281 q 411 370 404 340 l 546 956 l 770 956 l 903 391 q 920 308 910 362 q 939 189 930 254 q 955 259 947 229 q 969 319 962 289 q 984 388 976 349 l 1107 956 l 1310 956 l 1063 0 l 825 0 l 696 553 q 674 652 684 602 q 656 757 664 703 q 642 688 650 728 q 627 615 634 649 q 616 566 620 581 m 904 1202 l 673 1038 l 558 1038 l 558 1059 l 729 1231 l 904 1231 l 904 1202 z "},"ẃ":{"ha":1080,"x_min":-4,"x_max":1083,"o":"m 505 446 l 387 0 l 186 0 l -4 734 l 175 734 l 269 300 q 282 237 275 269 q 296 173 289 205 q 308 238 302 205 q 322 302 313 271 l 437 734 l 642 734 l 754 302 q 766 253 759 285 q 782 173 773 220 q 797 238 789 205 q 810 302 804 270 l 907 734 l 1083 734 l 890 0 l 689 0 l 572 448 q 560 501 568 463 q 541 598 552 538 q 524 522 532 560 q 505 446 515 484 m 778 989 l 547 802 l 432 802 l 432 823 l 603 1019 l 778 1019 l 778 989 z "},"Ẅ":{"ha":1311,"x_min":1,"x_max":1310,"o":"m 616 566 l 485 0 l 248 0 l 1 956 l 204 956 l 337 370 q 356 284 346 333 q 374 189 367 235 q 386 251 380 221 q 398 311 392 281 q 411 370 404 340 l 546 956 l 770 956 l 903 391 q 920 308 910 362 q 939 189 930 254 q 955 259 947 229 q 969 319 962 289 q 984 388 976 349 l 1107 956 l 1310 956 l 1063 0 l 825 0 l 696 553 q 674 652 684 602 q 656 757 664 703 q 642 688 650 728 q 627 615 634 649 q 616 566 620 581 m 878 1186 l 878 1038 l 745 1038 l 745 1186 l 878 1186 m 568 1186 l 568 1038 l 437 1038 l 437 1186 l 568 1186 z "},"ẅ":{"ha":1080,"x_min":-4,"x_max":1083,"o":"m 505 446 l 387 0 l 186 0 l -4 734 l 175 734 l 269 300 q 282 237 275 269 q 296 173 289 205 q 308 238 302 205 q 322 302 313 271 l 437 734 l 642 734 l 754 302 q 766 253 759 285 q 782 173 773 220 q 797 238 789 205 q 810 302 804 270 l 907 734 l 1083 734 l 890 0 l 689 0 l 572 448 q 560 501 568 463 q 541 598 552 538 q 524 522 532 560 q 505 446 515 484 m 762 962 l 762 813 l 614 813 l 614 962 l 762 962 m 465 962 l 465 813 l 320 813 l 320 962 l 465 962 z "},"Ỳ":{"ha":926,"x_min":24,"x_max":904,"o":"m 564 392 l 564 0 l 364 0 l 364 392 l 24 956 l 233 956 l 463 551 l 694 956 l 904 956 l 564 392 m 601 1059 l 601 1038 l 486 1038 l 256 1202 l 256 1231 l 431 1231 l 601 1059 z "},"ỳ":{"ha":772,"x_min":11,"x_max":765,"o":"m 192 -288 q 72 -279 122 -288 l 72 -144 q 138 -149 110 -149 q 237 -113 204 -149 q 301 7 270 -77 l 11 734 l 212 734 l 328 390 q 358 296 341 353 q 396 163 375 240 q 426 279 412 226 q 457 387 440 332 l 566 734 l 765 734 l 475 -39 q 437 -121 457 -85 q 397 -185 418 -157 q 307 -265 356 -241 q 192 -288 258 -288 m 484 823 l 484 802 l 370 802 l 139 989 l 139 1019 l 314 1019 l 484 823 z "},"‛":{"ha":386,"x_min":94,"x_max":292,"o":"m 203 779 q 292 564 203 678 l 168 564 q 111 681 127 620 q 94 823 94 741 l 94 956 l 289 956 l 289 779 l 203 779 z "},"‾":{"ha":463,"x_min":-88,"x_max":551,"o":"m 551 1099 l 551 986 l -88 986 l -88 1099 l 551 1099 z "},"₤":{"ha":772,"x_min":14,"x_max":758,"o":"m 758 246 q 666 65 737 130 q 492 0 595 0 l 22 0 l 22 139 q 98 194 73 168 q 133 251 124 220 q 142 327 142 283 l 142 345 l 14 345 l 14 446 l 135 446 l 135 522 l 14 522 l 14 623 l 135 623 l 135 693 q 208 900 135 829 q 424 970 280 970 q 604 923 538 970 q 700 772 670 876 l 542 741 q 500 817 528 793 q 427 840 472 840 q 338 801 366 840 q 311 677 311 762 l 311 623 l 505 623 l 505 522 l 311 522 l 311 446 l 505 446 l 505 345 l 311 345 l 311 335 q 285 227 311 272 q 188 142 259 182 l 446 142 q 552 175 516 142 q 600 273 589 209 l 758 246 z "},"℮":{"ha":833,"x_min":60,"x_max":779,"o":"m 420 -23 q 231 26 312 -23 q 105 164 150 75 q 60 360 60 254 q 105 559 60 473 q 234 695 151 646 q 420 743 318 743 q 606 695 523 743 q 733 559 688 647 q 779 360 779 472 l 218 360 l 218 119 q 307 58 252 82 q 420 35 362 35 q 572 71 509 35 q 688 193 635 108 l 736 165 q 595 18 670 60 q 420 -23 521 -23 m 218 418 l 622 418 l 622 606 q 532 664 587 642 q 418 686 477 686 q 218 606 297 686 l 218 418 z "},"⅛":{"ha":1158,"x_min":77,"x_max":1090,"o":"m 441 553 l 441 471 l 77 471 l 77 553 l 202 553 l 202 870 l 85 797 l 85 880 l 207 959 l 326 959 l 326 553 l 441 553 m 962 956 l 355 0 l 219 0 l 826 956 l 962 956 m 1090 139 q 1038 32 1090 70 q 891 -5 985 -5 q 744 33 795 -5 q 692 138 692 71 q 721 219 692 187 q 792 256 750 250 l 792 258 q 728 298 751 267 q 705 368 705 328 q 752 461 705 426 q 890 496 799 496 q 1029 463 980 496 q 1078 367 1078 429 q 1053 296 1078 327 q 989 258 1028 266 l 989 257 q 1063 218 1036 250 q 1090 139 1090 187 m 951 355 q 936 397 951 383 q 891 412 921 412 q 831 355 831 412 q 891 296 831 296 q 936 311 921 296 q 951 355 951 326 m 962 149 q 888 212 962 212 q 817 149 817 212 q 836 98 817 115 q 891 81 854 81 q 945 96 927 81 q 962 149 962 112 z "},"⅜":{"ha":1158,"x_min":57,"x_max":1090,"o":"m 949 956 l 342 0 l 205 0 l 812 956 l 949 956 m 1090 139 q 1038 32 1090 70 q 891 -5 985 -5 q 744 33 795 -5 q 692 138 692 71 q 721 219 692 187 q 792 256 750 250 l 792 258 q 728 298 751 267 q 705 368 705 328 q 752 461 705 426 q 890 496 799 496 q 1029 463 980 496 q 1078 367 1078 429 q 1053 296 1078 327 q 989 258 1028 266 l 989 257 q 1063 218 1036 250 q 1090 139 1090 187 m 951 355 q 936 397 951 383 q 891 412 921 412 q 831 355 831 412 q 891 296 831 296 q 936 311 921 296 q 951 355 951 326 m 962 149 q 888 212 962 212 q 817 149 817 212 q 836 98 817 115 q 891 81 854 81 q 945 96 927 81 q 962 149 962 112 m 460 607 q 409 502 460 540 q 264 464 358 464 q 119 499 173 464 q 57 605 66 534 l 185 613 q 262 550 193 550 q 332 615 332 550 q 237 678 332 678 l 199 678 l 199 764 l 234 764 q 298 780 277 764 q 320 825 320 795 q 304 866 320 851 q 260 881 289 881 q 213 866 230 881 q 193 821 197 850 l 67 829 q 126 930 75 892 q 263 967 178 967 q 398 932 350 967 q 447 840 447 897 q 422 765 447 796 q 344 724 397 734 l 344 722 q 430 685 400 716 q 460 607 460 654 z "},"⅝":{"ha":1158,"x_min":70,"x_max":1090,"o":"m 949 956 l 342 0 l 205 0 l 812 956 l 949 956 m 1090 139 q 1038 32 1090 70 q 891 -5 985 -5 q 744 33 795 -5 q 692 138 692 71 q 721 219 692 187 q 792 256 750 250 l 792 258 q 728 298 751 267 q 705 368 705 328 q 752 461 705 426 q 890 496 799 496 q 1029 463 980 496 q 1078 367 1078 429 q 1053 296 1078 327 q 989 258 1028 266 l 989 257 q 1063 218 1036 250 q 1090 139 1090 187 m 951 355 q 936 397 951 383 q 891 412 921 412 q 831 355 831 412 q 891 296 831 296 q 936 311 921 296 q 951 355 951 326 m 962 149 q 888 212 962 212 q 817 149 817 212 q 836 98 817 115 q 891 81 854 81 q 945 96 927 81 q 962 149 962 112 m 468 637 q 414 511 468 557 q 264 464 359 464 q 131 500 182 464 q 70 602 81 536 l 199 610 q 221 565 204 580 q 268 550 239 550 q 321 572 301 550 q 340 634 340 593 q 323 691 340 670 q 270 712 305 712 q 203 681 226 712 l 82 681 l 102 956 l 437 956 l 437 862 l 209 862 l 202 770 q 244 792 218 783 q 302 801 271 801 q 423 756 378 801 q 468 637 468 711 z "},"⅞":{"ha":1158,"x_min":111,"x_max":1090,"o":"m 935 956 l 328 0 l 192 0 l 799 956 l 935 956 m 1090 139 q 1038 32 1090 70 q 891 -5 985 -5 q 744 33 795 -5 q 692 138 692 71 q 721 219 692 187 q 792 256 750 250 l 792 258 q 728 298 751 267 q 705 368 705 328 q 752 461 705 426 q 890 496 799 496 q 1029 463 980 496 q 1078 367 1078 429 q 1053 296 1078 327 q 989 258 1028 266 l 989 257 q 1063 218 1036 250 q 1090 139 1090 187 m 951 355 q 936 397 951 383 q 891 412 921 412 q 831 355 831 412 q 891 296 831 296 q 936 311 921 296 q 951 355 951 326 m 962 149 q 888 212 962 212 q 817 149 817 212 q 836 98 817 115 q 891 81 854 81 q 945 96 927 81 q 962 149 962 112 m 505 869 q 385 695 423 768 q 345 585 356 637 q 334 471 334 532 l 203 471 q 217 580 203 527 q 267 694 231 633 q 389 862 309 767 l 111 862 l 111 956 l 503 956 l 505 869 z "},"":{"ha":463,"x_min":95,"x_max":369,"o":"m 369 -157 q 163 -288 369 -288 q 95 -284 133 -288 l 95 -204 q 152 -209 117 -209 q 245 -162 245 -209 q 168 -115 245 -115 q 147 -116 155 -115 q 134 -117 138 -116 l 159 -43 q 195 -40 176 -41 q 235 -39 214 -39 q 333 -71 297 -39 q 369 -157 369 -102 z "},"΄":{"ha":463,"x_min":125,"x_max":347,"o":"m 347 998 l 197 802 l 125 802 l 125 825 l 172 1023 l 347 1023 l 347 998 z "},"΅":{"ha":646,"x_min":75,"x_max":571,"o":"m 446 1074 l 323 807 l 245 807 l 245 829 l 285 1099 l 446 1099 l 446 1074 m 210 985 l 210 835 l 75 835 l 75 985 l 210 985 m 571 985 l 571 835 l 435 835 l 435 985 l 571 985 z "},"Ά":{"ha":1003,"x_min":24,"x_max":966,"o":"m 319 244 l 235 0 l 35 0 l 383 956 l 619 956 l 966 0 l 768 0 l 684 244 l 319 244 m 501 808 q 482 743 494 781 q 465 690 470 705 l 364 395 l 639 395 l 536 696 q 518 752 526 724 q 501 808 510 781 m 245 931 l 96 736 l 24 736 l 24 758 l 71 956 l 245 956 l 245 931 z "},"Έ":{"ha":1185,"x_min":31,"x_max":1131,"o":"m 1131 155 l 1131 0 l 351 0 l 351 956 l 1103 956 l 1103 801 l 551 801 l 551 561 l 1061 561 l 1061 406 l 551 406 l 551 155 l 1131 155 m 252 931 l 102 736 l 31 736 l 31 758 l 78 956 l 252 956 l 252 931 z "},"Ή":{"ha":1258,"x_min":24,"x_max":1164,"o":"m 548 410 l 548 0 l 348 0 l 348 956 l 548 956 l 548 575 l 964 575 l 964 956 l 1164 956 l 1164 0 l 964 0 l 964 410 l 548 410 m 245 931 l 96 736 l 24 736 l 24 758 l 71 956 l 245 956 l 245 931 z "},"Ί":{"ha":658,"x_min":24,"x_max":565,"o":"m 565 956 l 565 0 l 365 0 l 365 956 l 565 956 m 245 931 l 96 736 l 24 736 l 24 758 l 71 956 l 245 956 l 245 931 z "},"Ό":{"ha":1145,"x_min":-18,"x_max":1087,"o":"m 1087 482 q 1027 221 1087 333 q 858 48 967 110 q 603 -14 749 -14 q 345 46 453 -14 q 180 218 237 106 q 122 482 122 329 q 179 745 122 635 q 345 912 237 854 q 604 970 453 970 q 864 911 756 970 q 1029 743 972 852 q 1087 482 1087 634 m 883 482 q 810 725 883 637 q 604 812 736 812 q 397 725 470 812 q 323 482 323 638 q 357 302 323 378 q 454 185 391 226 q 603 144 517 144 q 810 232 737 144 q 883 482 883 320 m 203 931 l 54 736 l -18 736 l -18 758 l 29 956 l 203 956 l 203 931 z "},"Ύ":{"ha":1288,"x_min":87,"x_max":1265,"o":"m 924 392 l 924 0 l 725 0 l 725 392 l 385 956 l 594 956 l 823 551 l 1055 956 l 1265 956 l 924 392 m 308 931 l 158 736 l 87 736 l 87 758 l 134 956 l 308 956 l 308 931 z "},"Ώ":{"ha":1164,"x_min":-33,"x_max":1107,"o":"m 607 970 q 865 920 758 970 q 1031 780 973 871 q 1088 562 1088 688 q 1017 315 1088 416 q 800 147 945 213 q 868 153 838 151 q 920 155 899 155 l 1107 155 l 1107 0 l 652 0 l 652 210 q 830 346 775 268 q 885 525 885 425 q 812 738 885 663 q 606 812 739 812 q 399 738 473 812 q 326 525 326 663 q 381 346 326 425 q 559 210 436 268 l 559 0 l 106 0 l 106 155 l 292 155 q 345 153 315 155 q 412 147 375 151 q 196 316 266 214 q 125 562 125 418 q 183 781 125 690 q 349 921 241 872 q 607 970 457 970 m 189 931 l 39 736 l -33 736 l -33 758 l 14 956 l 189 956 l 189 931 z "},"ΐ":{"ha":386,"x_min":-59,"x_max":437,"o":"m 135 0 q 104 67 115 22 q 93 160 93 113 l 93 734 l 284 734 l 284 154 q 299 70 284 113 q 338 0 313 27 l 135 0 m 312 1074 l 189 807 l 111 807 l 111 829 l 151 1099 l 312 1099 l 312 1074 m 77 985 l 77 835 l -59 835 l -59 985 l 77 985 m 437 985 l 437 835 l 302 835 l 302 985 l 437 985 z "},"Α":{"ha":1003,"x_min":35,"x_max":966,"o":"m 319 244 l 235 0 l 35 0 l 383 956 l 619 956 l 966 0 l 768 0 l 684 244 l 319 244 m 501 808 q 482 743 494 781 q 465 690 470 705 l 364 395 l 639 395 l 536 696 q 518 752 526 724 q 501 808 510 781 z "},"Β":{"ha":1003,"x_min":93,"x_max":940,"o":"m 940 273 q 842 71 940 142 q 571 0 745 0 l 93 0 l 93 956 l 530 956 q 795 895 705 956 q 885 715 885 834 q 840 578 885 634 q 703 503 795 522 q 879 430 819 489 q 940 273 940 370 m 684 688 q 643 780 684 753 q 521 807 602 807 l 293 807 l 293 570 l 522 570 q 645 600 607 570 q 684 688 684 629 m 739 288 q 547 422 739 422 l 293 422 l 293 149 l 554 149 q 695 183 650 149 q 739 288 739 218 z "},"Δ":{"ha":998,"x_min":56,"x_max":941,"o":"m 941 153 l 941 0 l 56 0 l 57 153 l 385 956 l 618 955 l 941 153 m 265 165 l 736 165 l 556 639 q 533 704 543 674 q 514 760 522 734 q 500 806 506 786 q 485 755 499 802 q 448 649 470 709 l 265 165 z "},"Ε":{"ha":926,"x_min":93,"x_max":872,"o":"m 872 155 l 872 0 l 93 0 l 93 956 l 844 956 l 844 801 l 293 801 l 293 561 l 803 561 l 803 406 l 293 406 l 293 155 l 872 155 z "},"Ζ":{"ha":848,"x_min":41,"x_max":808,"o":"m 808 157 l 808 0 l 41 0 l 41 142 l 558 799 l 93 799 l 93 956 l 781 956 l 781 817 l 264 157 l 808 157 z "},"Η":{"ha":1003,"x_min":93,"x_max":909,"o":"m 293 410 l 293 0 l 93 0 l 93 956 l 293 956 l 293 575 l 709 575 l 709 956 l 909 956 l 909 0 l 709 0 l 709 410 l 293 410 z "},"Ι":{"ha":386,"x_min":93,"x_max":293,"o":"m 293 956 l 293 0 l 93 0 l 93 956 l 293 956 z "},"Κ":{"ha":1003,"x_min":93,"x_max":990,"o":"m 293 349 l 293 0 l 93 0 l 93 956 l 293 956 l 293 522 l 724 956 l 957 956 l 549 551 l 990 0 l 754 0 l 411 439 l 293 349 z "},"Λ":{"ha":926,"x_min":9,"x_max":917,"o":"m 416 603 l 218 1 l 9 1 l 363 956 l 566 956 l 917 1 l 710 1 l 514 601 q 486 695 498 651 q 465 781 475 739 q 450 720 460 755 q 431 654 441 686 q 416 603 422 622 z "},"Μ":{"ha":1157,"x_min":93,"x_max":1064,"o":"m 271 579 l 271 0 l 93 0 l 93 956 l 361 956 l 532 421 q 555 331 543 376 q 579 241 568 286 q 593 293 587 267 q 607 344 600 318 q 622 395 614 370 l 798 956 l 1064 956 l 1064 0 l 886 0 l 886 579 q 888 658 886 599 q 893 787 890 718 q 851 633 869 696 q 822 533 833 569 l 650 0 l 507 0 l 335 533 l 262 787 q 269 657 267 709 q 271 579 271 605 z "},"Ν":{"ha":1003,"x_min":93,"x_max":909,"o":"m 271 564 l 271 0 l 93 0 l 93 956 l 321 956 l 744 214 q 732 400 732 317 l 732 956 l 909 956 l 909 0 l 675 0 l 258 736 q 268 639 264 682 q 271 564 271 596 z "},"Ξ":{"ha":894,"x_min":57,"x_max":838,"o":"m 814 956 l 814 801 l 81 801 l 81 956 l 814 956 m 732 561 l 732 406 l 162 406 l 162 561 l 732 561 m 838 155 l 838 0 l 57 0 l 57 155 l 838 155 z "},"Ο":{"ha":1080,"x_min":57,"x_max":1022,"o":"m 1022 482 q 962 221 1022 333 q 793 48 902 110 q 538 -14 684 -14 q 280 46 388 -14 q 115 218 172 106 q 57 482 57 329 q 114 745 57 635 q 280 912 172 854 q 539 970 388 970 q 799 911 691 970 q 964 743 907 852 q 1022 482 1022 634 m 818 482 q 745 725 818 637 q 539 812 671 812 q 332 725 405 812 q 258 482 258 638 q 292 302 258 378 q 389 185 326 226 q 538 144 452 144 q 745 232 672 144 q 818 482 818 320 z "},"Π":{"ha":1003,"x_min":93,"x_max":909,"o":"m 292 790 l 292 0 l 93 0 l 93 956 l 909 956 l 909 0 l 716 0 l 716 790 l 292 790 z "},"Ρ":{"ha":926,"x_min":93,"x_max":879,"o":"m 879 653 q 837 489 879 560 q 716 377 794 417 q 530 336 638 336 l 293 336 l 293 0 l 93 0 l 93 956 l 522 956 q 786 877 694 956 q 879 653 879 798 m 677 650 q 500 800 677 800 l 293 800 l 293 490 l 505 490 q 633 531 588 490 q 677 650 677 572 z "},"Σ":{"ha":833,"x_min":61,"x_max":791,"o":"m 791 155 l 791 0 l 61 0 l 61 159 l 365 503 l 73 798 l 73 956 l 750 956 l 750 801 l 277 801 l 529 548 l 529 457 l 262 155 l 791 155 z "},"Τ":{"ha":848,"x_min":16,"x_max":833,"o":"m 524 801 l 524 0 l 324 0 l 324 801 l 16 801 l 16 956 l 833 956 l 833 801 l 524 801 z "},"Υ":{"ha":926,"x_min":24,"x_max":904,"o":"m 564 392 l 564 0 l 364 0 l 364 392 l 24 956 l 233 956 l 463 551 l 694 956 l 904 956 l 564 392 z "},"Χ":{"ha":926,"x_min":12,"x_max":914,"o":"m 464 380 l 224 0 l 12 0 l 343 503 l 40 956 l 252 956 l 464 618 l 676 956 l 886 956 l 596 503 l 914 0 l 704 0 l 464 380 z "},"Ψ":{"ha":1124,"x_min":65,"x_max":1059,"o":"m 656 290 l 656 0 l 467 0 l 467 290 l 440 290 q 230 328 313 290 q 106 445 147 367 q 65 642 65 524 l 65 956 l 254 956 l 254 639 q 302 486 254 532 q 461 439 350 439 l 467 439 l 467 956 l 656 956 l 656 439 l 663 439 q 821 486 773 439 q 869 639 869 532 l 869 956 l 1059 956 l 1059 642 q 1018 445 1059 524 q 894 328 977 367 q 684 290 811 290 l 656 290 z "},"Ω":{"ha":1114,"x_min":56,"x_max":1057,"o":"m 557 970 q 815 920 707 970 q 981 780 923 871 q 1038 562 1038 688 q 966 315 1038 416 q 749 147 895 213 q 818 153 788 151 q 870 155 848 155 l 1057 155 l 1057 0 l 602 0 l 602 210 q 780 346 725 268 q 835 525 835 425 q 762 738 835 663 q 555 812 688 812 q 349 738 423 812 q 275 525 275 663 q 331 346 275 425 q 509 210 386 268 l 509 0 l 56 0 l 56 155 l 242 155 q 295 153 265 155 q 362 147 325 151 q 145 316 216 214 q 75 562 75 418 q 133 781 75 690 q 299 921 191 872 q 557 970 407 970 z "},"Ϊ":{"ha":386,"x_min":-28,"x_max":414,"o":"m 293 956 l 293 0 l 93 0 l 93 956 l 293 956 m 414 1186 l 414 1038 l 280 1038 l 280 1186 l 414 1186 m 104 1186 l 104 1038 l -28 1038 l -28 1186 l 104 1186 z "},"Ϋ":{"ha":926,"x_min":24,"x_max":904,"o":"m 681 1186 l 681 1038 l 547 1038 l 547 1186 l 681 1186 m 371 1186 l 371 1038 l 239 1038 l 239 1186 l 371 1186 m 564 392 l 564 0 l 364 0 l 364 392 l 24 956 l 233 956 l 463 551 l 694 956 l 904 956 l 564 392 z "},"ά":{"ha":854,"x_min":54,"x_max":840,"o":"m 583 161 q 483 28 541 69 q 340 -14 425 -14 q 125 80 196 -14 q 54 363 54 173 q 131 652 54 556 q 357 747 208 747 q 510 702 446 747 q 607 574 574 657 l 609 574 q 660 734 626 659 l 840 734 q 792 629 817 693 q 749 497 768 564 q 725 377 730 429 q 759 178 736 273 q 817 0 782 84 l 634 0 q 605 81 617 41 q 586 161 593 121 l 583 161 m 254 366 q 283 175 254 233 q 377 117 312 117 q 481 186 437 117 q 536 368 524 254 q 482 552 522 488 q 382 616 442 616 q 284 555 313 616 q 254 366 254 495 m 573 998 l 423 802 l 352 802 l 352 825 l 399 1023 l 573 1023 l 573 998 z "},"έ":{"ha":627,"x_min":52,"x_max":637,"o":"m 357 114 q 449 137 404 114 q 540 207 495 161 l 637 112 q 498 14 565 41 q 337 -14 432 -14 q 127 43 202 -14 q 52 201 52 99 q 105 325 52 278 q 248 378 159 371 l 248 380 q 121 433 167 388 q 75 551 75 479 q 153 694 75 641 q 361 747 231 747 q 516 722 454 747 q 626 633 578 696 l 516 549 q 453 607 488 588 q 372 626 419 626 q 286 604 315 626 q 256 543 256 582 q 304 467 256 492 q 478 442 351 442 l 478 322 q 336 312 378 322 q 271 278 293 302 q 248 213 248 255 q 277 139 248 164 q 357 114 306 114 m 508 998 l 358 802 l 287 802 l 287 825 l 334 1023 l 508 1023 l 508 998 z "},"ή":{"ha":848,"x_min":73,"x_max":762,"o":"m 762 489 l 762 -288 l 573 -288 l 573 427 q 546 566 573 528 q 447 605 518 605 q 330 548 372 605 q 288 394 288 492 l 288 0 l 97 0 l 97 577 q 73 734 97 661 l 255 734 q 274 672 267 707 q 281 608 281 636 l 283 608 q 383 716 326 684 q 524 747 440 747 q 706 686 650 747 q 762 489 762 625 m 606 998 l 456 802 l 385 802 l 385 825 l 432 1023 l 606 1023 l 606 998 z "},"ί":{"ha":386,"x_min":93,"x_max":340,"o":"m 135 0 q 104 67 115 22 q 93 160 93 113 l 93 734 l 284 734 l 284 154 q 299 70 284 113 q 338 0 313 27 l 135 0 m 340 998 l 191 802 l 119 802 l 119 825 l 166 1023 l 340 1023 l 340 998 z "},"ΰ":{"ha":808,"x_min":86,"x_max":751,"o":"m 751 387 q 664 88 751 189 q 403 -14 576 -14 q 163 61 240 -14 q 86 294 86 136 l 86 734 l 277 734 l 277 312 q 309 173 277 220 q 414 127 341 127 q 527 191 493 127 q 561 409 561 256 q 549 520 561 460 q 518 637 537 581 q 477 734 499 694 l 671 734 q 729 568 706 663 q 751 387 751 473 m 532 1074 l 410 807 l 332 807 l 332 829 l 372 1099 l 532 1099 l 532 1074 m 297 985 l 297 835 l 161 835 l 161 985 l 297 985 m 658 985 l 658 835 l 522 835 l 522 985 l 658 985 z "}}}
